<svg width="315" height="271" viewBox="0 0 315 271" fill="none" xmlns="http://www.w3.org/2000/svg">
<g clip-path="url(#clip0_0_191)">
<path fill-rule="evenodd" clip-rule="evenodd" d="M310.435 104.208C312.452 104.208 314.093 105.799 314.093 107.753V109.549C314.093 111.504 312.452 113.095 310.435 113.095H295.064V118.266C295.064 123.753 290.6 128.217 285.113 128.217H280.897V143.985C280.897 146.002 279.307 147.643 277.351 147.643H275.555C273.6 147.643 272.009 146.002 272.009 143.985V128.217H260.91V143.985C260.91 146.002 259.319 147.643 257.364 147.643H255.568C253.613 147.643 252.022 146.002 252.022 143.985V128.217H240.922V143.985C240.922 146.002 239.332 147.643 237.376 147.643H235.581C233.626 147.643 232.035 146.002 232.035 143.985V128.217H220.935V143.985C220.935 146.002 219.344 147.643 217.389 147.643H215.593C213.638 147.643 212.047 146.002 212.047 143.985V128.217H208.329C202.842 128.217 198.377 123.753 198.377 118.266V113.095H184.209C182.192 113.095 180.551 111.504 180.551 109.549V107.753C180.551 105.799 182.192 104.208 184.209 104.208H198.377V93.1075H184.209C182.192 93.1075 180.551 91.5169 180.551 89.5616V87.7656C180.551 85.8103 182.192 84.2197 184.209 84.2197H198.377V73.1198H184.209C182.192 73.1198 180.551 71.5292 180.551 69.5744V67.7784C180.551 65.8231 182.192 64.2325 184.209 64.2325H198.377V53.1323H184.209C182.192 53.1323 180.551 51.5417 180.551 49.5864V47.7909C180.551 45.8356 182.192 44.245 184.209 44.245H198.377V41.4814C198.377 35.9944 202.842 31.5304 208.329 31.5304H212.047V15.9021C212.047 13.8853 213.638 12.2443 215.593 12.2443H217.389C219.344 12.2443 220.935 13.8853 220.935 15.9021V31.5304H232.035V15.9021C232.035 13.8853 233.626 12.2443 235.581 12.2443H237.376C239.332 12.2443 240.922 13.8853 240.922 15.9021V31.5304H252.022V15.9021C252.022 13.8853 253.613 12.2443 255.568 12.2443H257.364C259.319 12.2443 260.91 13.8853 260.91 15.9021V31.5304H272.009V15.9021C272.009 13.8853 273.6 12.2443 275.555 12.2443H277.351C279.307 12.2443 280.897 13.8853 280.897 15.9021V31.5304H285.113C290.6 31.5304 295.064 35.9944 295.064 41.4814V44.245H310.435C312.452 44.245 314.093 45.8356 314.093 47.7909V49.5864C314.093 51.5417 312.452 53.1323 310.435 53.1323H295.064V64.2325H310.435C312.452 64.2325 314.093 65.8231 314.093 67.7784V69.5744C314.093 71.5292 312.452 73.1198 310.435 73.1198H295.064V84.2197H310.435C312.452 84.2197 314.093 85.8103 314.093 87.7656V89.5616C314.093 91.5169 312.452 93.1075 310.435 93.1075H295.064V104.208H310.435ZM295.064 110.256H310.435C310.879 110.256 311.254 109.932 311.254 109.549V107.753C311.254 107.37 310.879 107.046 310.435 107.046H295.064V110.256ZM198.377 47.0835H184.209C183.765 47.0835 183.39 47.4074 183.39 47.7909V49.5864C183.39 49.97 183.765 50.2938 184.209 50.2938H198.377V47.0835ZM198.377 67.071H184.209C183.765 67.071 183.39 67.3948 183.39 67.7784V69.5744C183.39 69.9572 183.765 70.281 184.209 70.281H198.377V67.071ZM198.377 87.0582H184.209C183.765 87.0582 183.39 87.3823 183.39 87.7656V89.5616C183.39 89.9452 183.765 90.269 184.209 90.269H198.377V87.0582ZM198.377 107.046H184.209C183.765 107.046 183.39 107.37 183.39 107.753V109.549C183.39 109.932 183.765 110.256 184.209 110.256H198.377V107.046ZM274.848 143.985C274.848 144.429 275.172 144.804 275.555 144.804H277.351C277.735 144.804 278.059 144.429 278.059 143.985V128.217H274.848V143.985ZM254.861 143.985C254.861 144.429 255.185 144.804 255.568 144.804H257.364C257.747 144.804 258.071 144.429 258.071 143.985V128.217H254.861V143.985ZM234.873 143.985C234.873 144.429 235.197 144.804 235.581 144.804H237.376C237.76 144.804 238.084 144.429 238.084 143.985V128.217H234.873V143.985ZM214.886 143.985C214.886 144.429 215.21 144.804 215.593 144.804H217.389C217.772 144.804 218.096 144.429 218.096 143.985V128.217H214.886V143.985ZM218.096 15.9021C218.096 15.458 217.772 15.0829 217.389 15.0829H215.593C215.21 15.0829 214.886 15.458 214.886 15.9021V31.5304H218.096V15.9021ZM238.084 15.9021C238.084 15.458 237.76 15.0829 237.376 15.0829H235.581C235.197 15.0829 234.873 15.458 234.873 15.9021V31.5304H238.084V15.9021ZM258.071 15.9021C258.071 15.458 257.747 15.0829 257.364 15.0829H255.568C255.185 15.0829 254.861 15.458 254.861 15.9021V31.5304H258.071V15.9021ZM278.059 15.9021C278.059 15.458 277.735 15.0829 277.351 15.0829H275.555C275.172 15.0829 274.848 15.458 274.848 15.9021V31.5304H278.059V15.9021ZM292.225 41.4814C292.225 37.5598 289.034 34.3689 285.113 34.3689H208.329C204.407 34.3689 201.216 37.5598 201.216 41.4814V118.266C201.216 122.187 204.407 125.378 208.329 125.378H285.113C289.034 125.378 292.225 122.187 292.225 118.266V41.4814ZM310.435 50.2938C310.879 50.2938 311.254 49.97 311.254 49.5864V47.7909C311.254 47.4074 310.879 47.0835 310.435 47.0835H295.064V50.2938H310.435ZM310.435 70.281C310.879 70.281 311.254 69.9572 311.254 69.5744V67.7784C311.254 67.3948 310.879 67.071 310.435 67.071H295.064V70.281H310.435ZM310.435 90.269C310.879 90.269 311.254 89.9452 311.254 89.5616V87.7656C311.254 87.3823 310.879 87.0582 310.435 87.0582H295.064V90.269H310.435ZM285.113 121.053H273.579H219.365H208.329C206.792 121.053 205.541 119.803 205.541 118.266V41.4814C205.541 39.9443 206.792 38.6938 208.329 38.6938H215.638H274.241H285.113C286.65 38.6938 287.9 39.9443 287.9 41.4814V118.266C287.9 119.803 286.65 121.053 285.113 121.053ZM273.761 109.705C275.198 109.705 276.367 108.536 276.367 107.099C276.367 105.663 275.198 104.494 273.761 104.494C272.325 104.494 271.156 105.663 271.156 107.099C271.156 108.536 272.325 109.705 273.761 109.705ZM215.437 52.8756C214 52.8756 212.832 54.0446 212.832 55.4809C212.832 56.9174 214 58.0865 215.437 58.0865C216.873 58.0865 218.042 56.9174 218.042 55.4809C218.042 54.0446 216.873 52.8756 215.437 52.8756ZM285.062 41.4814L275.66 41.4877V79.5684C278.067 80.1306 279.867 82.2895 279.867 84.8652C279.867 87.867 277.425 90.3091 274.423 90.3091C273.639 90.3091 273.004 89.674 273.004 88.8898C273.004 88.1057 273.639 87.4706 274.423 87.4706C275.859 87.4706 277.029 86.3015 277.029 84.8652C277.029 83.4287 275.859 82.2597 274.423 82.2597C272.987 82.2597 271.818 83.4287 271.818 84.8652C271.818 85.6491 271.182 86.2845 270.398 86.2845C269.614 86.2845 268.979 85.6491 268.979 84.8652C268.979 82.4205 270.599 80.3476 272.822 79.6622V41.5323H248.574V55.5674L257.868 55.6766C258.646 55.6858 259.271 56.3182 259.271 57.0956V68.7858C261.108 69.5115 262.416 71.296 262.416 73.3883C262.416 76.121 260.193 78.3443 257.46 78.3443C254.727 78.3443 252.504 76.121 252.504 73.3883C252.504 71.0081 254.191 69.0169 256.432 68.5419V58.4986L247.138 58.3896C246.36 58.3802 245.735 57.7477 245.735 56.9701V41.5323H217.055L217.039 50.2784C219.261 50.964 220.881 53.0367 220.881 55.4809C220.881 58.4826 218.439 60.9253 215.437 60.9253C212.435 60.9253 209.993 58.4826 209.993 55.4809C209.993 52.9049 211.793 50.746 214.201 50.1838L214.216 41.5283L208.329 41.5323L208.38 118.215H217.946V87.2584C215.539 86.6961 213.739 84.5372 213.739 81.9618C213.739 81.1776 214.374 80.5425 215.158 80.5425C215.942 80.5425 216.578 81.1776 216.578 81.9618C216.578 83.3983 217.746 84.5671 219.183 84.5671C220.619 84.5671 221.788 83.3983 221.788 81.9618C221.788 80.5252 220.619 79.3564 219.183 79.3564C218.399 79.3564 217.764 78.7211 217.764 77.9369C217.764 77.153 218.399 76.5174 219.183 76.5174C222.185 76.5174 224.627 78.96 224.627 81.9618C224.627 84.4062 223.007 86.4794 220.784 87.1646V118.215H246.311V91.7705L234.644 91.8169H234.638C234.263 91.8169 233.903 91.6681 233.637 91.4035C233.369 91.1367 233.219 90.7749 233.219 90.3976V79.0164C231.124 78.3983 229.581 76.4797 229.581 74.1866C229.581 71.3982 231.849 69.1298 234.638 69.1298C237.426 69.1298 239.695 71.3982 239.695 74.1866C239.695 76.4791 238.152 78.398 236.058 79.0164V88.9726L247.725 88.9265C248.101 88.9386 248.465 89.074 248.732 89.3397C249 89.6064 249.15 89.9682 249.15 90.3455V118.215H272.16V112.302C269.937 111.617 268.317 109.544 268.317 107.099C268.317 104.098 270.759 101.655 273.761 101.655C276.763 101.655 279.205 104.098 279.205 107.099C279.205 109.675 277.405 111.834 274.999 112.396V118.215H285.113L285.062 41.4814ZM257.46 71.2703C256.292 71.2703 255.342 72.2203 255.342 73.3883C255.342 74.5555 256.292 75.5058 257.46 75.5058C258.628 75.5058 259.578 74.5555 259.578 73.3883C259.578 72.2203 258.628 71.2703 257.46 71.2703ZM236.856 74.1866C236.856 72.9636 235.861 71.9686 234.638 71.9686C233.415 71.9686 232.419 72.9636 232.419 74.1866C232.419 75.4102 233.415 76.4055 234.638 76.4055C235.861 76.4055 236.856 75.4102 236.856 74.1866ZM299.701 22.494C295.967 22.494 292.929 19.4562 292.929 15.7221C292.929 11.9881 295.967 8.95022 299.701 8.95022C303.435 8.95022 306.473 11.9881 306.473 15.7221C306.473 19.4562 303.435 22.494 299.701 22.494ZM299.701 11.789C297.532 11.789 295.768 13.5533 295.768 15.7221C295.768 17.891 297.532 19.6555 299.701 19.6555C301.869 19.6555 303.634 17.891 303.634 15.7221C303.634 13.5533 301.869 11.789 299.701 11.789ZM175.553 42.939C175.505 42.939 175.457 42.9366 175.408 42.9316C173.552 42.7435 171.671 42.5997 169.817 42.504C169.034 42.4639 168.433 41.7961 168.473 41.0135C168.513 40.2299 169.18 39.6228 169.964 39.6692C171.863 39.7669 173.791 39.9144 175.694 40.1075C176.474 40.1866 177.042 40.8828 176.963 41.6625C176.889 42.3937 176.272 42.939 175.553 42.939ZM193.56 185.484C193.936 185.484 194.297 185.633 194.563 185.899C194.829 186.165 194.979 186.526 194.979 186.903V206.765C194.979 207.55 194.344 208.185 193.56 208.185C192.775 208.185 192.14 207.55 192.14 206.765V188.324L167.268 188.351H167.266C166.483 188.351 165.848 187.716 165.847 186.933C165.846 186.149 166.48 185.513 167.265 185.512L193.558 185.484H193.56ZM163.941 269.455C162.026 269.455 160.092 269.407 158.194 269.314C157.411 269.275 156.808 268.609 156.847 267.826C156.885 267.043 157.571 266.428 158.334 266.479C160.186 266.57 162.072 266.616 163.941 266.616C164.725 266.616 165.361 267.252 165.361 268.036C165.361 268.82 164.725 269.455 163.941 269.455ZM157.59 42.5294C155.735 42.6329 153.855 42.7849 152.002 42.9809C151.951 42.9864 151.9 42.9887 151.85 42.9887C151.134 42.9887 150.518 42.4477 150.441 41.7186C150.359 40.9394 150.924 40.2406 151.703 40.1581C153.602 39.9569 155.53 39.8012 157.432 39.6954C158.214 39.6556 158.884 40.2508 158.928 41.0334C158.972 41.816 158.373 42.486 157.59 42.5294ZM137.533 149.715C137.21 149.715 136.884 149.685 136.56 149.621C135.595 149.433 134.716 148.952 134.019 148.23C133.084 147.261 132.549 145.924 132.549 144.559V137.997C132.549 136.496 133.214 135.086 134.374 134.131C135.534 133.175 137.056 132.795 138.55 133.088C140.874 133.541 142.56 135.671 142.56 138.151V144.712C142.56 146.203 141.892 147.608 140.728 148.567C139.817 149.318 138.691 149.715 137.533 149.715ZM139.722 138.151C139.722 137.044 138.984 136.065 138.006 135.874C137.853 135.844 137.702 135.829 137.554 135.829C137.049 135.829 136.572 135.998 136.179 136.322C135.676 136.736 135.387 137.346 135.387 137.997V144.559C135.387 145.195 135.633 145.814 136.061 146.258C136.352 146.559 136.713 146.759 137.103 146.836C137.76 146.963 138.407 146.801 138.923 146.377C139.431 145.958 139.722 145.352 139.722 144.712V138.151ZM137.394 83.4622C137.071 83.4622 136.745 83.4311 136.421 83.3677C135.455 83.1793 134.576 82.6975 133.879 81.9741C132.945 81.0078 132.41 79.6703 132.41 78.3048V71.7432C132.41 70.242 133.075 68.8329 134.235 67.8777C135.394 66.9224 136.916 66.542 138.411 66.8341C140.735 67.2882 142.422 69.4172 142.422 71.897V78.4586C142.422 79.9493 141.754 81.3547 140.589 82.3139C139.678 83.0637 138.552 83.4622 137.394 83.4622ZM139.583 71.897C139.583 70.7901 138.845 69.8115 137.867 69.62C137.714 69.5904 137.563 69.5757 137.414 69.5757C136.91 69.5757 136.433 69.7444 136.039 70.0685C135.537 70.4825 135.248 71.093 135.248 71.7432V78.3048C135.248 78.9412 135.494 79.5603 135.922 80.0031C136.213 80.3054 136.574 80.5056 136.965 80.5818C137.622 80.7094 138.269 80.5475 138.784 80.1228C139.292 79.7049 139.583 79.0984 139.583 78.4586V71.897ZM137.248 61.7288C136.924 61.7288 136.598 61.6971 136.273 61.634C135.309 61.4453 134.43 60.9646 133.732 60.2422C132.798 59.2749 132.263 57.9369 132.263 56.5708V50.0093C132.263 48.508 132.928 47.0995 134.087 46.1445C135.248 45.189 136.77 44.8096 138.264 45.1007C140.588 45.554 142.274 47.6835 142.274 50.1636V56.7251C142.274 58.2162 141.607 59.6213 140.441 60.581C139.532 61.3303 138.404 61.7288 137.248 61.7288ZM139.436 50.1636C139.436 49.0567 138.698 48.0773 137.72 47.8868C137.568 47.857 137.416 47.8423 137.268 47.8423C136.762 47.8423 136.286 48.011 135.893 48.3351C135.39 48.7491 135.102 49.3593 135.102 50.0093V56.5708C135.102 57.208 135.347 57.8271 135.774 58.2696C136.066 58.5717 136.426 58.7719 136.818 58.8479C137.476 58.976 138.122 58.8135 138.636 58.3896C139.145 57.9715 139.436 57.3649 139.436 56.7251V50.1636ZM140.988 127.565H133.815C133.031 127.565 132.396 126.93 132.396 126.146C132.396 125.362 133.031 124.727 133.815 124.727H135.979V116.419L134.938 117.766C134.459 118.387 133.568 118.502 132.947 118.022C132.327 117.543 132.213 116.651 132.692 116.031L136.275 111.391C136.646 110.911 137.281 110.718 137.856 110.916C138.431 111.112 138.818 111.652 138.818 112.259V124.727H140.988C141.772 124.727 142.407 125.362 142.407 126.146C142.407 126.93 141.772 127.565 140.988 127.565ZM134.941 96.3236C134.462 96.9437 133.57 97.0587 132.95 96.579C132.329 96.0998 132.215 95.2087 132.694 94.5881L136.278 89.9486C136.649 89.4681 137.284 89.2752 137.859 89.473C138.434 89.6688 138.82 90.209 138.82 90.816V103.284H140.991C141.775 103.284 142.41 103.919 142.41 104.703C142.41 105.488 141.775 106.123 140.991 106.123H133.818C133.033 106.123 132.398 105.488 132.398 104.703C132.398 103.919 133.033 103.284 133.818 103.284H135.982V94.9758L134.941 96.3236ZM155.649 170.868C155.686 170.887 155.725 170.899 155.76 170.922C155.793 170.944 155.818 170.974 155.849 170.998C155.889 171.029 155.928 171.06 155.965 171.096C156.022 171.151 156.071 171.212 156.118 171.276C156.146 171.314 156.176 171.349 156.2 171.39C156.245 171.466 156.278 171.547 156.308 171.631C156.321 171.667 156.34 171.7 156.35 171.736C156.383 171.857 156.402 171.982 156.402 172.11V201.467C156.402 202.004 156.099 202.495 155.619 202.735L132.125 214.515C132.074 214.541 132.019 214.554 131.966 214.573C131.928 214.586 131.893 214.603 131.854 214.614C131.734 214.646 131.612 214.666 131.488 214.666C131.372 214.666 131.256 214.647 131.142 214.618C131.107 214.609 131.074 214.596 131.04 214.585C130.996 214.57 130.951 214.561 130.908 214.542L105.624 203.205C105.114 202.976 104.786 202.469 104.786 201.91V172.022C104.786 171.899 104.803 171.778 104.833 171.662C104.84 171.636 104.854 171.612 104.863 171.586C104.894 171.492 104.93 171.4 104.98 171.314C105.002 171.277 105.029 171.244 105.054 171.209C105.102 171.141 105.153 171.076 105.213 171.017C105.247 170.983 105.283 170.954 105.321 170.923C105.353 170.897 105.379 170.866 105.414 170.843C105.449 170.819 105.489 170.806 105.526 170.786C105.551 170.772 105.57 170.752 105.595 170.74L129.493 159.38C129.873 159.198 130.313 159.196 130.696 159.372L155.576 170.82C155.603 170.833 155.623 170.854 155.649 170.868ZM107.624 200.991L130.069 211.055V183.335L107.624 174.137V200.991ZM130.112 162.228L109.714 171.925L131.471 180.841L140.431 176.923L151.516 172.076L130.112 162.228ZM153.564 174.28L132.908 183.311V210.947L153.564 200.591V174.28ZM125.307 149.717H118.134C117.349 149.717 116.714 149.081 116.714 148.297C116.714 147.513 117.349 146.878 118.134 146.878H120.298V138.569L119.257 139.917C118.778 140.538 117.886 140.653 117.266 140.173C116.645 139.694 116.531 138.802 117.01 138.182L120.594 133.542C120.965 133.061 121.601 132.868 122.176 133.067C122.751 133.263 123.137 133.803 123.137 134.41V146.878H125.307C126.091 146.878 126.726 147.513 126.726 148.297C126.726 149.081 126.091 149.717 125.307 149.717ZM121.366 127.565C121.042 127.565 120.716 127.534 120.392 127.47C119.428 127.282 118.549 126.801 117.851 126.079C116.917 125.111 116.382 123.773 116.382 122.407V115.846C116.382 114.344 117.047 112.935 118.207 111.98C119.366 111.025 120.888 110.643 122.383 110.937C124.707 111.39 126.393 113.52 126.393 116V122.561C126.393 124.052 125.725 125.458 124.56 126.417C123.65 127.167 122.523 127.565 121.366 127.565ZM123.554 116C123.554 114.893 122.817 113.914 121.839 113.723C121.687 113.694 121.534 113.679 121.386 113.679C120.881 113.679 120.405 113.847 120.011 114.171C119.509 114.585 119.22 115.195 119.22 115.846V122.407C119.22 123.045 119.466 123.664 119.893 124.106C120.185 124.408 120.545 124.608 120.936 124.684C121.592 124.813 122.24 124.65 122.755 124.226C123.263 123.808 123.554 123.201 123.554 122.561V116ZM124.965 106.232H117.792C117.008 106.232 116.372 105.597 116.372 104.813C116.372 104.029 117.008 103.394 117.792 103.394H119.956V95.0848L118.915 96.4331C118.436 97.0537 117.544 97.1685 116.924 96.6885C116.304 96.2096 116.189 95.3183 116.669 94.6978L120.252 90.0578C120.623 89.5773 121.258 89.385 121.834 89.5826C122.409 89.7785 122.795 90.3185 122.795 90.9258V103.394H124.965C125.749 103.394 126.384 104.029 126.384 104.813C126.384 105.597 125.749 106.232 124.965 106.232ZM124.751 83.4523H117.578C116.794 83.4523 116.159 82.8172 116.159 82.0328C116.159 81.2489 116.794 80.6135 117.578 80.6135H119.742V72.3055L118.701 73.6532C118.223 74.2736 117.331 74.3887 116.711 73.9087C116.09 73.4295 115.976 72.5384 116.455 71.9177L120.038 67.2782C120.41 66.7977 121.044 66.6044 121.62 66.8027C122.195 66.9984 122.581 67.5387 122.581 68.1457V80.6135H124.751C125.535 80.6135 126.171 81.2489 126.171 82.0328C126.171 82.8172 125.535 83.4523 124.751 83.4523ZM124.604 62.0571H117.431C116.647 62.0571 116.012 61.422 116.012 60.6378C116.012 59.8539 116.647 59.2183 117.431 59.2183H119.595V50.9098L118.554 52.258C118.075 52.8779 117.183 52.9929 116.563 52.5132C115.943 52.0343 115.829 51.143 116.308 50.5225L119.892 45.883C120.263 45.4018 120.898 45.2087 121.473 45.4075C122.048 45.6035 122.434 46.1435 122.434 46.7505V59.2183H124.604C125.388 59.2183 126.023 59.8539 126.023 60.6378C126.023 61.422 125.388 62.0571 124.604 62.0571ZM108.578 149.717H101.404C100.62 149.717 99.985 149.081 99.985 148.297C99.985 147.513 100.62 146.878 101.404 146.878H103.569V138.569L102.528 139.917C102.049 140.538 101.157 140.653 100.537 140.173C99.9161 139.694 99.8023 138.802 100.281 138.182L103.865 133.542C104.236 133.061 104.872 132.868 105.447 133.067C106.021 133.263 106.408 133.803 106.408 134.41V146.878H108.578C109.362 146.878 109.997 147.513 109.997 148.297C109.997 149.081 109.362 149.717 108.578 149.717ZM108.459 83.8133H101.286C100.502 83.8133 99.8669 83.178 99.8669 82.3941C99.8669 81.6096 100.502 80.9745 101.286 80.9745H103.451V72.6657L102.409 74.014C101.931 74.6341 101.039 74.7492 100.418 74.2697C99.798 73.7905 99.6839 72.8992 100.163 72.2785L103.747 67.639C104.118 67.158 104.754 66.9665 105.328 67.1635C105.903 67.3592 106.289 67.8997 106.289 68.5065V80.9745H108.459C109.243 80.9745 109.879 81.6096 109.879 82.3941C109.879 83.178 109.243 83.8133 108.459 83.8133ZM104.764 61.7288C104.441 61.7288 104.114 61.6971 103.79 61.634C102.826 61.4453 101.947 60.9646 101.249 60.2422C100.315 59.2749 99.7797 57.9369 99.7797 56.5708V50.0093C99.7797 48.508 100.444 47.0995 101.604 46.1445C102.763 45.1898 104.284 44.8083 105.781 45.1007C108.104 45.554 109.791 47.6835 109.791 50.1636V56.7251C109.791 58.2162 109.123 59.6213 107.958 60.581C107.048 61.3303 105.921 61.7288 104.764 61.7288ZM106.953 50.1636C106.953 49.0567 106.215 48.0773 105.237 47.8868C105.085 47.857 104.933 47.8423 104.784 47.8423C104.279 47.8423 103.802 48.011 103.409 48.3351C102.906 48.7491 102.618 49.3593 102.618 50.0093V56.5708C102.618 57.208 102.864 57.8271 103.291 58.2696C103.582 58.5717 103.943 58.7719 104.334 58.8479C104.993 58.976 105.639 58.8135 106.153 58.3896C106.661 57.9715 106.953 57.3649 106.953 56.7251V50.1636ZM104.846 127.565C104.522 127.565 104.196 127.534 103.872 127.47C102.908 127.282 102.029 126.801 101.331 126.079C100.397 125.111 99.8613 123.773 99.8613 122.407V115.846C99.8613 114.344 100.527 112.935 101.686 111.98C102.846 111.025 104.368 110.643 105.863 110.937C108.186 111.39 109.873 113.52 109.873 116V122.561C109.873 124.052 109.205 125.458 108.04 126.417C107.13 127.167 106.003 127.565 104.846 127.565ZM107.034 116C107.034 114.893 106.297 113.914 105.319 113.723C105.166 113.694 105.014 113.679 104.865 113.679C104.36 113.679 103.884 113.847 103.491 114.171C102.988 114.585 102.7 115.195 102.7 115.846V122.407C102.7 123.045 102.945 123.664 103.373 124.106C103.664 124.408 104.025 124.608 104.416 124.684C105.072 124.813 105.72 124.65 106.235 124.226C106.743 123.808 107.034 123.201 107.034 122.561V116ZM102.407 96.4331C101.928 97.0537 101.036 97.1685 100.416 96.6885C99.7951 96.2096 99.681 95.3183 100.16 94.6978L103.744 90.0578C104.115 89.5773 104.75 89.385 105.325 89.5826C105.9 89.7785 106.286 90.3185 106.286 90.9258V103.394H108.456C109.24 103.394 109.876 104.029 109.876 104.813C109.876 105.597 109.24 106.232 108.456 106.232H101.283C100.499 106.232 99.864 105.597 99.864 104.813C99.864 104.029 100.499 103.394 101.283 103.394H103.448V95.0853L102.407 96.4331ZM103.978 219.942C103.978 220.725 103.342 221.361 102.558 221.361H98.3446V225.575C98.3446 226.359 97.7091 226.994 96.9255 226.994C96.1419 226.994 95.5061 226.359 95.5061 225.575V221.361H91.2913C90.5077 221.361 89.872 220.725 89.872 219.942C89.872 219.157 90.5077 218.522 91.2913 218.522H95.5061V214.308C95.5061 213.523 96.1419 212.888 96.9255 212.888C97.7091 212.888 98.3446 213.523 98.3446 214.308V218.522H102.558C103.342 218.522 103.978 219.157 103.978 219.942ZM92.4623 149.717H85.2893C84.5054 149.717 83.8702 149.081 83.8702 148.297C83.8702 147.513 84.5054 146.878 85.2893 146.878H87.454V138.569L86.4126 139.917C85.9336 140.538 85.0422 140.653 84.4219 140.173C83.8013 139.694 83.6869 138.802 84.1663 138.182L87.7501 133.542C88.1206 133.061 88.7561 132.868 89.3317 133.067C89.9065 133.263 90.2928 133.803 90.2928 134.41V146.878H92.4623C93.2464 146.878 93.8816 147.513 93.8816 148.297C93.8816 149.081 93.2464 149.717 92.4623 149.717ZM88.326 127.565C88.002 127.565 87.6759 127.534 87.3516 127.47C86.3863 127.282 85.5074 126.8 84.8102 126.078C83.8766 125.111 83.3411 123.773 83.3411 122.407V115.846C83.3411 114.344 84.0064 112.935 85.1659 111.98C86.3257 111.025 87.8482 110.643 89.3424 110.937C91.6659 111.39 93.3528 113.52 93.3528 116V122.561C93.3528 124.052 92.6846 125.458 91.5193 126.417C90.6093 127.167 89.4828 127.565 88.326 127.565ZM90.5141 116C90.5141 114.893 89.7767 113.914 88.7984 113.723C88.646 113.694 88.4941 113.679 88.3449 113.679C87.8403 113.679 87.3639 113.847 86.9707 114.171C86.468 114.585 86.1799 115.195 86.1799 115.846V122.407C86.1799 123.045 86.4251 123.664 86.8526 124.106C87.1436 124.408 87.5043 124.608 87.8956 124.684C88.5523 124.813 89.1995 124.65 89.7148 124.226C90.2226 123.808 90.5141 123.201 90.5141 122.561V116ZM88.326 83.7635C88.002 83.7635 87.6759 83.7324 87.3516 83.6692C86.3863 83.4806 85.5074 82.999 84.8102 82.2764C83.8766 81.3099 83.3411 79.9719 83.3411 78.6061V72.0445C83.3411 70.5428 84.0064 69.1342 85.1659 68.1787C86.3257 67.2235 87.8482 66.8415 89.3424 67.1357C91.6659 67.5892 93.3528 69.7185 93.3528 72.1989V78.7604C93.3528 80.2512 92.6846 81.6565 91.5193 82.616C90.6096 83.3656 89.4828 83.7635 88.326 83.7635ZM90.5141 72.1989C90.5141 71.0916 89.7767 70.1125 88.7984 69.9218C88.646 69.8922 88.4941 69.8775 88.3449 69.8775C87.8403 69.8775 87.3639 70.0463 86.9707 70.3701C86.468 70.7841 86.1799 71.3945 86.1799 72.0445V78.6061C86.1799 79.2432 86.4251 79.8624 86.8526 80.3049C87.1436 80.6067 87.5043 80.8066 87.8956 80.8831C88.5547 81.0099 89.2006 80.8477 89.7148 80.4246C90.2228 80.0065 90.5141 79.3999 90.5141 78.7604V72.1989ZM87.7267 61.7288C87.4027 61.7288 87.0766 61.6971 86.752 61.634C85.787 61.4453 84.9081 60.964 84.211 60.2412C83.2768 59.2744 82.7413 57.9364 82.7413 56.5708V50.0093C82.7413 48.508 83.4066 47.0995 84.5658 46.1445C85.7256 45.189 87.2471 44.8096 88.7425 45.1007C91.0666 45.554 92.7535 47.6835 92.7535 50.1636V56.7251C92.7535 58.2159 92.0854 59.6213 90.92 60.581C90.01 61.3303 88.8835 61.7288 87.7267 61.7288ZM89.9148 50.1636C89.9148 49.0567 89.1769 48.0773 88.1988 47.8868C88.0464 47.857 87.8948 47.8423 87.7461 47.8423C87.241 47.8423 86.7643 48.011 86.3709 48.3351C85.8684 48.7491 85.5801 49.3593 85.5801 50.0093V56.5708C85.5801 57.2077 85.8253 57.8268 86.2533 58.2696C86.5443 58.5717 86.9053 58.7719 87.2966 58.8479C87.9549 58.9768 88.6007 58.8138 89.1155 58.3896C89.6233 57.9715 89.9148 57.3649 89.9148 56.7251V50.1636ZM85.8742 96.3236C85.3957 96.9437 84.5036 97.0587 83.8835 96.579C83.2629 96.0998 83.1488 95.2087 83.6279 94.5881L87.212 89.9486C87.583 89.4681 88.2172 89.2752 88.7933 89.473C89.3682 89.6688 89.7544 90.209 89.7544 90.816V103.284H91.9244C92.7086 103.284 93.3441 103.919 93.3441 104.703C93.3441 105.488 92.7086 106.123 91.9244 106.123H84.7512C83.967 106.123 83.3318 105.488 83.3318 104.703C83.3318 103.919 83.967 103.284 84.7512 103.284H86.9156V94.9756L85.8742 96.3236ZM89.053 177.222C89.053 182.651 84.6355 187.068 79.2062 187.068C73.7768 187.068 69.3599 182.651 69.3599 177.222C69.3599 171.792 73.7768 167.375 79.2062 167.375C84.6355 167.375 89.053 171.792 89.053 177.222ZM79.2062 170.214C75.3422 170.214 72.1987 173.358 72.1987 177.222C72.1987 181.086 75.3422 184.23 79.2062 184.23C83.0706 184.23 86.2142 181.086 86.2142 177.222C86.2142 173.358 83.0706 170.214 79.2062 170.214ZM76.0554 127.623H68.8824C68.0983 127.623 67.4631 126.988 67.4631 126.204C67.4631 125.419 68.0983 124.784 68.8824 124.784H71.0463V116.476L70.0055 117.824C69.527 118.444 68.6351 118.559 68.0147 118.079C67.3942 117.6 67.2801 116.709 67.7591 116.088L71.3427 111.449C71.7132 110.968 72.3484 110.775 72.9243 110.973C73.4989 111.169 73.8851 111.709 73.8851 112.316V124.784H76.0554C76.8393 124.784 77.4745 125.419 77.4745 126.204C77.4745 126.988 76.8393 127.623 76.0554 127.623ZM72.4479 83.8128C72.1239 83.8128 71.7978 83.7814 71.4735 83.7179C70.509 83.5296 69.6304 83.0485 68.9327 82.3262C67.9985 81.3589 67.4631 80.0209 67.4631 78.6551V72.0933C67.4631 70.5917 68.1283 69.1832 69.2881 68.2277C70.4476 67.273 71.9686 66.8913 73.4643 67.1847C75.7878 67.6382 77.4745 69.7678 77.4745 72.2478V78.8091C77.4745 80.2999 76.8066 81.7053 75.6415 82.665C74.7312 83.4146 73.6047 83.8128 72.4479 83.8128ZM74.636 72.2478C74.636 71.1406 73.8987 70.1615 72.9203 69.9708C72.7679 69.9412 72.616 69.9265 72.4668 69.9265C71.9622 69.9265 71.4858 70.0953 71.0926 70.4191C70.5902 70.833 70.3015 71.4432 70.3015 72.0933V78.6551C70.3015 79.2922 70.5471 79.9113 70.9745 80.3539C71.2661 80.6557 71.6268 80.8559 72.0175 80.9321C72.6745 81.0594 73.3214 80.8978 73.8367 80.4739C74.3445 80.0554 74.636 79.4484 74.636 78.8091V72.2478ZM76.0554 61.7296H68.8824C68.0983 61.7296 67.4631 61.0942 67.4631 60.3101C67.4631 59.5262 68.0983 58.8908 68.8824 58.8908H71.0463V50.5825L70.0055 51.9305C69.527 52.5507 68.6351 52.6654 68.0147 52.1857C67.3942 51.7068 67.2801 50.8155 67.7591 50.195L71.3427 45.5553C71.7132 45.0748 72.3484 44.8822 72.9243 45.0798C73.4989 45.2757 73.8851 45.8157 73.8851 46.423V58.8908H76.0554C76.8393 58.8908 77.4745 59.5262 77.4745 60.3101C77.4745 61.0942 76.8393 61.7296 76.0554 61.7296ZM73.3451 89.505C75.6692 89.958 77.3559 92.0875 77.3559 94.5679V101.129C77.3559 102.62 76.6879 104.026 75.5226 104.985C74.6123 105.735 73.4858 106.133 72.329 106.133C72.0053 106.133 71.6789 106.101 71.3546 106.038C70.3896 105.85 69.5107 105.368 68.8135 104.646C67.8796 103.679 67.3442 102.341 67.3442 100.975V94.4136C67.3442 92.9118 68.0094 91.5028 69.1692 90.5478C70.3295 89.593 71.8526 89.2129 73.3451 89.505ZM70.1829 100.975C70.1829 101.612 70.4282 102.232 70.8556 102.674C71.1466 102.976 71.5076 103.176 71.8989 103.252C72.557 103.381 73.2023 103.218 73.7181 102.794C74.2258 102.376 74.5171 101.769 74.5171 101.129V94.5679C74.5171 93.4607 73.7795 92.4818 72.8011 92.2911C72.6487 92.2612 72.4968 92.2466 72.3479 92.2466C71.8435 92.2466 71.3671 92.4153 70.974 92.7391C70.4713 93.1531 70.1829 93.7633 70.1829 94.4136V100.975ZM69.6836 139.917C69.2048 140.538 68.3132 140.653 67.6926 140.173C67.072 139.694 66.9579 138.802 67.4373 138.182L71.0211 133.542C71.3927 133.061 72.0268 132.868 72.6024 133.067C73.1773 133.263 73.5638 133.803 73.5638 134.41V146.878H75.7333C76.5172 146.878 77.1526 147.513 77.1526 148.297C77.1526 149.081 76.5172 149.717 75.7333 149.717H68.5603C67.7764 149.717 67.1409 149.081 67.1409 148.297C67.1409 147.513 67.7764 146.878 68.5603 146.878H70.725V138.569L69.6836 139.917ZM68.9835 216.788C68.7465 216.94 68.4813 217.012 68.2198 217.012C67.7517 217.012 67.2939 216.781 67.0228 216.357C64.8446 212.953 62.8261 209.395 61.0229 205.785C60.6726 205.083 60.9572 204.231 61.6581 203.881C62.3591 203.531 63.2113 203.815 63.5622 204.516C65.321 208.037 67.2896 211.507 69.4142 214.827C69.8363 215.488 69.6437 216.365 68.9835 216.788ZM56.3913 149.736C56.0674 149.736 55.7412 149.705 55.417 149.642C54.4519 149.453 53.5731 148.972 52.8759 148.249C51.9417 147.282 51.4062 145.944 51.4062 144.579V138.017C51.4062 136.516 52.0715 135.107 53.2313 134.152C54.391 133.197 55.9131 132.816 57.4075 133.109C59.7315 133.563 61.4182 135.692 61.4182 138.171V144.733C61.4182 146.224 60.7503 147.629 59.5849 148.589C58.6747 149.338 57.5482 149.736 56.3913 149.736ZM58.5795 138.171C58.5795 137.064 57.8418 136.086 56.8632 135.895C56.7108 135.865 56.5597 135.85 56.4108 135.85C55.9064 135.85 55.4295 136.019 55.0358 136.343C54.5331 136.757 54.245 137.367 54.245 138.017V144.579C54.245 145.215 54.4902 145.834 54.918 146.278C55.209 146.579 55.5699 146.78 55.9612 146.856C56.6201 146.984 57.2652 146.821 57.7801 146.398C58.2879 145.979 58.5795 145.373 58.5795 144.733V138.171ZM56.244 106.133C55.9203 106.133 55.5939 106.101 55.2696 106.038C54.3054 105.85 53.4265 105.369 52.7288 104.647C51.7946 103.679 51.2591 102.341 51.2591 100.975V94.4136C51.2591 92.9118 51.9247 91.5033 53.0842 90.5478C54.2439 89.593 55.7668 89.2116 57.2606 89.505C59.5841 89.958 61.2708 92.0875 61.2708 94.5679V101.129C61.2708 102.62 60.6027 104.026 59.4376 104.985C58.5273 105.735 57.4011 106.133 56.244 106.133ZM58.4324 94.5679C58.4324 93.4607 57.6947 92.4818 56.7167 92.2911C56.5642 92.2612 56.4121 92.2466 56.2629 92.2466C55.7583 92.2466 55.2821 92.4153 54.889 92.7391C54.3862 93.1531 54.0979 93.7633 54.0979 94.4136V100.975C54.0979 101.612 54.3431 102.232 54.7706 102.674C55.0621 102.976 55.4231 103.176 55.8139 103.252C56.4703 103.381 57.1173 103.218 57.633 102.794C58.1406 102.376 58.4324 101.769 58.4324 101.129V94.5679ZM59.5017 83.8133H52.3287C51.5448 83.8133 50.9096 83.178 50.9096 82.3941C50.9096 81.6096 51.5448 80.9745 52.3287 80.9745H54.4929V72.6663L53.452 74.014C52.9732 74.6341 52.0816 74.7492 51.4613 74.2697C50.8407 73.7905 50.7263 72.8992 51.2057 72.2785L54.7892 67.639C55.16 67.158 55.7944 66.9665 56.3706 67.1635C56.9454 67.3592 57.3317 67.8997 57.3317 68.5065V80.9745H59.5017C60.2858 80.9745 60.9211 81.6096 60.9211 82.3941C60.9211 83.178 60.2858 83.8133 59.5017 83.8133ZM59.5017 61.7296H52.3287C51.5448 61.7296 50.9096 61.0942 50.9096 60.3101C50.9096 59.5262 51.5448 58.8908 52.3287 58.8908H54.4929V50.5825L53.452 51.9305C52.9732 52.5507 52.0816 52.6654 51.4613 52.1857C50.8407 51.7068 50.7263 50.8155 51.2057 50.195L54.7892 45.5553C55.16 45.0748 55.7944 44.8822 56.3706 45.0798C56.9454 45.2757 57.3317 45.8157 57.3317 46.423V58.8908H59.5017C60.2858 58.8908 60.9211 59.5262 60.9211 60.3101C60.9211 61.0942 60.2858 61.7296 59.5017 61.7296ZM52.3218 124.649H54.486V116.341L53.4451 117.688C52.9661 118.309 52.0747 118.424 51.4541 117.944C50.8335 117.465 50.7197 116.573 51.1988 115.953L54.782 111.313C55.1531 110.832 55.7875 110.639 56.3637 110.838C56.9385 111.034 57.3247 111.574 57.3247 112.181V124.649H59.495C60.2789 124.649 60.9141 125.284 60.9141 126.068C60.9141 126.852 60.2789 127.488 59.495 127.488H52.3218C51.5376 127.488 50.9024 126.852 50.9024 126.068C50.9024 125.284 51.5376 124.649 52.3218 124.649ZM52.3072 165.112C52.4809 166.966 52.7043 168.839 52.9706 170.68C53.0828 171.456 52.545 172.176 51.7693 172.288C51.7004 172.298 51.6321 172.303 51.5642 172.303C50.8702 172.303 50.2635 171.794 50.1614 171.087C49.8884 169.199 49.6591 167.278 49.4804 165.378C49.4075 164.597 49.9805 163.905 50.7612 163.832C51.5286 163.763 52.2338 164.331 52.3072 165.112ZM53.5675 181.305C54.328 181.11 55.1004 181.569 55.2936 182.328C56.269 186.146 57.4609 189.953 58.8375 193.646C59.1115 194.38 58.738 195.198 58.0033 195.471C57.84 195.532 57.6727 195.562 57.5077 195.562C56.9321 195.562 56.3905 195.208 56.178 194.637C54.7661 190.851 53.5435 186.945 52.5437 183.031C52.3497 182.271 52.8081 181.498 53.5675 181.305ZM55.8609 245.068H63.8367V237.092C63.8367 236.308 64.4724 235.673 65.2561 235.673C66.0394 235.673 66.6752 236.308 66.6752 237.092V245.068H74.6498C75.4335 245.068 76.0692 245.703 76.0692 246.487C76.0692 247.271 75.4335 247.907 74.6498 247.907H66.6752V255.882C66.6752 256.666 66.0394 257.301 65.2561 257.301C64.4724 257.301 63.8367 256.666 63.8367 255.882V247.907H55.8609C55.0776 247.907 54.4418 247.271 54.4418 246.487C54.4418 245.703 55.0776 245.068 55.8609 245.068ZM74.3277 224.245C74.9409 223.756 75.833 223.855 76.323 224.466C78.7822 227.542 81.4352 230.523 84.2078 233.327C84.7589 233.885 84.7539 234.783 84.1966 235.334C83.9199 235.608 83.559 235.745 83.1986 235.745C82.8328 235.745 82.4668 235.604 82.1896 235.323C79.3469 232.448 76.6268 229.392 74.1059 226.24C73.6164 225.628 73.7157 224.734 74.3277 224.245ZM92.9807 241.311C96.0333 243.81 99.2519 246.171 102.546 248.331C103.201 248.76 103.384 249.64 102.955 250.296C102.682 250.712 102.229 250.937 101.766 250.937C101.499 250.937 101.229 250.862 100.989 250.704C97.612 248.491 94.3128 246.07 91.1836 243.509C90.5769 243.012 90.4872 242.118 90.9833 241.511C91.4802 240.905 92.3737 240.815 92.9807 241.311ZM112.799 254.302C116.309 256.103 119.953 257.735 123.628 259.152C124.359 259.434 124.724 260.255 124.441 260.987C124.224 261.55 123.687 261.896 123.116 261.896C122.947 261.896 122.775 261.865 122.606 261.8C118.839 260.348 115.102 258.675 111.502 256.827C110.805 256.469 110.53 255.614 110.888 254.916C111.246 254.218 112.102 253.945 112.799 254.302ZM130.669 219.8C131.453 219.802 132.086 220.439 132.085 221.223L132.017 247.564H156.601C157.385 247.564 158.02 248.199 158.02 248.983C158.02 249.767 157.385 250.403 156.601 250.403H130.594C130.217 250.403 129.855 250.252 129.589 249.985C129.323 249.719 129.174 249.356 129.175 248.979L129.246 221.216C129.248 220.432 129.839 219.798 130.669 219.8ZM134.912 262.823C138.719 263.84 142.627 264.664 146.526 265.272C147.301 265.393 147.831 266.119 147.71 266.893C147.601 267.593 146.997 268.094 146.309 268.094C146.236 268.094 146.163 268.088 146.089 268.077C142.09 267.453 138.083 266.608 134.179 265.565C133.422 265.363 132.972 264.585 133.174 263.827C133.377 263.07 134.154 262.621 134.912 262.823ZM169.448 227.626C169.479 227.532 169.516 227.441 169.566 227.355C169.587 227.317 169.615 227.285 169.64 227.249C169.687 227.181 169.738 227.117 169.798 227.058C169.833 227.024 169.869 226.994 169.907 226.964C169.939 226.938 169.965 226.906 169.999 226.883C170.035 226.86 170.075 226.846 170.112 226.826C170.137 226.813 170.156 226.792 170.181 226.78L194.079 215.42C194.458 215.238 194.899 215.237 195.281 215.412L220.162 226.86C220.189 226.873 220.209 226.894 220.235 226.908C220.271 226.927 220.311 226.939 220.345 226.962C220.379 226.983 220.404 227.013 220.435 227.037C220.475 227.069 220.514 227.1 220.55 227.136C220.608 227.191 220.657 227.252 220.704 227.316C220.732 227.354 220.761 227.39 220.785 227.43C220.83 227.506 220.864 227.588 220.894 227.671C220.907 227.707 220.925 227.74 220.935 227.777C220.968 227.897 220.988 228.022 220.988 228.15V257.507C220.988 258.044 220.685 258.535 220.205 258.776L196.71 270.555C196.659 270.581 196.605 270.593 196.552 270.612C196.514 270.626 196.478 270.643 196.439 270.654C196.319 270.686 196.197 270.706 196.074 270.706C195.957 270.706 195.842 270.687 195.727 270.658C195.693 270.649 195.66 270.636 195.626 270.625C195.581 270.61 195.536 270.601 195.493 270.582L170.21 259.245C169.7 259.017 169.371 258.509 169.371 257.95V228.062C169.371 227.939 169.388 227.819 169.419 227.703C169.426 227.676 169.44 227.653 169.448 227.626ZM197.493 266.987L218.149 256.631V230.32L197.493 239.351V266.987ZM196.056 236.881L216.1 228.117L194.698 218.268L174.299 227.965L196.056 236.881ZM172.21 257.031L194.654 267.095V239.375L172.21 230.178V257.031ZM220.192 207.746C220.192 206.962 220.827 206.326 221.611 206.326H229.587V198.351C229.587 197.567 230.222 196.932 231.006 196.932C231.79 196.932 232.425 197.567 232.425 198.351V206.326H240.4C241.184 206.326 241.819 206.962 241.819 207.746C241.819 208.53 241.184 209.165 240.4 209.165H232.425V217.141C232.425 217.925 231.79 218.56 231.006 218.56C230.222 218.56 229.587 217.925 229.587 217.141V209.165H221.611C220.827 209.165 220.192 208.53 220.192 207.746ZM235.951 240.442C236.552 239.939 237.447 240.017 237.951 240.617C238.454 241.218 238.376 242.114 237.775 242.617C236.316 243.841 234.804 245.046 233.282 246.199C233.025 246.393 232.724 246.487 232.426 246.487C231.997 246.487 231.573 246.294 231.294 245.925C230.82 245.3 230.943 244.41 231.568 243.936C233.053 242.811 234.528 241.636 235.951 240.442ZM252.962 222.677C253.439 222.055 254.33 221.938 254.952 222.415C255.574 222.892 255.691 223.783 255.214 224.405C252.661 227.733 249.895 230.956 246.994 233.986C246.716 234.277 246.342 234.423 245.969 234.423C245.616 234.423 245.263 234.292 244.987 234.029C244.421 233.487 244.402 232.588 244.944 232.022C247.774 229.067 250.472 225.923 252.962 222.677ZM255.507 236.527C259.241 236.527 262.279 239.564 262.279 243.299C262.279 247.033 259.241 250.071 255.507 250.071C251.773 250.071 248.735 247.033 248.735 243.299C248.735 239.564 251.773 236.527 255.507 236.527ZM255.507 247.232C257.676 247.232 259.441 245.467 259.441 243.299C259.441 241.13 257.676 239.366 255.507 239.366C253.338 239.366 251.574 241.13 251.574 243.299C251.574 245.467 253.338 247.232 255.507 247.232ZM261.123 214.667C260.873 214.667 260.619 214.601 260.389 214.461C259.719 214.055 259.504 213.182 259.911 212.512C262.034 209.008 263.982 205.353 265.702 201.647C266.032 200.936 266.876 200.627 267.587 200.958C268.298 201.287 268.607 202.131 268.277 202.842C266.513 206.642 264.516 210.39 262.338 213.983C262.072 214.423 261.603 214.667 261.123 214.667ZM273.53 178.34C273.696 177.575 274.452 177.088 275.218 177.254C275.984 177.42 276.47 178.175 276.304 178.942C275.415 183.046 274.287 187.142 272.952 191.115C272.753 191.708 272.2 192.083 271.607 192.083C271.457 192.083 271.304 192.059 271.155 192.009C270.411 191.759 270.012 190.954 270.261 190.211C271.563 186.337 272.662 182.343 273.53 178.34ZM275.471 166.177C275.662 164.332 275.809 162.451 275.909 160.586C275.951 159.803 276.63 159.2 277.403 159.245C278.186 159.287 278.786 159.956 278.744 160.738C278.642 162.65 278.49 164.578 278.294 166.469C278.219 167.199 277.602 167.743 276.884 167.743C276.835 167.743 276.786 167.74 276.737 167.735C275.957 167.654 275.39 166.957 275.471 166.177Z" fill="#5D2DCF"/>
<path fill-rule="evenodd" clip-rule="evenodd" d="M96.5 0.463007C149.54 0.463007 192.537 43.4601 192.537 96.5002C192.537 149.54 149.54 192.537 96.5 192.537C43.4601 192.537 0.463007 149.54 0.463007 96.5002C0.463007 43.4601 43.4601 0.463007 96.5 0.463007Z" fill="#FF352B"/>
<path fill-rule="evenodd" clip-rule="evenodd" d="M96.5 3.36016C147.94 3.36016 189.64 45.0604 189.64 96.5002C189.64 147.939 147.94 189.64 96.5 189.64C45.0602 189.64 3.36016 147.939 3.36016 96.5002C3.36016 45.0604 45.0602 3.36016 96.5 3.36016Z" fill="white"/>
<path fill-rule="evenodd" clip-rule="evenodd" d="M180.608 50.1357C180.971 50.7922 181.316 51.4592 181.664 52.125C181.109 51.6021 180.734 50.9097 180.608 50.1357ZM175.553 42.9389C175.505 42.9389 175.457 42.9365 175.408 42.9316C173.552 42.7434 171.671 42.5998 169.817 42.504C169.034 42.4639 168.433 41.7962 168.473 41.0136C168.513 40.2298 169.18 39.6229 169.963 39.6691C171.341 39.74 172.731 39.8458 174.118 39.9673C174.801 40.9033 175.483 41.8399 176.133 42.801C175.953 42.8831 175.76 42.9389 175.553 42.9389ZM158.928 41.0334C158.972 41.816 158.372 42.4859 157.59 42.5294C155.735 42.6329 153.855 42.7849 152.002 42.9809C151.951 42.9864 151.9 42.9888 151.85 42.9888C151.134 42.9888 150.518 42.4478 150.441 41.7187C150.359 40.9393 150.924 40.2406 151.703 40.1579C153.602 39.9568 155.53 39.8013 157.432 39.6953C158.214 39.6556 158.884 40.2508 158.928 41.0334ZM108.578 149.716H101.404C100.62 149.716 99.9851 149.081 99.9851 148.297C99.9851 147.513 100.62 146.878 101.404 146.878H103.569V138.569L102.528 139.917C102.049 140.538 101.157 140.653 100.537 140.173C99.9162 139.694 99.8022 138.802 100.281 138.182L103.865 133.542C104.236 133.061 104.872 132.868 105.447 133.067C106.022 133.263 106.408 133.803 106.408 134.41V146.878H108.578C109.362 146.878 109.997 147.513 109.997 148.297C109.997 149.081 109.362 149.716 108.578 149.716ZM108.459 83.8132H101.286C100.502 83.8132 99.8668 83.178 99.8668 82.394C99.8668 81.6098 100.502 80.9745 101.286 80.9745H103.451V72.6658L102.409 74.0139C101.931 74.6341 101.039 74.7491 100.419 74.2695C99.798 73.7904 99.6838 72.8992 100.163 72.2786L103.747 67.6391C104.118 67.1581 104.754 66.9666 105.328 67.1635C105.903 67.3593 106.29 67.8996 106.29 68.5066V80.9745H108.459C109.243 80.9745 109.878 81.6098 109.878 82.394C109.878 83.178 109.243 83.8132 108.459 83.8132ZM99.7796 50.0095C99.7796 48.5081 100.444 47.0995 101.604 46.1444C102.763 45.1899 104.284 44.8083 105.781 45.1007C108.104 45.5539 109.791 47.6834 109.791 50.1636V56.7252C109.791 58.2161 109.123 59.6214 107.958 60.5809C107.048 61.3303 105.921 61.7287 104.764 61.7287C104.44 61.7287 104.114 61.6973 103.79 61.634C102.826 61.4455 101.947 60.9646 101.249 60.2423C100.315 59.2749 99.7796 57.9368 99.7796 56.5709V50.0095ZM102.618 56.5709C102.618 57.208 102.863 57.8271 103.291 58.2697C103.582 58.5716 103.943 58.7718 104.334 58.8478C104.993 58.976 105.639 58.8135 106.153 58.3895C106.661 57.9714 106.953 57.3648 106.953 56.7252V50.1636C106.953 49.0567 106.215 48.0774 105.237 47.8867C105.085 47.8572 104.933 47.8424 104.784 47.8424C104.279 47.8424 103.802 48.011 103.409 48.3352C102.907 48.7491 102.618 49.3593 102.618 50.0095V56.5709ZM104.846 127.565C104.522 127.565 104.196 127.534 103.872 127.47C102.907 127.282 102.029 126.801 101.331 126.079C100.397 125.111 99.8614 123.773 99.8614 122.407V115.846C99.8614 114.344 100.527 112.935 101.686 111.98C102.846 111.025 104.368 110.643 105.863 110.937C108.186 111.39 109.873 113.52 109.873 116V122.561C109.873 124.052 109.205 125.458 108.04 126.417C107.129 127.167 106.003 127.565 104.846 127.565ZM107.034 116C107.034 114.893 106.297 113.914 105.319 113.723C105.166 113.694 105.014 113.679 104.865 113.679C104.361 113.679 103.884 113.847 103.491 114.171C102.988 114.585 102.7 115.196 102.7 115.846V122.407C102.7 123.045 102.945 123.664 103.373 124.106C103.664 124.408 104.025 124.608 104.416 124.684C105.072 124.813 105.72 124.65 106.235 124.226C106.743 123.808 107.034 123.201 107.034 122.561V116ZM102.407 96.4332C101.928 97.0537 101.036 97.1686 100.416 96.6886C99.7953 96.2095 99.6811 95.3183 100.16 94.6978L103.744 90.0579C104.115 89.5773 104.75 89.3849 105.325 89.5825C105.9 89.7786 106.286 90.3185 106.286 90.9257V103.394H108.456C109.24 103.394 109.876 104.029 109.876 104.813C109.876 105.597 109.24 106.232 108.456 106.232H101.283C100.499 106.232 99.8641 105.597 99.8641 104.813C99.8641 104.029 100.499 103.394 101.283 103.394H103.448V95.0853L102.407 96.4332ZM125.307 149.716H118.134C117.349 149.716 116.714 149.081 116.714 148.297C116.714 147.513 117.349 146.878 118.134 146.878H120.298V138.569L119.257 139.917C118.778 140.538 117.886 140.653 117.266 140.173C116.645 139.694 116.531 138.802 117.01 138.182L120.594 133.542C120.965 133.061 121.601 132.868 122.176 133.067C122.751 133.263 123.137 133.803 123.137 134.41V146.878H125.307C126.091 146.878 126.726 147.513 126.726 148.297C126.726 149.081 126.091 149.716 125.307 149.716ZM126.393 122.561C126.393 124.052 125.725 125.458 124.56 126.417C123.65 127.167 122.523 127.565 121.366 127.565C121.042 127.565 120.716 127.534 120.392 127.47C119.428 127.282 118.549 126.801 117.851 126.079C116.917 125.111 116.382 123.773 116.382 122.407V115.846C116.382 114.344 117.047 112.935 118.207 111.98C119.366 111.025 120.888 110.643 122.383 110.937C124.706 111.39 126.393 113.52 126.393 116V122.561ZM123.555 116C123.555 114.893 122.817 113.914 121.839 113.723C121.687 113.694 121.535 113.679 121.386 113.679C120.881 113.679 120.405 113.847 120.011 114.171C119.509 114.585 119.22 115.196 119.22 115.846V122.407C119.22 123.045 119.466 123.664 119.893 124.106C120.185 124.408 120.545 124.608 120.936 124.684C121.592 124.813 122.24 124.65 122.755 124.226C123.263 123.808 123.555 123.201 123.555 122.561V116ZM124.965 106.232H117.792C117.008 106.232 116.372 105.597 116.372 104.813C116.372 104.029 117.008 103.394 117.792 103.394H119.956V95.0848L118.915 96.4332C118.436 97.0537 117.544 97.1686 116.924 96.6886C116.303 96.2095 116.189 95.3183 116.668 94.6978L120.252 90.0579C120.623 89.5773 121.258 89.3849 121.834 89.5825C122.409 89.7786 122.795 90.3185 122.795 90.9257V103.394H124.965C125.749 103.394 126.384 104.029 126.384 104.813C126.384 105.597 125.749 106.232 124.965 106.232ZM124.751 83.4523H117.578C116.794 83.4523 116.159 82.817 116.159 82.0328C116.159 81.2488 116.794 80.6136 117.578 80.6136H119.742V72.3054L118.701 73.6532C118.223 74.2737 117.331 74.3887 116.711 73.9087C116.09 73.4295 115.976 72.5383 116.455 71.9178L120.039 67.2781C120.41 66.7978 121.044 66.6043 121.62 66.8027C122.195 66.9986 122.581 67.5387 122.581 68.1457V80.6136H124.751C125.535 80.6136 126.171 81.2488 126.171 82.0328C126.171 82.817 125.535 83.4523 124.751 83.4523ZM118.554 52.258C118.075 52.878 117.183 52.9931 116.563 52.5133C115.943 52.0344 115.829 51.1429 116.308 50.5227L119.892 45.8829C120.263 45.4018 120.898 45.2087 121.473 45.4075C122.048 45.6034 122.434 46.1434 122.434 46.7507V59.2185H124.604C125.388 59.2185 126.023 59.8538 126.023 60.6379C126.023 61.4219 125.388 62.057 124.604 62.057H117.431C116.647 62.057 116.011 61.4219 116.011 60.6379C116.011 59.8538 116.647 59.2185 117.431 59.2185H119.595V50.9097L118.554 52.258ZM142.56 144.712C142.56 146.203 141.892 147.608 140.728 148.567C139.817 149.317 138.691 149.716 137.533 149.716C137.21 149.716 136.884 149.685 136.56 149.621C135.595 149.433 134.716 148.952 134.019 148.23C133.084 147.261 132.549 145.924 132.549 144.559V137.997C132.549 136.496 133.214 135.086 134.374 134.132C135.533 133.175 137.056 132.795 138.55 133.088C140.874 133.541 142.56 135.671 142.56 138.151V144.712ZM139.722 138.151C139.722 137.044 138.984 136.065 138.006 135.874C137.853 135.844 137.702 135.829 137.554 135.829C137.049 135.829 136.572 135.998 136.178 136.322C135.676 136.736 135.387 137.347 135.387 137.997V144.559C135.387 145.195 135.633 145.814 136.061 146.258C136.352 146.559 136.713 146.759 137.104 146.835C137.76 146.963 138.407 146.801 138.923 146.377C139.431 145.959 139.722 145.352 139.722 144.712V138.151ZM142.422 78.4586C142.422 79.9492 141.754 81.3548 140.589 82.3139C139.678 83.0637 138.552 83.4621 137.395 83.4621C137.071 83.4621 136.745 83.431 136.421 83.3677C135.455 83.1792 134.576 82.6973 133.879 81.9742C132.945 81.0077 132.41 79.6702 132.41 78.305V71.7432C132.41 70.2418 133.075 68.8329 134.235 67.8776C135.394 66.9225 136.916 66.542 138.411 66.8341C140.735 67.2883 142.422 69.4173 142.422 71.8969V78.4586ZM139.583 71.8969C139.583 70.7901 138.845 69.8114 137.867 69.62C137.714 69.5906 137.563 69.5758 137.414 69.5758C136.91 69.5758 136.433 69.7444 136.04 70.0686C135.537 70.4827 135.249 71.093 135.249 71.7432V78.305C135.249 78.9411 135.494 79.5602 135.922 80.0031C136.213 80.3054 136.574 80.5055 136.965 80.5818C137.622 80.7094 138.269 80.5475 138.784 80.1228C139.292 79.7048 139.583 79.0982 139.583 78.4586V71.8969ZM132.263 50.0095C132.263 48.5081 132.928 47.0995 134.087 46.1444C135.248 45.1891 136.77 44.8096 138.264 45.1007C140.588 45.5539 142.275 47.6834 142.275 50.1636V56.7252C142.275 58.2161 141.606 59.6214 140.441 60.5809C139.532 61.3303 138.405 61.7287 137.248 61.7287C136.924 61.7287 136.598 61.6973 136.273 61.634C135.309 61.4455 134.43 60.9646 133.733 60.2423C132.798 59.2749 132.263 57.9368 132.263 56.5709V50.0095ZM135.102 56.5709C135.102 57.208 135.347 57.8271 135.774 58.2697C136.066 58.5716 136.427 58.7718 136.818 58.8478C137.476 58.976 138.122 58.8135 138.637 58.3895C139.145 57.9714 139.436 57.3648 139.436 56.7252V50.1636C139.436 49.0567 138.698 48.0774 137.72 47.8867C137.568 47.8572 137.416 47.8424 137.268 47.8424C136.763 47.8424 136.286 48.011 135.892 48.3352C135.39 48.7491 135.102 49.3593 135.102 50.0095V56.5709ZM140.988 127.565H133.815C133.031 127.565 132.395 126.93 132.395 126.146C132.395 125.362 133.031 124.727 133.815 124.727H135.979V116.419L134.938 117.766C134.459 118.387 133.568 118.502 132.947 118.022C132.327 117.543 132.213 116.651 132.692 116.031L136.275 111.391C136.646 110.911 137.28 110.718 137.857 110.916C138.431 111.112 138.818 111.652 138.818 112.259V124.727H140.988C141.772 124.727 142.407 125.362 142.407 126.146C142.407 126.93 141.772 127.565 140.988 127.565ZM134.941 96.3236C134.462 96.9436 133.57 97.0588 132.95 96.5791C132.329 96.0998 132.215 95.2086 132.694 94.5881L136.278 89.9484C136.649 89.4681 137.284 89.2753 137.859 89.4729C138.434 89.6689 138.82 90.209 138.82 90.8161V103.284H140.991C141.775 103.284 142.41 103.919 142.41 104.703C142.41 105.487 141.775 106.123 140.991 106.123H133.818C133.034 106.123 132.398 105.487 132.398 104.703C132.398 103.919 133.034 103.284 133.818 103.284H135.982V94.9758L134.941 96.3236ZM104.786 192.158V172.021C104.786 171.899 104.803 171.778 104.833 171.662C104.84 171.636 104.854 171.612 104.863 171.586C104.893 171.492 104.93 171.4 104.98 171.314C105.002 171.277 105.029 171.244 105.054 171.209C105.102 171.141 105.153 171.076 105.213 171.017C105.247 170.983 105.284 170.954 105.321 170.923C105.353 170.897 105.379 170.866 105.414 170.843C105.449 170.819 105.489 170.806 105.526 170.786C105.551 170.773 105.57 170.752 105.596 170.74L129.493 159.379C129.873 159.198 130.313 159.197 130.696 159.372L155.576 170.82C155.603 170.833 155.623 170.854 155.649 170.868C155.686 170.887 155.725 170.899 155.76 170.922C155.793 170.944 155.818 170.974 155.849 170.998C155.889 171.029 155.928 171.06 155.965 171.096C156.022 171.151 156.071 171.212 156.118 171.276C156.146 171.314 156.176 171.349 156.2 171.39C156.243 171.462 156.273 171.539 156.302 171.618C154.77 172.839 153.2 174.013 151.594 175.141L132.908 183.311V185.374C131.968 185.76 131.024 186.137 130.069 186.493V183.335L107.624 174.137V191.875C106.682 191.984 105.736 192.076 104.786 192.158ZM131.471 180.841L140.431 176.923L151.515 172.076L130.112 162.228L109.714 171.925L131.471 180.841ZM180.551 109.549V107.753C180.551 105.798 182.192 104.208 184.209 104.208H192.202C192.126 105.157 192.052 106.105 191.949 107.046H184.209C183.765 107.046 183.39 107.37 183.39 107.753V109.549C183.39 109.932 183.765 110.256 184.209 110.256H191.541C191.404 111.209 191.243 112.152 191.079 113.095H184.209C182.192 113.095 180.551 111.504 180.551 109.549ZM180.551 89.5617V87.7656C180.551 85.8103 182.192 84.2196 184.209 84.2196H191.729C191.849 85.1641 191.977 86.1057 192.07 87.0583H184.209C183.765 87.0583 183.39 87.3823 183.39 87.7656V89.5617C183.39 89.9452 183.765 90.2691 184.209 90.2691H192.314C192.375 91.2117 192.418 92.158 192.451 93.1076H184.209C182.192 93.1076 180.551 91.5169 180.551 89.5617ZM180.551 69.5744V67.7783C180.551 65.8229 182.192 64.2324 184.209 64.2324H186.964C187.299 65.1717 187.618 66.1186 187.925 67.071H184.209C183.765 67.071 183.39 67.3948 183.39 67.7783V69.5744C183.39 69.9572 183.765 70.2811 184.209 70.2811H188.884C189.151 71.2237 189.418 72.1657 189.657 73.1199H184.209C182.192 73.1199 180.551 71.5291 180.551 69.5744ZM53.5675 181.305C54.328 181.11 55.1006 181.569 55.2937 182.328C55.3851 182.686 55.5025 183.041 55.5978 183.399C54.6196 182.937 53.6571 182.45 52.6973 181.957C52.8825 181.644 53.1871 181.401 53.5675 181.305ZM92.4624 149.716H85.2894C84.5054 149.716 83.87 149.081 83.87 148.297C83.87 147.513 84.5054 146.878 85.2894 146.878H87.4539V138.569L86.4126 139.917C85.9334 140.538 85.0422 140.653 84.4217 140.173C83.8012 139.694 83.687 138.802 84.1662 138.182L87.7501 133.542C88.1208 133.061 88.756 132.868 89.3317 133.067C89.9065 133.263 90.2927 133.803 90.2927 134.41V146.878H92.4624C93.2464 146.878 93.8816 147.513 93.8816 148.297C93.8816 149.081 93.2464 149.716 92.4624 149.716ZM67.141 148.297C67.141 147.513 67.7763 146.878 68.5604 146.878H70.7248V138.569L69.6836 139.917C69.2048 140.538 68.3131 140.653 67.6926 140.173C67.0721 139.694 66.958 138.802 67.4372 138.182L71.0211 133.542C71.3926 133.061 72.0269 132.868 72.6026 133.067C73.1775 133.263 73.5637 133.803 73.5637 134.41V146.878H75.7333C76.5172 146.878 77.1527 147.513 77.1527 148.297C77.1527 149.081 76.5172 149.716 75.7333 149.716H68.5604C67.7763 149.716 67.141 149.081 67.141 148.297ZM76.0553 127.623H68.8824C68.0983 127.623 67.463 126.987 67.463 126.204C67.463 125.419 68.0983 124.784 68.8824 124.784H71.0464V116.476L70.0056 117.824C69.5269 118.444 68.6351 118.559 68.0146 118.079C67.3941 117.6 67.2799 116.709 67.7592 116.088L71.3426 111.449C71.7131 110.968 72.3484 110.775 72.9242 110.973C73.499 111.169 73.8852 111.709 73.8852 112.316V124.784H76.0553C76.8394 124.784 77.4746 125.419 77.4746 126.204C77.4746 126.987 76.8394 127.623 76.0553 127.623ZM73.3451 89.5049C75.6691 89.9581 77.3559 92.0877 77.3559 94.5678V101.129C77.3559 102.62 76.6879 104.026 75.5226 104.985C74.6124 105.735 73.4859 106.133 72.329 106.133C72.0052 106.133 71.679 106.101 71.3547 106.038C70.3895 105.85 69.5108 105.368 68.8134 104.646C67.8797 103.679 67.3443 102.341 67.3443 100.975V94.4135C67.3443 92.9119 68.0096 91.5026 69.1692 90.5478C70.3294 89.5932 71.8527 89.2129 73.3451 89.5049ZM70.183 100.975C70.183 101.612 70.4282 102.232 70.8557 102.674C71.1468 102.976 71.5076 103.176 71.899 103.252C72.5568 103.381 73.2022 103.218 73.7179 102.794C74.2258 102.376 74.5172 101.769 74.5172 101.129V94.5678C74.5172 93.4609 73.7794 92.4819 72.8012 92.2911C72.6488 92.2614 72.4968 92.2466 72.348 92.2466C71.8434 92.2466 71.3671 92.4154 70.974 92.7391C70.4713 93.1532 70.183 93.7633 70.183 94.4135V100.975ZM77.4746 78.809C77.4746 80.3 76.8065 81.7053 75.6414 82.665C74.7312 83.4145 73.6047 83.8126 72.4478 83.8126C72.124 83.8126 71.7978 83.7814 71.4735 83.7179C70.5091 83.5296 69.6303 83.0486 68.9326 82.3264C67.9985 81.3589 67.463 80.021 67.463 78.6552V72.0932C67.463 70.5917 68.1282 69.1832 69.288 68.2277C70.4476 67.273 71.9687 66.8914 73.4643 67.1848C75.7879 67.6381 77.4746 69.7677 77.4746 72.2478V78.809ZM74.636 72.2478C74.636 71.1407 73.8986 70.1616 72.9204 69.9708C72.7679 69.9412 72.616 69.9264 72.4667 69.9264C71.9622 69.9264 71.4859 70.0952 71.0926 70.4189C70.5901 70.833 70.3016 71.4432 70.3016 72.0932V78.6552C70.3016 79.2923 70.547 79.9113 70.9744 80.3539C71.266 80.6558 71.6267 80.8558 72.0177 80.932C72.6746 81.0594 73.3215 80.8977 73.8367 80.4737C74.3444 80.0555 74.636 79.4483 74.636 78.809V72.2478ZM70.0056 51.9305C69.5269 52.5508 68.6351 52.6655 68.0146 52.1858C67.3941 51.7068 67.2799 50.8153 67.7592 50.1952L71.3426 45.5552C71.7131 45.0748 72.3484 44.8822 72.9242 45.0798C73.499 45.2758 73.8852 45.8159 73.8852 46.4231V58.8908H76.0553C76.8394 58.8908 77.4746 59.5264 77.4746 60.3102C77.4746 61.0942 76.8394 61.7296 76.0553 61.7296H68.8824C68.0983 61.7296 67.463 61.0942 67.463 60.3102C67.463 59.5264 68.0983 58.8908 68.8824 58.8908H71.0464V50.5826L70.0056 51.9305ZM89.0529 177.222C89.0529 182.651 84.6355 187.068 79.2062 187.068C73.7769 187.068 69.3599 182.651 69.3599 177.222C69.3599 171.792 73.7769 167.375 79.2062 167.375C84.6355 167.375 89.0529 171.792 89.0529 177.222ZM79.2062 170.214C75.3422 170.214 72.1985 173.357 72.1985 177.222C72.1985 181.086 75.3422 184.229 79.2062 184.229C83.0705 184.229 86.2142 181.086 86.2142 177.222C86.2142 173.357 83.0705 170.214 79.2062 170.214ZM93.3527 122.561C93.3527 124.052 92.6847 125.458 91.5195 126.417C90.6092 127.167 89.4827 127.565 88.3258 127.565C88.002 127.565 87.6758 127.534 87.3515 127.47C86.3861 127.282 85.5075 126.8 84.8102 126.078C83.8765 125.111 83.341 123.773 83.341 122.407V115.846C83.341 114.344 84.0064 112.935 85.166 111.98C86.3257 111.025 87.8482 110.643 89.3423 110.937C91.6659 111.39 93.3527 113.52 93.3527 116V122.561ZM90.514 116C90.514 114.893 89.7766 113.914 88.7984 113.723C88.6461 113.694 88.494 113.679 88.3447 113.679C87.8403 113.679 87.3639 113.847 86.9708 114.171C86.4681 114.585 86.1798 115.196 86.1798 115.846V122.407C86.1798 123.045 86.425 123.664 86.8524 124.106C87.1436 124.408 87.5043 124.608 87.8957 124.684C88.5522 124.813 89.1995 124.65 89.7147 124.226C90.2224 123.808 90.514 123.201 90.514 122.561V116ZM87.7265 61.7287C87.4028 61.7287 87.0765 61.6973 86.7522 61.634C85.787 61.4455 84.9083 60.9639 84.211 60.2412C83.2768 59.2743 82.7414 57.9365 82.7414 56.5709V50.0095C82.7414 48.5081 83.4066 47.0995 84.5658 46.1444C85.7255 45.1891 87.247 44.8096 88.7426 45.1007C91.0666 45.5539 92.7534 47.6834 92.7534 50.1636V56.7252C92.7534 58.2158 92.0854 59.6214 90.9201 60.5809C90.01 61.3303 88.8835 61.7287 87.7265 61.7287ZM89.9147 50.1636C89.9147 49.0567 89.1769 48.0774 88.1988 47.8867C88.0463 47.8572 87.8948 47.8424 87.7459 47.8424C87.2409 47.8424 86.7641 48.011 86.371 48.3352C85.8683 48.7491 85.58 49.3593 85.58 50.0095V56.5709C85.58 57.2077 85.8254 57.8268 86.2532 58.2697C86.5443 58.5716 86.9051 58.7718 87.2965 58.8478C87.9549 58.9769 88.6007 58.8138 89.1154 58.3895C89.6233 57.9714 89.9147 57.3648 89.9147 56.7252V50.1636ZM93.3527 78.7603C93.3527 80.2512 92.6847 81.6565 91.5195 82.616C90.6097 83.3654 89.4827 83.7636 88.3258 83.7636C88.002 83.7636 87.6758 83.7324 87.3515 83.6691C86.3861 83.4806 85.5075 82.999 84.8102 82.2765C83.8765 81.31 83.341 79.9719 83.341 78.606V72.0446C83.341 70.5429 84.0064 69.1341 85.166 68.1787C86.3257 67.2234 87.8482 66.8415 89.3423 67.1358C91.6659 67.5892 93.3527 69.7185 93.3527 72.1989V78.7603ZM90.514 72.1989C90.514 71.0916 89.7766 70.1126 88.7984 69.922C88.6461 69.8922 88.494 69.8775 88.3447 69.8775C87.8403 69.8775 87.3639 70.0461 86.9708 70.37C86.4681 70.7839 86.1798 71.3944 86.1798 72.0446V78.606C86.1798 79.2433 86.425 79.8622 86.8524 80.3048C87.1436 80.6068 87.5043 80.8067 87.8957 80.8829C88.5546 81.01 89.2005 80.8478 89.7147 80.4248C90.2229 80.0065 90.514 79.3999 90.514 78.7603V72.1989ZM85.8744 96.3236C85.3956 96.9436 84.5035 97.0588 83.8834 96.5791C83.2629 96.0998 83.1487 95.2086 83.628 94.5881L87.2118 89.9484C87.5829 89.4681 88.2172 89.2753 88.7934 89.4729C89.3682 89.6689 89.7544 90.209 89.7544 90.8161V103.284H91.9245C92.7086 103.284 93.3439 103.919 93.3439 104.703C93.3439 105.487 92.7086 106.123 91.9245 106.123H84.7512C83.9671 106.123 83.3318 105.487 83.3318 104.703C83.3318 103.919 83.9671 103.284 84.7512 103.284H86.9156V94.9755L85.8744 96.3236ZM61.4183 144.733C61.4183 146.224 60.7503 147.629 59.5849 148.589C58.6748 149.338 57.5483 149.736 56.3914 149.736C56.0675 149.736 55.7414 149.705 55.4169 149.642C54.4518 149.453 53.573 148.972 52.8759 148.249C51.9416 147.282 51.4061 145.944 51.4061 144.579V138.017C51.4061 136.516 52.0714 135.107 53.2312 134.152C54.3909 133.197 55.9132 132.816 57.4074 133.108C59.7313 133.562 61.4183 135.692 61.4183 138.171V144.733ZM58.5796 138.171C58.5796 137.064 57.8417 136.086 56.8631 135.895C56.7106 135.865 56.5596 135.85 56.4108 135.85C55.9064 135.85 55.4295 136.019 55.0358 136.343C54.5332 136.757 54.2449 137.368 54.2449 138.017V144.579C54.2449 145.215 54.4901 145.835 54.918 146.278C55.2091 146.579 55.57 146.779 55.9612 146.856C56.6202 146.984 57.2652 146.821 57.7803 146.397C58.288 145.979 58.5796 145.372 58.5796 144.733V138.171ZM61.2708 101.129C61.2708 102.62 60.6028 104.026 59.4376 104.985C58.5273 105.735 57.401 106.133 56.2441 106.133C55.9202 106.133 55.5939 106.101 55.2696 106.038C54.3054 105.85 53.4266 105.369 52.7289 104.647C51.7948 103.679 51.2592 102.341 51.2592 100.975V94.4135C51.2592 92.9119 51.9245 91.5032 53.0843 90.5478C54.2439 89.5932 55.7667 89.2115 57.2606 89.5049C59.5841 89.9581 61.2708 92.0877 61.2708 94.5678V101.129ZM58.4323 94.5678C58.4323 93.4609 57.6949 92.4819 56.7167 92.2911C56.5642 92.2614 56.4123 92.2466 56.2629 92.2466C55.7584 92.2466 55.2821 92.4154 54.8889 92.7391C54.3863 93.1532 54.0979 93.7633 54.0979 94.4135V100.975C54.0979 101.612 54.3433 102.232 54.7705 102.674C55.0623 102.976 55.423 103.176 55.8138 103.252C56.4704 103.381 57.1173 103.218 57.6329 102.794C58.1407 102.376 58.4323 101.769 58.4323 101.129V94.5678ZM59.5018 83.8132H52.3288C51.5448 83.8132 50.9094 83.178 50.9094 82.394C50.9094 81.6098 51.5448 80.9745 52.3288 80.9745H54.4929V72.6664L53.452 74.0139C52.9732 74.6341 52.0816 74.7491 51.4611 74.2695C50.8406 73.7904 50.7264 72.8992 51.2056 72.2786L54.7891 67.6391C55.1602 67.1581 55.7945 66.9666 56.3706 67.1635C56.9455 67.3593 57.3317 67.8996 57.3317 68.5066V80.9745H59.5018C60.2859 80.9745 60.921 81.6098 60.921 82.394C60.921 83.178 60.2859 83.8132 59.5018 83.8132ZM53.445 117.688C52.966 118.309 52.0747 118.424 51.4542 117.944C50.8337 117.465 50.7196 116.573 51.1987 115.953L54.7822 111.313C55.1531 110.832 55.7876 110.639 56.3637 110.838C56.9384 111.034 57.3246 111.574 57.3246 112.181V124.649H59.4949C60.2789 124.649 60.9143 125.284 60.9143 126.068C60.9143 126.852 60.2789 127.488 59.4949 127.488H52.3219C51.5377 127.488 50.9025 126.852 50.9025 126.068C50.9025 125.284 51.5377 124.649 52.3219 124.649H54.4861V116.341L53.445 117.688ZM53.452 51.9305C52.9732 52.5508 52.0816 52.6655 51.4611 52.1858C50.8406 51.7068 50.7264 50.8153 51.2056 50.1952L54.7891 45.5552C55.1602 45.0748 55.7945 44.8822 56.3706 45.0798C56.9455 45.2758 57.3317 45.8159 57.3317 46.4231V58.8908H59.5018C60.2859 58.8908 60.921 59.5264 60.921 60.3102C60.921 61.0942 60.2859 61.7296 59.5018 61.7296H52.3288C51.5448 61.7296 50.9094 61.0942 50.9094 60.3102C50.9094 59.5264 51.5448 58.8908 52.3288 58.8908H54.4929V50.5826L53.452 51.9305ZM50.7613 163.832C51.5285 163.763 52.2337 164.331 52.3071 165.112C52.4808 166.966 52.7044 168.839 52.9707 170.68C53.0828 171.456 52.545 172.176 51.7693 172.288C51.7004 172.298 51.632 172.303 51.5642 172.303C50.8703 172.303 50.2635 171.794 50.1615 171.087C49.8885 169.199 49.6592 167.278 49.4804 165.378C49.4075 164.597 49.9804 163.905 50.7613 163.832Z" fill="#FF352B"/>
</g>
<defs>
<clipPath id="clip0_0_191">
<rect width="315" height="271" fill="white"/>
</clipPath>
</defs>
</svg>
