<svg width="192" height="33" viewBox="0 0 192 33" fill="none" xmlns="http://www.w3.org/2000/svg">
<g clip-path="url(#clip0_0_81)">
<path fill-rule="evenodd" clip-rule="evenodd" d="M191.36 19.2171C191.077 19.7283 190.682 20.1245 190.173 20.4066C189.664 20.6886 189.131 20.8299 188.575 20.8299C188.02 20.8299 187.487 20.6886 186.978 20.4066C186.468 20.1245 186.072 19.7283 185.789 19.2171C185.505 18.707 185.363 18.1748 185.363 17.622C185.363 17.0631 185.507 16.5268 185.795 16.0114C186.083 15.4969 186.483 15.1014 186.997 14.8246C187.51 14.5481 188.036 14.4094 188.575 14.4094C189.114 14.4094 189.64 14.5481 190.154 14.8246C190.667 15.1014 191.067 15.4969 191.354 16.0114C191.64 16.5268 191.783 17.0631 191.783 17.622C191.783 18.1748 191.642 18.707 191.36 19.2171ZM190.892 16.2797C190.652 15.8501 190.318 15.5198 189.89 15.2885C189.462 15.0576 189.023 14.9418 188.575 14.9418C188.124 14.9418 187.686 15.0576 187.259 15.2885C186.832 15.5198 186.498 15.8501 186.257 16.2797C186.016 16.7092 185.895 17.1569 185.895 17.6218C185.895 18.0841 186.014 18.5273 186.25 18.9511C186.487 19.3751 186.819 19.7056 187.244 19.9427C187.669 20.179 188.113 20.2974 188.575 20.2974C189.038 20.2974 189.482 20.179 189.907 19.9427C190.332 19.7056 190.663 19.3751 190.898 18.9511C191.133 18.5273 191.251 18.0841 191.251 17.6218C191.251 17.1569 191.131 16.7092 190.892 16.2797ZM189.616 18.4516C189.734 18.9527 189.819 19.299 189.889 19.4373H189.409C189.35 19.3358 189.271 19.0272 189.175 18.58C189.068 18.0841 188.871 17.8977 188.45 17.8822H188.014V19.4373H187.55V15.9002C187.784 15.852 188.125 15.8204 188.44 15.8204C188.935 15.8204 189.26 15.9162 189.483 16.1186C189.66 16.2729 189.766 16.5182 189.766 16.8004C189.766 17.2688 189.463 17.5835 189.089 17.7113V17.7273C189.361 17.8232 189.526 18.0789 189.616 18.4516ZM189.297 16.8483C189.297 16.3852 188.962 16.1822 188.471 16.1822C188.248 16.1822 188.093 16.2035 188.014 16.2256V17.5306H188.488C188.983 17.5306 189.297 17.2585 189.297 16.8483Z" fill="black"/>
<path fill-rule="evenodd" clip-rule="evenodd" d="M11.142 11.5015C13.3933 11.5015 15.4796 12.1964 17.1917 13.3804C17.5622 13.6475 17.7961 14.0664 17.7961 14.5387C17.7961 15.324 17.1495 15.9608 16.3519 15.9608C16.0366 15.9608 15.7451 15.8615 15.5076 15.6928C14.2598 14.8446 12.7596 14.3502 11.142 14.3502C6.91909 14.3502 3.49577 17.7209 3.49577 21.8788C3.49577 26.0369 6.91909 29.4077 11.142 29.4077C12.7766 29.4077 14.2912 28.9028 15.534 28.0425C15.7753 27.8851 16.053 27.7958 16.3519 27.7958C17.1495 27.7958 17.7961 28.4326 17.7961 29.2179C17.7961 29.6942 17.5581 30.1161 17.193 30.3741C15.4695 31.5649 13.3878 32.2563 11.142 32.2563C5.32126 32.2563 0.602783 27.6103 0.602783 21.8788C0.602783 16.1475 5.32126 11.5015 11.142 11.5015ZM67.1224 11.9279C67.2178 11.9279 67.3109 11.9371 67.4011 11.9543H78.8594C79.5209 11.9543 80.0571 12.5881 80.0571 13.3697C80.0571 14.1511 79.5209 14.7847 78.8594 14.7847H68.5596V20.4165H75.7455C76.5392 20.4165 77.1828 21.05 77.1828 21.8315C77.1828 22.6129 76.5392 23.2469 75.7455 23.2469H68.5596V28.9072H78.8594C79.5209 28.9072 80.0571 29.5407 80.0571 30.3222C80.0571 31.1038 79.5209 31.7373 78.8594 31.7373H67.1999L67.1224 31.7396V31.7396L67.0451 31.7373V31.7373H66.8831C66.2338 31.7373 65.7054 31.1272 65.6859 30.3658L65.6855 13.343C65.6855 13.246 65.6953 13.1512 65.7141 13.0599C65.8306 12.4435 66.2872 11.9789 66.839 11.9555C66.9306 11.9372 67.0254 11.9279 67.1224 11.9279ZM112.492 11.877C113.035 11.8752 113.556 12.178 113.801 12.6942L121.866 29.726C122.202 30.4344 121.891 31.276 121.171 31.6064C120.452 31.9369 119.597 31.6303 119.261 30.922L117.862 27.9677H107.122L105.723 30.922C105.388 31.6303 104.533 31.9369 103.813 31.6064C103.094 31.276 102.783 30.4344 103.118 29.726L111.184 12.6942C111.428 12.178 111.949 11.8752 112.492 11.877ZM95.1142 11.9256C98.5537 11.9256 101.342 14.6715 101.342 18.0583C101.342 20.9769 99.2707 23.4197 96.4965 24.0385L100.791 29.4512C101.28 30.0669 101.169 30.9562 100.543 31.4375C99.9179 31.9186 99.0147 31.8095 98.526 31.1936L92.9689 24.1902H86.0119V30.3222C86.0119 31.1038 85.3685 31.7374 84.5748 31.7374C83.7812 31.7374 83.1375 31.1038 83.1375 30.3222V13.341C83.1375 12.5614 83.7775 11.9291 84.5683 11.9256H95.1142V11.9256ZM30.03 11.877C30.5731 11.8752 31.0938 12.178 31.3384 12.6942L39.4042 29.726C39.7395 30.4344 39.4284 31.276 38.7091 31.6064C37.9896 31.9369 37.1345 31.6303 36.7991 30.922L35.4001 27.9677H24.66L23.261 30.922C22.9254 31.6303 22.0703 31.9369 21.351 31.6064C20.6316 31.276 20.3204 30.4344 20.6559 29.726L28.7215 12.6942C28.9661 12.178 29.487 11.8752 30.03 11.877ZM43.1432 11.926C43.5095 11.9227 43.8768 12.0599 44.1543 12.337L52.2257 20.3898L60.2969 12.337C60.5747 12.0599 60.9418 11.9227 61.3083 11.926H61.3212C62.1149 11.926 62.7582 12.5594 62.7582 13.3412V30.3187C62.7582 31.1003 62.1149 31.7338 61.3212 31.7338C60.5275 31.7338 59.8838 31.1003 59.8838 30.3187V16.7771L53.2285 23.4174C52.9529 23.6924 52.5893 23.8296 52.2257 23.8285C51.8622 23.8296 51.4984 23.6924 51.2229 23.4174L44.5674 16.7771V30.3187C44.5674 31.1003 43.924 31.7338 43.1303 31.7338C42.3367 31.7338 41.693 31.1003 41.693 30.3187V13.3412C41.693 12.5594 42.3367 11.926 43.1303 11.926H43.1432ZM30.03 16.6286L26.0003 25.1374H34.0596L30.03 16.6286ZM112.492 16.6286L108.462 25.1374H116.522L112.492 16.6286ZM95.1142 14.7562H86.0121V21.3601H95.1142C96.9663 21.3601 98.4676 19.8816 98.4676 18.0583C98.4676 16.2345 96.9663 14.7562 95.1142 14.7562Z" fill="white"/>
<path fill-rule="evenodd" clip-rule="evenodd" d="M171.859 16.6461V29.3749C171.859 30.6799 172.933 31.7379 174.258 31.7379C175.584 31.7379 176.658 30.6799 176.658 29.3749V16.6461L179.976 16.6442C181.3 16.6433 182.373 15.5862 182.373 14.2824C182.373 12.9791 181.3 11.9224 179.976 11.9224H168.482C167.158 11.9224 166.085 12.9791 166.085 14.2824C166.085 15.5862 167.158 16.6433 168.482 16.6442L171.859 16.6461ZM146.852 16.1242C146.844 16.1343 146.842 16.1436 146.845 16.1525C145.744 17.7868 145.102 19.7473 145.102 21.8553C145.102 27.5606 149.8 32.1856 155.594 32.1856C161.388 32.1856 166.085 27.5606 166.085 21.8553C166.085 19.4273 165.235 17.1947 163.811 15.4314C163.626 15.155 163.684 14.8377 163.723 14.6732C164.969 9.40434 162.673 7.58866 160.623 5.96767C159.737 5.26681 158.897 4.60234 158.408 3.71088C157.737 2.48311 157.692 1.70071 157.661 1.16522C157.643 0.838298 157.629 0.603402 157.481 0.415372C157.098 -0.0729616 155.35 1.14652 155.173 3.10187C155.033 4.6532 155.369 5.46371 155.754 6.38974C155.8 6.49999 155.846 6.61188 155.893 6.72685C156.056 7.13239 156.695 8.84931 156.004 9.88004C155.662 10.3907 155.031 10.8618 154.387 11.0619C153.516 11.3327 152.497 11.0863 151.98 10.7206C150.645 9.77708 150.578 8.11902 151.06 7.18493C151.898 5.56238 150.424 5.76216 149.642 6.23047C146.608 8.04857 145.864 11.8851 146.724 14.2754C146.729 14.2877 146.736 14.3064 146.746 14.3307C146.851 14.5908 147.214 15.4954 146.852 16.1242ZM160.863 21.5364C160.863 22.3361 160.724 23.0697 160.443 23.7393C160.163 24.408 159.784 24.9878 159.306 25.4768C158.828 25.9672 158.27 26.3506 157.635 26.6276C157 26.9047 156.32 27.044 155.594 27.044C154.869 27.044 154.187 26.9052 153.553 26.6276C152.918 26.3499 152.362 25.9665 151.883 25.4768C151.405 24.9878 151.025 24.4086 150.746 23.7393C150.464 23.0704 150.324 22.3361 150.324 21.5364C150.324 20.9015 150.464 20.2885 150.746 19.7014C151.025 19.1137 151.405 18.5955 151.883 18.1465C152.361 17.6978 152.917 17.3398 153.553 17.0699C154.188 16.8009 154.869 16.6665 155.594 16.6665C156.32 16.6665 157 16.8009 157.635 17.0699C158.27 17.3398 158.827 17.6978 159.306 18.1465C159.784 18.5955 160.163 19.1137 160.443 19.7014C160.724 20.2885 160.863 20.9015 160.863 21.5364ZM143.318 14.2878C143.318 12.9842 142.245 11.9278 140.921 11.9278C139.597 11.9278 138.524 12.9842 138.524 14.2878V19.5043H130.658V14.2878C130.658 12.9842 129.585 11.9278 128.261 11.9278C126.938 11.9278 125.865 12.9842 125.865 14.2878V29.3792C125.865 30.6825 126.938 31.7395 128.261 31.7395C129.585 31.7395 130.658 30.6825 130.658 29.3792V24.2032H138.524V29.3792C138.524 30.6825 139.597 31.7395 140.921 31.7395C142.245 31.7395 143.318 30.6825 143.318 29.3792V14.2878Z" fill="#FC3665"/>
</g>
<defs>
<clipPath id="clip0_0_81">
<rect width="192" height="33" fill="white"/>
</clipPath>
</defs>
</svg>
