<svg width="220" height="40" viewBox="0 0 220 40" fill="none" xmlns="http://www.w3.org/2000/svg">
<g clip-path="url(#clip0_0_57)">
<path fill-rule="evenodd" clip-rule="evenodd" d="M210.539 20.9261C207.592 24.3171 203.437 27.6994 200.198 27.6994C197.492 27.6994 195.947 25.5738 195.947 23.3519C195.947 21.8727 196.32 20.4649 196.94 19.1683C195.822 20.1484 194.406 21.0201 192.864 21.082C191.166 24.1115 186.49 28.8407 181.862 27.6994C178.06 26.8414 178.973 22.9493 180.287 19.9219C180.287 19.9219 180.432 19.6109 180.655 19.134C177.454 23.2953 174.383 27.8459 170.758 27.6994C169.068 27.6994 167.509 26.685 167.509 24.801C167.509 24.2292 167.588 23.6333 167.719 23.0247C163.651 27.9687 161.561 27.6994 159.571 27.6994C156.741 27.6994 156.23 25.6112 156.495 23.9444C156.693 22.7015 157.437 21.4903 158.571 19.6373C159.593 17.9689 160.621 16.3965 160.621 15.7195C160.621 15.4296 160.621 15.3815 160.428 15.3815C159.479 15.3815 159.164 16.6912 157.704 16.8606C156.105 19.1373 151.635 25.2308 148.33 27.1057C146.734 28.242 144.804 27.3483 145.838 26.6969C150.227 25.0269 155.315 18.6731 156.816 16.7037C156.403 16.4187 156.177 15.8067 156.177 15.0432C156.177 13.4491 157.552 11.4947 158.856 11.4947C159.436 11.4947 160.016 11.9294 160.016 12.6057C160.016 13.4753 159.414 14.7051 158.448 15.816C160.911 13.7872 162.355 11.9997 163.56 12.0759C167.472 12.3239 164.578 16.3317 164.341 16.7339C164.341 16.7339 161.611 21.5597 160.993 22.6516C160.915 22.7908 160.87 22.8693 160.87 22.8693C160.648 23.2389 159.457 25.6643 161.68 25.7549C164.657 25.8763 167.973 21.2287 169.259 18.8597C170.025 17.2772 170.916 15.7336 171.659 14.3749C172.919 12.482 177.461 11.0914 177.014 12.3864L171.861 22.8219C171.475 23.5464 171.378 24.3192 171.378 24.6574C171.378 25.3336 171.764 25.7286 172.537 25.7286C174.342 25.7286 177.945 21.3893 183.166 14.0409C184.058 12.1425 188.797 11.1943 188.142 12.5556C187.986 12.8415 183.609 22.1853 183.609 22.1853C183.029 23.2961 182.948 23.8923 182.948 24.2306C182.948 25.3898 183.625 25.7474 184.494 25.7474C186.523 25.7474 188.935 22.092 189.851 20.3988C188.509 19.5747 187.996 17.5067 187.996 16.6373C187.996 14.0288 190.509 11.9151 191.958 11.9151C193.359 11.9151 194.748 13.9805 194.748 15.816C194.748 17.5552 193.842 19.4874 193.359 20.1635C194.699 20.1635 196.773 18.1961 199.051 16.0507C201.601 13.1963 205.127 11.3836 207.254 11.3836C208.751 11.3836 210.06 12.6155 210.06 14.1131C210.06 18.8471 202.259 20.9966 200.617 20.9966C199.525 22.9879 199.374 25.7723 201.12 25.7723C203.876 25.7723 207.283 23.3466 209.871 20.5499C210.459 19.9138 211.601 19.7033 210.539 20.9261ZM159.291 12.654C159.291 12.4609 159.194 12.2193 158.856 12.2193C157.89 12.2193 156.999 14.1736 156.999 15.0432C156.999 15.6712 157.24 15.8645 157.53 15.8645C158.448 14.7051 159.291 13.3301 159.291 12.654ZM191.233 13.3671C190.026 13.3671 189.011 15.1399 189.011 16.6856C189.011 17.8931 189.546 18.9961 190.364 19.584C190.364 19.584 192.34 16.1543 192.34 15.3815C192.512 14.6735 192.199 13.3671 191.233 13.3671ZM207.645 13.1225C207.645 12.398 207.254 12.0116 206.577 12.0116C205.176 12.0116 203.564 14.5331 201.1 19.4122C203.805 19.4122 207.645 14.91 207.645 13.1225ZM176.308 10.5937C175.51 10.5937 174.865 9.91007 174.865 9.11251C174.865 8.04871 175.776 7.13695 176.802 7.13695C177.6 7.13695 178.169 7.74491 178.169 8.42863C178.169 9.53015 177.258 10.5937 176.308 10.5937ZM162.321 2.75655C159.415 1.96319 157.028 1.77027 155.064 1.85407C151.566 2.00363 148.579 3.60683 148.579 3.60683C148.583 3.70523 153.91 6.09707 154.041 11.5149C154.269 16.8362 149.73 21.778 143.029 22.0639C142.142 22.1018 140.959 22.1523 139.524 22.0655C136.688 33.0954 128.3 39.2881 119.812 39.2881C115.027 39.2321 111.532 37.5143 108.993 35.2272C117.748 39.9217 127.033 36.0659 131.048 29.2638C131.048 29.2618 131.047 29.2603 131.048 29.2583C128.217 32.661 123.952 34.8281 119.18 34.8281C110.658 34.8281 103.75 27.9199 103.75 19.3979C103.75 10.8759 110.658 3.96775 119.18 3.96775C126.991 3.96775 133.441 9.77195 134.465 17.3015C135.087 16.0488 135.536 15.1463 135.688 14.8835C136.746 13.0613 139.692 7.70591 145.948 3.93403C145.948 3.93403 142.654 1.51971 136.247 1.79327C131.605 1.99147 128.665 3.54391 127.031 4.78727C126.744 4.54515 126.475 4.35539 126.222 4.20551C128.121 2.78291 131.383 1.06511 136.23 0.858107C143.178 0.561507 147.409 2.94139 147.409 2.94139C147.409 2.94139 151.302 1.18691 155.047 1.02715C157.563 0.919787 159.475 1.30867 162.436 2.31323C162.504 2.33607 162.97 2.46943 162.885 2.67099C162.746 3.00643 162.481 2.80047 162.321 2.75655ZM119.114 8.92799C113.383 8.92799 108.737 13.5739 108.737 19.305C108.737 25.0359 113.383 29.682 119.114 29.682C124.845 29.682 129.491 25.0359 129.491 19.305C129.491 13.5739 124.845 8.92799 119.114 8.92799ZM147.16 5.22359C142.145 8.45671 141.154 16.444 139.945 19.8342C154.217 18.9159 149.339 5.74475 147.16 5.22359ZM102.037 26.3745C100.154 26.3745 97.7179 26.3745 97.1807 26.3745C96.7705 26.3745 96.8148 26.5347 96.7104 26.7511C96.6355 27.0793 96.5247 27.6959 96.4325 28.0995C96.323 28.6739 96.0531 28.87 95.4342 28.8291C94.3484 28.8291 92.4167 28.8291 90.9551 28.8291C90.8802 28.8598 90.7817 28.8791 90.6462 28.8791C89.1846 28.8791 86.0378 28.8791 84.4785 28.8791C83.1395 28.8791 83.3077 28.4667 82.9333 27.6535C82.1929 25.9756 80.9544 23.1682 80.9544 23.1682C80.9544 23.1682 80.9544 25.8751 80.9544 27.5616C80.9179 28.3332 81.2791 28.8791 79.9798 28.8791C78.7015 28.8791 76.636 28.8791 75.3034 28.8791C73.942 28.8791 74.2686 28.4184 74.214 27.2515C74.214 23.6084 74.214 11.9048 74.214 11.6224C74.214 11.3399 74.2081 10.3495 75.3808 10.3861C77.7525 10.3861 82.9129 10.3861 82.9129 10.3861H83.797C85.6822 10.3861 87.0459 10.7231 87.888 11.3963C88.7297 12.0697 89.2853 13.3783 89.5547 15.0112C89.6218 15.3989 89.5917 15.8111 89.5917 16.2486C89.5917 17.4609 89.3566 18.509 88.7593 19.3927C88.1615 20.2767 87.3576 20.8789 86.3475 21.1983C86.3475 21.1983 88.3544 24.1904 89.8628 26.4395C91.3406 22.2297 94.3229 13.6468 95.2213 11.1202C95.4824 10.559 96.0835 10.3347 96.8066 10.3836C98.1294 10.3836 99.7201 10.3836 101.089 10.3836C101.969 10.3249 102.498 10.7141 102.742 11.1244C102.802 11.2935 102.868 11.4663 102.938 11.6414C101.509 14.1435 99.4582 19.4222 102.037 26.3745ZM81.5199 15.2447H80.8687V18.6035H81.646C82.0668 18.6035 82.4164 18.5032 82.6943 18.3029C82.972 18.1024 83.1443 17.8559 83.2119 17.5633C83.279 17.2709 83.3129 17.0244 83.3129 16.8239C83.3129 15.771 82.7152 15.2447 81.5199 15.2447ZM99.0187 16.5675L97.6044 21.331H100.441L99.0187 16.5675ZM71.9278 23.8282C72.6216 23.7973 72.9104 24.1227 72.6395 24.801C72.411 25.617 72.0818 26.5853 71.8274 27.4929C71.5995 28.3093 71.6691 28.9715 70.3189 28.8479C67.9734 28.8479 58.0256 28.8479 58.0256 28.8479V28.8324C57.2819 28.8324 53.9974 28.8324 52.8308 28.8324C51.8684 28.8828 51.717 27.7985 51.717 27.7985L50.5875 21.0995L48.8256 27.7542C48.8256 27.7542 48.553 28.8659 47.5961 28.8324C46.7011 28.8324 45.6262 28.8324 44.7641 28.8324C43.8422 28.8491 43.6266 27.7978 43.6266 27.7978L41.5849 21.0995L40.7129 27.8324C40.7129 27.8324 40.5884 28.8324 39.6304 28.8324C38.3626 28.8324 36.2563 28.8324 35.0017 28.8324C34.8277 28.8324 34.6827 28.8336 34.5658 28.8157C34.5093 28.8266 34.447 28.831 34.3795 28.8291C33.0392 28.8291 29.9447 28.8291 28.5067 28.8291C27.9529 28.8291 27.6976 28.8277 27.5876 28.0977C27.4992 27.6909 27.3931 27.0709 27.3218 26.7431C27.2557 26.4864 27.2625 26.3745 26.8725 26.3745C26.0534 26.3745 24.0903 26.3745 23.2571 26.3745C22.8467 26.3745 22.8912 26.5347 22.7867 26.7511C22.7118 27.0793 22.6011 27.6959 22.5089 28.0995C22.3991 28.6739 22.1293 28.87 21.5106 28.8291C20.0155 28.8291 16.9121 28.8291 15.6482 28.8291C14.9711 28.8393 15.2418 28.3811 15.3574 28.0897C15.3958 27.9816 15.4385 27.8612 15.4842 27.7319C15.3935 27.7983 15.2857 27.8612 15.1544 27.9199C13.657 28.7087 12.0852 29.1028 10.4392 29.1028C9.86679 29.1028 9.27768 29.0522 8.67147 28.9513C6.24708 28.5305 4.29006 27.453 2.79998 25.7189C1.3101 23.9851 0.565063 21.9477 0.565063 19.6074C0.565063 18.9172 0.640812 18.2183 0.79231 17.5115C1.1795 15.6259 2.10114 14.0137 3.55768 12.6753C5.01358 11.3369 6.77754 10.5078 8.84829 10.1877C9.33633 10.1207 9.68174 10.0828 9.88367 10.074C10.0858 10.0657 10.2455 10.0613 10.3635 10.0613C11.8795 10.0613 13.4683 10.4968 15.13 11.3676C16.3036 11.8536 16.0267 12.4469 15.6222 13.2263C15.3095 14.098 14.9002 15.2388 14.5812 16.1281C14.359 16.6573 14.1018 17.4192 12.9961 16.8448C12.6224 16.6463 12.2583 16.4897 11.904 16.3749C11.685 16.308 11.4786 16.2574 11.2853 16.2235C11.0914 16.1897 10.8853 16.1729 10.6665 16.1729C9.68997 16.1729 8.86496 16.5011 8.19166 17.1577C7.51815 17.8144 7.1816 18.6225 7.1816 19.5823C7.1816 20.2556 7.38374 20.8871 7.78759 21.4761C8.49465 22.4193 9.40385 22.8904 10.515 22.8904C11.2457 22.8904 12.0686 22.6731 12.9839 22.238C14.2315 21.6416 14.2619 22.4257 14.5833 23.1109C14.9031 24.0303 15.3127 25.2069 15.621 26.0928C15.709 26.3158 15.7906 26.5328 15.8341 26.7393C17.2701 22.6518 20.3773 13.7085 21.2975 11.1202C21.5587 10.559 22.1599 10.3347 22.8827 10.3836C24.2057 10.3836 25.7964 10.3836 27.165 10.3836C28.0451 10.3249 28.5747 10.7141 28.8182 11.1244C29.7656 13.7888 33.0164 23.147 34.3943 27.0635C34.9884 23.2986 36.414 14.2534 36.8657 11.3938C36.9938 10.8006 37.1098 10.3101 37.91 10.3607C39.1684 10.3607 41.3777 10.3607 42.6954 10.3607C43.5968 10.2933 43.7272 10.6983 43.9492 11.3894C45.3374 16.4167 46.2303 18.8056 46.2303 18.8056C46.2303 18.8056 47.5134 14.9411 48.5332 11.3616C48.722 10.7749 48.7302 10.3607 49.6479 10.3607C50.877 10.3607 53.0777 10.3607 54.4167 10.3607C55.1166 10.3943 55.4253 10.5749 55.5903 11.4138C55.9998 14.0244 57.5332 23.8293 58.0189 26.9352C58.0189 24.7096 58.0189 14.5914 58.0189 11.6539C58.1117 10.8305 57.895 10.3866 59.3191 10.3866C61.9726 10.3866 69.1078 10.3866 71.6803 10.3866C73.0896 10.3367 72.6458 11.2987 72.6458 11.2987C72.6458 11.2987 72.0432 13.3541 71.7887 14.3159C71.6176 15.0719 71.7113 15.4215 70.6903 15.4164C69.1327 15.4164 64.9348 15.4164 64.9348 15.4164V17.0808C64.9348 17.0808 68.697 17.0808 70.1944 17.0808C71.1699 17.0711 71.1068 17.496 71.1068 18.0061C71.1068 18.8546 71.1068 20.1491 71.1068 21.008C71.1068 21.626 71.1722 22.0426 70.1999 22.0052C68.7124 22.0052 64.9348 22.0052 64.9348 22.0052V23.8282C64.9348 23.8282 69.9898 23.8282 71.9278 23.8282ZM25.0951 16.5675L23.6807 21.331H26.4586L25.0951 16.5675Z" fill="white"/>
<path fill-rule="evenodd" clip-rule="evenodd" d="M126.141 19.3215C126.141 15.5141 123.054 12.4275 119.247 12.4275C115.439 12.4275 112.353 15.5141 112.353 19.3215C112.353 23.1292 115.439 26.2158 119.247 26.2158C123.054 26.2158 126.141 23.1292 126.141 19.3215ZM120.432 19.3076C120.432 18.6348 119.886 18.089 119.213 18.089C118.54 18.089 117.995 18.6348 117.995 19.3076C117.995 19.9806 118.54 20.5262 119.213 20.5262C119.886 20.5262 120.432 19.9806 120.432 19.3076Z" fill="#FC178A"/>
<path fill-rule="evenodd" clip-rule="evenodd" d="M119.249 16.7551C117.843 16.7551 116.704 17.8944 116.704 19.2998C116.704 20.0251 117.009 20.6781 117.496 21.1414C117.348 21.1604 117.197 21.1743 117.044 21.1743C114.909 21.1743 113.178 19.4435 113.178 17.3084C113.178 15.1733 114.909 13.4425 117.044 13.4425C119.179 13.4425 120.91 15.1733 120.91 17.3084C120.91 17.3298 120.907 17.3508 120.906 17.3718C120.461 16.9883 119.882 16.7551 119.249 16.7551Z" fill="black"/>
<path fill-rule="evenodd" clip-rule="evenodd" d="M219.055 16.2171C218.773 16.7283 218.377 17.1245 217.869 17.4066C217.359 17.6886 216.827 17.8299 216.271 17.8299C215.715 17.8299 215.182 17.6886 214.673 17.4066C214.164 17.1245 213.768 16.7283 213.484 16.2171C213.201 15.707 213.059 15.1748 213.059 14.622C213.059 14.0631 213.203 13.5268 213.491 13.0114C213.778 12.4969 214.179 12.1014 214.693 11.8246C215.206 11.5481 215.732 11.4094 216.271 11.4094C216.81 11.4094 217.336 11.5481 217.849 11.8246C218.363 12.1014 218.762 12.4969 219.049 13.0114C219.336 13.5268 219.479 14.0631 219.479 14.622C219.479 15.1748 219.338 15.707 219.055 16.2171ZM218.587 13.2797C218.348 12.8501 218.014 12.5198 217.586 12.2885C217.157 12.0576 216.719 11.9418 216.271 11.9418C215.82 11.9418 215.381 12.0576 214.954 12.2885C214.528 12.5198 214.194 12.8501 213.953 13.2797C213.712 13.7092 213.591 14.1569 213.591 14.6218C213.591 15.0841 213.709 15.5273 213.946 15.9511C214.183 16.3751 214.514 16.7056 214.939 16.9427C215.365 17.179 215.808 17.2974 216.271 17.2974C216.733 17.2974 217.177 17.179 217.603 16.9427C218.028 16.7056 218.358 16.3751 218.594 15.9511C218.829 15.5273 218.947 15.0841 218.947 14.6218C218.947 14.1569 218.827 13.7092 218.587 13.2797ZM217.312 15.4516C217.429 15.9527 217.515 16.299 217.584 16.4373H217.105C217.046 16.3358 216.966 16.0272 216.87 15.58C216.764 15.0841 216.567 14.8977 216.146 14.8822H215.709V16.4373H215.246V12.9002C215.48 12.852 215.821 12.8204 216.135 12.8204C216.631 12.8204 216.955 12.9162 217.179 13.1186C217.355 13.2729 217.461 13.5182 217.461 13.8004C217.461 14.2688 217.158 14.5835 216.785 14.7113V14.7273C217.057 14.8232 217.222 15.0789 217.312 15.4516ZM216.993 13.8483C216.993 13.3852 216.657 13.1822 216.167 13.1822C215.943 13.1822 215.789 13.2035 215.709 13.2256V14.5306H216.183C216.679 14.5306 216.993 14.2585 216.993 13.8483Z" fill="black"/>
</g>
<defs>
<clipPath id="clip0_0_57">
<rect width="220" height="40" fill="white"/>
</clipPath>
</defs>
</svg>
