<svg width="163" height="44" viewBox="0 0 163 44" fill="none" xmlns="http://www.w3.org/2000/svg">
<g clip-path="url(#clip0_0_103)">
<path fill-rule="evenodd" clip-rule="evenodd" d="M153.053 23.467C153.026 23.5406 153 23.61 152.972 23.6754C152.875 23.91 152.627 24.0386 152.375 24.0036C152.003 23.9518 151.327 23.9254 150.84 23.9254C150.15 23.9254 149.5 24.0047 148.889 24.1619C148.278 24.3197 147.756 24.5167 147.323 24.7532V34.8833C147.323 35.1487 147.138 35.3767 146.878 35.43C146.796 35.4469 146.707 35.4649 146.613 35.4841C146.317 35.543 145.982 35.5725 145.608 35.5725C144.918 35.5725 144.406 35.4442 144.071 35.188C143.735 34.9322 143.568 34.4788 143.568 33.8283V24.4577C143.568 23.9454 143.686 23.5116 143.923 23.1569C144.159 22.8021 144.504 22.4872 144.958 22.2108C145.568 21.8367 146.322 21.5308 147.219 21.2945C148.115 21.0581 149.086 20.9399 150.131 20.9399C152.003 20.9399 153.186 21.5215 153.186 22.684C153.186 22.9601 153.141 23.2208 153.053 23.467ZM140.032 28.8623L131.814 30.0445C132.09 31.0494 132.602 31.779 133.351 32.2318C134.1 32.6855 135.026 32.9122 136.13 32.9122C136.958 32.9122 137.721 32.7892 138.421 32.5426C138.97 32.3494 139.437 32.1469 139.822 31.9355C140.035 31.8183 140.297 31.854 140.476 32.0197C140.598 32.133 140.706 32.2627 140.8 32.4096C140.978 32.6855 141.067 32.9811 141.067 33.2965C141.067 33.6908 140.934 34.0402 140.667 34.3458C140.401 34.6514 140.036 34.9123 139.574 35.129C139.11 35.346 138.563 35.5133 137.933 35.6315C137.302 35.75 136.622 35.809 135.894 35.809C134.73 35.809 133.671 35.6512 132.716 35.336C131.759 35.0207 130.942 34.543 130.262 33.9023C129.582 33.262 129.05 32.4687 128.666 31.5224C128.281 30.5766 128.089 29.4731 128.089 28.2116C128.089 26.9901 128.276 25.9258 128.651 25.0193C129.025 24.1127 129.533 23.354 130.173 22.743C130.814 22.1323 131.558 21.6787 132.405 21.3832C133.252 21.0874 134.149 20.9399 135.095 20.9399C136.061 20.9399 136.947 21.0924 137.756 21.3979C138.563 21.7039 139.253 22.1273 139.825 22.6691C140.396 23.2113 140.845 23.8618 141.17 24.62C141.495 25.3788 141.658 26.2015 141.658 27.0886C141.658 27.6404 141.515 28.0544 141.229 28.3299C140.943 28.6063 140.544 28.7832 140.032 28.8623ZM137.283 24.5608C136.79 24.0191 136.061 23.7483 135.095 23.7483C134.129 23.7483 133.322 24.0683 132.671 24.7089C132.021 25.3494 131.656 26.2607 131.577 27.4432L138.14 26.4677C138.061 25.739 137.775 25.1032 137.283 24.5608ZM126.507 25.8173C126.26 26.5668 125.979 27.3743 125.664 28.2415C125.349 29.1088 125.024 29.9609 124.689 30.7985C124.354 31.6363 124.019 32.4293 123.684 33.178C123.348 33.9273 123.043 34.5577 122.767 35.0698C122.57 35.2281 122.274 35.356 121.881 35.4542C121.486 35.5523 121.053 35.6022 120.58 35.6022C120.008 35.6022 119.52 35.5282 119.117 35.3801C118.713 35.2326 118.422 34.9912 118.244 34.6563C118.067 34.321 117.85 33.8579 117.594 33.2668C117.338 32.6755 117.062 32.0056 116.766 31.2566C116.471 30.5077 116.165 29.7149 115.85 28.8769C115.535 28.0394 115.234 27.2067 114.949 26.3789C114.663 25.5515 114.397 24.7532 114.15 23.9845C113.946 23.3473 113.772 22.7648 113.629 22.2363C113.57 22.0179 113.645 21.7866 113.823 21.6466C113.981 21.5218 114.169 21.4095 114.387 21.3094C114.751 21.1423 115.13 21.0581 115.525 21.0581C116.037 21.0581 116.456 21.1764 116.781 21.4127C117.106 21.6492 117.358 22.0732 117.535 22.684L119.013 27.5611C119.131 27.956 119.264 28.3743 119.412 28.8177C119.56 29.2613 119.703 29.6948 119.841 30.1185C119.979 30.5425 120.111 30.9461 120.24 31.3304C120.368 31.7147 120.471 32.0353 120.55 32.2912H120.669C121.24 30.5571 121.802 28.7688 122.353 26.9258C122.879 25.1698 123.343 23.4361 123.743 21.7246C123.784 21.5524 123.902 21.4102 124.064 21.3396C124.233 21.2658 124.417 21.2062 124.615 21.1614C124.92 21.0924 125.221 21.0581 125.516 21.0581C126.029 21.0581 126.458 21.1764 126.802 21.4127C127.147 21.6492 127.32 22.0437 127.32 22.5951C127.32 22.8513 127.246 23.2653 127.098 23.8369C126.95 24.4086 126.753 25.0684 126.507 25.8173ZM111.25 28.8623L103.032 30.0445C103.308 31.0494 103.82 31.779 104.569 32.2318C105.318 32.6855 106.244 32.9122 107.348 32.9122C108.175 32.9122 108.939 32.7892 109.639 32.5426C110.187 32.3494 110.654 32.1469 111.04 31.9355C111.253 31.8183 111.515 31.854 111.694 32.0197C111.816 32.133 111.924 32.2627 112.018 32.4096C112.196 32.6855 112.285 32.9811 112.285 33.2965C112.285 33.6908 112.152 34.0402 111.885 34.3458C111.619 34.6514 111.255 34.9123 110.792 35.129C110.328 35.346 109.781 35.5133 109.151 35.6315C108.52 35.75 107.84 35.809 107.111 35.809C105.948 35.809 104.889 35.6512 103.933 35.336C102.977 35.0207 102.16 34.543 101.48 33.9023C100.8 33.262 100.268 32.4687 99.8836 31.5224C99.4993 30.5766 99.3073 29.4731 99.3073 28.2116C99.3073 26.9901 99.4943 25.9258 99.8688 25.0193C100.243 24.1127 100.75 23.354 101.391 22.743C102.032 22.1323 102.776 21.6787 103.623 21.3832C104.47 21.0874 105.367 20.9399 106.313 20.9399C107.279 20.9399 108.166 21.0924 108.974 21.3979C109.781 21.7039 110.471 22.1273 111.043 22.6691C111.614 23.2113 112.063 23.8618 112.388 24.62C112.713 25.3788 112.876 26.2015 112.876 27.0886C112.876 27.6404 112.733 28.0544 112.447 28.3299C112.161 28.6063 111.762 28.7832 111.25 28.8623ZM108.501 24.5608C108.008 24.0191 107.279 23.7483 106.313 23.7483C105.347 23.7483 104.54 24.0683 103.889 24.7089C103.239 25.3494 102.874 26.2607 102.795 27.4432L109.358 26.4677C109.279 25.739 108.993 25.1032 108.501 24.5608ZM97.4511 20.5556H90.3268V25.2556H97.0502C97.2747 25.2556 97.4768 25.3884 97.5649 25.5949C97.6016 25.681 97.6376 25.7748 97.6728 25.8764C97.7615 26.1327 97.8058 26.4186 97.8058 26.7339C97.8058 27.2658 97.6824 27.665 97.4361 27.9308C97.1896 28.1969 96.8599 28.3299 96.4462 28.3299H90.3861V34.7617C90.3861 35.0996 90.1451 35.3883 89.8132 35.4504C89.7555 35.4611 89.6953 35.4725 89.6323 35.4841C89.3068 35.543 88.967 35.5725 88.6122 35.5725C87.8631 35.5725 87.331 35.4344 87.0159 35.1585C86.7005 34.8825 86.5429 34.4198 86.5429 33.7693V19.4618C86.5429 18.8311 86.7251 18.3338 87.0899 17.9689C87.4542 17.6044 87.9518 17.4219 88.5828 17.4219H98.0539C98.275 17.4219 98.4789 17.5503 98.5645 17.7538C98.6032 17.8457 98.641 17.9467 98.6779 18.0574C98.7666 18.3238 98.8109 18.6148 98.8109 18.9297C98.8109 19.4618 98.6874 19.8659 98.4413 20.1416C98.1946 20.4178 97.8648 20.5556 97.4511 20.5556ZM82.2625 35.5133C81.8583 35.5725 81.4197 35.6022 80.9469 35.6022C79.9613 35.6022 79.2518 35.4395 78.8187 35.1142C78.3847 34.7888 78.1682 34.1634 78.1682 33.2369V26.2607C78.1682 25.6501 77.9858 25.2015 77.6214 24.9156C77.2562 24.6304 76.7789 24.487 76.1876 24.487C75.7933 24.487 75.4237 24.5364 75.0792 24.6351C74.8572 24.6982 74.6416 24.7739 74.4323 24.8618C74.2242 24.9486 74.0886 25.1528 74.0886 25.3786V34.8867C74.0886 35.1567 73.8973 35.3875 73.6321 35.4359C73.4915 35.462 73.3335 35.4876 73.1576 35.5133C72.7534 35.5725 72.3151 35.6022 71.8421 35.6022C70.8564 35.6022 70.1469 35.4395 69.7137 35.1142C69.28 34.7888 69.0635 34.1634 69.0635 33.2369V24.3394C69.0635 23.8073 69.1765 23.3739 69.4035 23.0386C69.6295 22.7039 69.9399 22.3986 70.3346 22.1222C71.0044 21.6492 71.8467 21.2702 72.8619 20.984C73.8767 20.6986 75.0051 20.5556 76.2467 20.5556C78.4734 20.5556 80.188 21.0432 81.3904 22.0187C82.5921 22.9941 83.1937 24.3591 83.1937 26.1129V34.8867C83.1937 35.1567 83.0024 35.3875 82.737 35.4359C82.5966 35.462 82.4383 35.4876 82.2625 35.5133ZM65.774 34.6858C64.4928 35.4542 62.6895 35.8385 60.3644 35.8385C59.3196 35.8385 58.3787 35.7396 57.5414 35.543C56.7034 35.346 55.9843 35.0503 55.3832 34.6563C54.7819 34.2622 54.3192 33.7595 53.9939 33.1483C53.669 32.5381 53.5063 31.8284 53.5063 31.0201C53.5063 29.6602 53.9097 28.6158 54.7183 27.8866C55.5261 27.1577 56.7775 26.7042 58.4726 26.5269L62.345 26.1129V25.9061C62.345 25.3347 62.0937 24.9261 61.5912 24.6792C61.0885 24.4329 60.3644 24.3097 59.4184 24.3097C58.6891 24.3097 57.9649 24.3886 57.2458 24.5462C56.6508 24.6766 56.1067 24.8339 55.6131 25.0182C55.3986 25.098 55.1553 25.0351 55.005 24.862C54.8767 24.714 54.7613 24.5348 54.659 24.3243C54.4817 23.9602 54.393 23.5808 54.393 23.1864C54.393 22.6742 54.5159 22.2653 54.7626 21.9595C55.0086 21.6545 55.3881 21.3934 55.9007 21.1764C56.4719 20.9595 57.1467 20.8024 57.9257 20.703C58.7038 20.6048 59.4379 20.5556 60.1278 20.5556C61.1919 20.5556 62.1626 20.6638 63.0395 20.8803C63.9162 21.0978 64.6656 21.4273 65.2863 21.8711C65.9072 22.3146 66.3847 22.8762 66.72 23.5559C67.0549 24.2357 67.2226 25.0389 67.2226 25.9651V32.5867C67.2226 33.0995 67.0795 33.518 66.794 33.8431C66.5081 34.1683 66.1681 34.4491 65.774 34.6858ZM62.3746 29.4237L60.2461 29.6012C59.6941 29.6409 59.241 29.7593 58.8864 29.9556C58.5315 30.1533 58.3541 30.4487 58.3541 30.8424C58.3541 31.2372 58.5068 31.5571 58.8124 31.8034C59.1177 32.0501 59.6349 32.1729 60.3644 32.1729C60.6993 32.1729 61.0689 32.1387 61.4728 32.0694C61.8766 32.0006 62.1773 31.9069 62.3746 31.7886V29.4237ZM51.4919 21.5898H45.2841V24.9305H51.427C51.6457 24.9305 51.8415 25.0583 51.935 25.2556C52.0072 25.4083 52.0763 25.581 52.142 25.7732C52.2605 26.1182 52.3196 26.4972 52.3196 26.9112C52.3196 27.6602 52.1571 28.1969 51.832 28.5219C51.5066 28.8474 51.068 29.0099 50.5164 29.0099H45.3432V34.8825C45.3432 35.1555 45.1478 35.3875 44.879 35.4335C44.7227 35.46 44.5426 35.4867 44.3383 35.5133C43.8846 35.5725 43.4218 35.6022 42.9487 35.6022C41.9039 35.6022 41.1797 35.4245 40.7759 35.0698C40.372 34.7154 40.17 34.0749 40.17 33.1483V20.2006C40.17 19.3537 40.4163 18.6835 40.9089 18.1904C41.4013 17.6981 42.0716 17.4516 42.919 17.4516H52.4276C52.6505 17.4516 52.8497 17.5839 52.9406 17.7872C53.0091 17.9402 53.073 18.1142 53.1327 18.3087C53.2408 18.6638 53.2953 19.0478 53.2953 19.4618C53.2953 20.2108 53.1327 20.7527 52.8073 21.0874C52.4823 21.4227 52.0434 21.5898 51.4919 21.5898Z" fill="white"/>
<path fill-rule="evenodd" clip-rule="evenodd" d="M22.3629 15.2719C15.7629 18.7662 7.44388 19.2894 1.94922 25.4111C1.94482 25.4154 1.9415 25.4198 1.93828 25.424C1.83099 25.541 1.6209 25.4884 1.58122 25.3352C1.57822 25.3208 1.57533 25.3064 1.57295 25.2918C1.50924 24.9627 1.45676 24.629 1.4159 24.2912C1.36577 23.0742 1.45335 21.8373 1.66415 20.648C2.57031 15.8289 5.52858 11.862 9.71981 9.54975C9.72034 9.54939 9.7212 9.54887 9.72195 9.54816C16.545 5.79633 24.1347 5.5127 30.0251 0.511706C30.0332 0.505194 30.0413 0.49833 30.0493 0.491158C30.0537 0.487814 30.0586 0.484822 30.0636 0.482006C30.0639 0.482006 30.0642 0.481478 30.0649 0.481478C30.1104 0.455826 30.167 0.45037 30.2198 0.471622C30.2677 0.491158 30.3032 0.528558 30.3208 0.573218C30.3228 0.577222 30.3244 0.582502 30.3258 0.58743C30.7812 1.79774 30.9925 3.09209 30.9345 4.46159C30.395 10.0449 27.6859 12.454 22.3629 15.2719ZM4.53025 26.6011C10.076 21.7473 18.1602 21.0979 24.1097 17.6656C25.0855 17.1243 25.981 16.5666 26.7965 15.9904C26.7972 15.99 26.7977 15.9897 26.7984 15.9891C26.8085 15.9822 26.8189 15.9749 26.8291 15.9672C26.8293 15.9668 26.8296 15.9665 26.8301 15.9665C26.876 15.941 26.9324 15.9356 26.9852 15.9566C27.0332 15.9762 27.0686 16.0137 27.0862 16.0584C27.0883 16.0628 27.0898 16.0677 27.0913 16.0724C27.5252 17.256 27.7362 18.5437 27.6756 19.8818C27.5329 23.0385 25.7952 25.7171 23.2893 27.24C20.3361 29.0347 15.7554 30.3052 12.519 31.7166L10.9254 28.4869C10.8583 28.3507 10.664 28.3507 10.597 28.4869L8.97286 31.7785L5.34072 32.3065C5.19052 32.3285 5.13054 32.5132 5.23944 32.6188L7.4574 34.7815L7.86725 35.1812L7.24712 38.7997C7.22149 38.9494 7.37853 39.0633 7.51255 38.9927L10.7613 37.2845L11.797 37.8291L14.0095 38.9927C14.1439 39.0633 14.3009 38.9494 14.2753 38.7997L13.6554 35.1844C14.0023 34.8322 14.3748 34.5072 14.7696 34.2113C15.4489 33.7026 16.1936 33.2811 16.9849 32.9613C17.9745 32.5613 19.0377 32.3192 20.1388 32.2626C20.1504 32.2619 20.1624 32.2612 20.1743 32.2608C20.2517 32.264 20.3167 32.3164 20.3391 32.3877C20.3391 32.3884 20.3394 32.3888 20.3394 32.3895C20.3421 32.4018 20.3443 32.4139 20.3463 32.426C20.3612 32.5049 20.3745 32.5841 20.387 32.664C20.5376 33.6072 20.5512 34.5889 20.4112 35.5838C19.7353 40.3789 15.7059 43.874 11.0287 44.0323C10.8896 44.0371 10.7495 44.0386 10.6091 44.0376C10.192 44.0343 9.77 44.0037 9.34558 43.9452C9.28956 43.9371 9.23323 43.9287 9.17756 43.9192C9.16652 43.9181 9.15579 43.9163 9.14473 43.9141C9.12693 43.9114 9.10836 43.9082 9.09054 43.9051C9.06503 43.9005 9.03992 43.8961 9.0149 43.8914C8.97317 43.884 8.93228 43.8764 8.8909 43.8684C8.86009 43.8624 8.82952 43.8564 8.79883 43.8501C8.73884 43.8382 8.6805 43.826 8.62117 43.8129C8.58899 43.8053 8.55625 43.7981 8.52408 43.7905C8.48737 43.7821 8.45045 43.7728 8.41409 43.764C8.398 43.7603 8.38222 43.7566 8.36604 43.7517C8.3422 43.7462 8.31926 43.7408 8.29576 43.7347C8.25766 43.7248 8.21969 43.7142 8.18246 43.7044C8.03192 43.6633 7.88269 43.6196 7.73528 43.572C7.69858 43.5595 7.66156 43.5481 7.6252 43.5354C7.55064 43.5108 7.47649 43.4846 7.40355 43.4588C7.37522 43.448 7.34657 43.4377 7.31867 43.4266C7.28048 43.4122 7.24229 43.3983 7.20475 43.3831C7.14842 43.3621 7.0924 43.3393 7.03673 43.317C7.03285 43.3149 7.02867 43.3133 7.02448 43.3115C6.99187 43.2984 6.95947 43.2848 6.92795 43.2713C6.89512 43.2577 6.86325 43.2437 6.83104 43.2298C6.80156 43.2172 6.77174 43.2043 6.74201 43.1905C6.73931 43.1892 6.736 43.1882 6.73277 43.1866C5.64734 42.6985 4.67499 42.0227 3.85123 41.2044C3.69093 41.0453 3.53602 40.8807 3.38731 40.7111C3.04752 40.3244 2.73855 39.9113 2.46345 39.476C1.2631 37.5776 0.704357 35.2596 1.04232 32.8614C1.11173 32.3684 1.21632 31.8892 1.35461 31.4258C1.68154 30.377 2.17977 29.4197 2.73737 28.5742C3.11479 28.0021 4.08748 26.9885 4.53025 26.6011Z" fill="#FE656B"/>
<path fill-rule="evenodd" clip-rule="evenodd" d="M161.833 24.2171C161.551 24.7283 161.155 25.1245 160.647 25.4066C160.137 25.6886 159.605 25.8299 159.049 25.8299C158.493 25.8299 157.96 25.6886 157.451 25.4066C156.942 25.1245 156.546 24.7283 156.262 24.2171C155.979 23.707 155.837 23.1748 155.837 22.622C155.837 22.0631 155.981 21.5268 156.269 21.0114C156.556 20.4969 156.957 20.1014 157.471 19.8246C157.984 19.5481 158.51 19.4094 159.049 19.4094C159.588 19.4094 160.114 19.5481 160.628 19.8246C161.141 20.1014 161.54 20.4969 161.827 21.0114C162.114 21.5268 162.257 22.0631 162.257 22.622C162.257 23.1748 162.116 23.707 161.833 24.2171ZM161.365 21.2797C161.126 20.8501 160.792 20.5198 160.364 20.2885C159.935 20.0576 159.497 19.9418 159.049 19.9418C158.598 19.9418 158.159 20.0576 157.732 20.2885C157.306 20.5198 156.972 20.8501 156.731 21.2797C156.49 21.7092 156.369 22.1569 156.369 22.6218C156.369 23.0841 156.488 23.5273 156.724 23.9511C156.961 24.3751 157.292 24.7056 157.718 24.9427C158.143 25.179 158.587 25.2974 159.049 25.2974C159.511 25.2974 159.955 25.179 160.381 24.9427C160.806 24.7056 161.136 24.3751 161.372 23.9511C161.607 23.5273 161.725 23.0841 161.725 22.6218C161.725 22.1569 161.605 21.7092 161.365 21.2797ZM160.09 23.4516C160.208 23.9527 160.293 24.299 160.362 24.4373H159.883C159.824 24.3358 159.744 24.0272 159.648 23.58C159.542 23.0841 159.345 22.8977 158.924 22.8822H158.487V24.4373H158.024V20.9002C158.258 20.852 158.599 20.8204 158.913 20.8204C159.409 20.8204 159.733 20.9162 159.957 21.1186C160.133 21.2729 160.239 21.5182 160.239 21.8004C160.239 22.2688 159.936 22.5835 159.563 22.7113V22.7273C159.835 22.8232 160 23.0789 160.09 23.4516ZM159.771 21.8483C159.771 21.3852 159.435 21.1822 158.945 21.1822C158.721 21.1822 158.567 21.2035 158.487 21.2256V22.5306H158.961C159.457 22.5306 159.771 22.2585 159.771 21.8483Z" fill="black"/>
</g>
<defs>
<clipPath id="clip0_0_103">
<rect width="163" height="44" fill="white"/>
</clipPath>
</defs>
</svg>
