<svg width="489" height="459" viewBox="0 0 489 459" fill="none" xmlns="http://www.w3.org/2000/svg">
<path fill-rule="evenodd" clip-rule="evenodd" d="M209.361 71.7871C212.599 71.7871 215.234 69.2337 215.234 66.095V63.2132C215.234 60.0746 212.599 57.5212 209.361 57.5212H184.683V53.0855C184.683 44.2776 177.517 37.1123 168.707 37.1123H161.94V12.0266C161.94 8.78931 159.387 6.15507 156.247 6.15507H153.364C150.225 6.15507 147.671 8.78931 147.671 12.0266V37.1123H129.851V12.0266C129.851 8.78931 127.298 6.15507 124.159 6.15507H121.276C118.137 6.15507 115.583 8.78931 115.583 12.0266V37.1123H97.7631V12.0266C97.7631 8.78931 95.2091 6.15507 92.0702 6.15507H89.1877C86.0486 6.15507 83.4948 8.78931 83.4948 12.0266V37.1123H65.6748V12.0266C65.6748 8.78931 63.121 6.15507 59.9819 6.15507H57.0994C53.9603 6.15507 51.4065 8.78931 51.4065 12.0266V37.1123H45.4367C36.6269 37.1123 29.4602 44.2776 29.4602 53.0855V57.5212H6.7135C3.47566 57.5212 0.840888 60.0746 0.840888 63.2132V66.095C0.840888 69.2337 3.47566 71.7871 6.7135 71.7871H29.4602V89.604H6.7135C3.47566 89.604 0.840888 92.1579 0.840888 95.2961V98.1787C0.840888 101.317 3.47566 103.87 6.7135 103.87H29.4602V121.687H6.7135C3.47566 121.687 0.840888 124.24 0.840888 127.379V130.262C0.840888 133.401 3.47566 135.954 6.7135 135.954H29.4602V153.771H6.7135C3.47566 153.771 0.840888 156.324 0.840888 159.462V162.345C0.840888 165.484 3.47566 168.037 6.7135 168.037H29.4602V176.336C29.4602 185.144 36.6269 192.31 45.4367 192.31H51.4065V217.62C51.4065 220.857 53.9603 223.492 57.0994 223.492H59.9819C63.121 223.492 65.6748 220.857 65.6748 217.62V192.31H83.4948V217.62C83.4948 220.857 86.0486 223.492 89.1877 223.492H92.0702C95.2091 223.492 97.7631 220.857 97.7631 217.62V192.31H115.583V217.62C115.583 220.857 118.137 223.492 121.276 223.492H124.159C127.298 223.492 129.851 220.857 129.851 217.62V192.31H147.671V217.62C147.671 220.857 150.225 223.492 153.364 223.492H156.247C159.387 223.492 161.94 220.857 161.94 217.62V192.31H168.707C177.517 192.31 184.683 185.144 184.683 176.336V168.037H209.361C212.599 168.037 215.234 165.484 215.234 162.345V159.462C215.234 156.324 212.599 153.771 209.361 153.771H184.683V135.954H209.361C212.599 135.954 215.234 133.401 215.234 130.262V127.379C215.234 124.24 212.599 121.687 209.361 121.687H184.683V103.87H209.361C212.599 103.87 215.234 101.317 215.234 98.1787V95.2961C215.234 92.1579 212.599 89.604 209.361 89.604H184.683V71.7871H209.361ZM184.683 62.0778H209.361C210.074 62.0778 210.677 62.5977 210.677 63.2132V66.095C210.677 66.7106 210.074 67.2305 209.361 67.2305H184.683V62.0778ZM29.4602 163.48H6.7135C6.00048 163.48 5.39827 162.96 5.39827 162.345V159.462C5.39827 158.847 6.00048 158.327 6.7135 158.327H29.4602V163.48ZM29.4602 131.397H6.7135C6.00048 131.397 5.39827 130.877 5.39827 130.262V127.379C5.39827 126.763 6.00048 126.244 6.7135 126.244H29.4602V131.397ZM29.4602 99.3135H6.7135C6.00048 99.3135 5.39827 98.7936 5.39827 98.1787V95.2961C5.39827 94.6805 6.00048 94.1606 6.7135 94.1606H29.4602V99.3135ZM29.4602 67.2305H6.7135C6.00048 67.2305 5.39827 66.7106 5.39827 66.095V63.2132C5.39827 62.5977 6.00048 62.0778 6.7135 62.0778H29.4602V67.2305ZM152.229 12.0266C152.229 11.3138 152.749 10.7117 153.364 10.7117H156.247C156.863 10.7117 157.383 11.3138 157.383 12.0266V37.1123H152.229V12.0266ZM120.14 12.0266C120.14 11.3138 120.66 10.7117 121.276 10.7117H124.159C124.774 10.7117 125.294 11.3138 125.294 12.0266V37.1123H120.14V12.0266ZM88.052 12.0266C88.052 11.3138 88.5721 10.7117 89.1877 10.7117H92.0702C92.6858 10.7117 93.2059 11.3138 93.2059 12.0266V37.1123H88.052V12.0266ZM55.9639 12.0266C55.9639 11.3138 56.4838 10.7117 57.0994 10.7117H59.9819C60.5975 10.7117 61.1174 11.3138 61.1174 12.0266V37.1123H55.9639V12.0266ZM61.1174 217.62C61.1174 218.333 60.5975 218.935 59.9819 218.935H57.0994C56.4838 218.935 55.9639 218.333 55.9639 217.62V192.31H61.1174V217.62ZM93.2059 217.62C93.2059 218.333 92.6858 218.935 92.0702 218.935H89.1877C88.5721 218.935 88.052 218.333 88.052 217.62V192.31H93.2059V217.62ZM125.294 217.62C125.294 218.333 124.774 218.935 124.159 218.935H121.276C120.66 218.935 120.14 218.333 120.14 217.62V192.31H125.294V217.62ZM157.383 217.62C157.383 218.333 156.863 218.935 156.247 218.935H153.364C152.749 218.935 152.229 218.333 152.229 217.62V192.31H157.383V217.62ZM180.126 176.336C180.126 182.632 175.004 187.753 168.707 187.753H45.4367C39.1401 187.753 34.0174 182.632 34.0174 176.336V53.0855C34.0174 46.7905 39.1401 41.6687 45.4367 41.6687H168.707C175.004 41.6687 180.126 46.7905 180.126 53.0855V176.336ZM209.361 158.327C210.074 158.327 210.677 158.847 210.677 159.462V162.345C210.677 162.96 210.074 163.48 209.361 163.48H184.683V158.327H209.361ZM209.361 126.244C210.074 126.244 210.677 126.763 210.677 127.379V130.262C210.677 130.877 210.074 131.397 209.361 131.397H184.683V126.244H209.361ZM209.361 94.1606C210.074 94.1606 210.677 94.6805 210.677 95.2961V98.1787C210.677 98.7936 210.074 99.3135 209.361 99.3135H184.683V94.1606H209.361ZM168.707 48.6105H151.254H57.1713H45.4367C42.9689 48.6105 40.9609 50.6182 40.9609 53.0855V176.336C40.9609 178.804 42.9689 180.811 45.4367 180.811H63.1543H150.192H168.707C171.175 180.811 173.183 178.804 173.183 176.336V53.0855C173.183 50.6182 171.175 48.6105 168.707 48.6105ZM61.0308 75.557C61.0308 77.8626 59.154 79.7391 56.848 79.7391C54.5417 79.7391 52.6651 77.8626 52.6651 75.557C52.6651 73.2511 54.5417 71.3747 56.848 71.3747C59.154 71.3747 61.0308 73.2511 61.0308 75.557ZM146.301 158.413C146.301 156.107 148.178 154.231 150.484 154.231C152.79 154.231 154.667 156.107 154.667 158.413C154.667 160.719 152.79 162.595 150.484 162.595C148.178 162.595 146.301 160.719 146.301 158.413ZM152.471 176.255V166.915C156.334 166.012 159.224 162.547 159.224 158.413C159.224 153.594 155.303 149.674 150.484 149.674C145.665 149.674 141.744 153.594 141.744 158.413C141.744 162.337 144.345 165.664 147.913 166.764V176.255H110.972V131.52C110.972 130.915 110.731 130.334 110.302 129.906C109.872 129.48 109.288 129.261 108.685 129.242L89.9532 129.316V113.335C93.3161 112.343 95.793 109.263 95.793 105.583C95.793 101.107 92.151 97.4655 87.6744 97.4655C83.1972 97.4655 79.5552 101.107 79.5552 105.583C79.5552 109.263 82.0323 112.343 85.3958 113.335V131.603C85.3958 132.209 85.6369 132.79 86.0663 133.218C86.4937 133.643 87.0713 133.882 87.6744 133.882H87.6835L106.415 133.808V176.255H65.4329V126.414C69.0012 125.314 71.6021 121.987 71.6021 118.063C71.6021 113.245 67.6812 109.324 62.862 109.324C61.6032 109.324 60.5835 110.344 60.5835 111.602C60.5835 112.861 61.6032 113.881 62.862 113.881C65.1681 113.881 67.0449 115.757 67.0449 118.063C67.0449 120.368 65.1681 122.245 62.862 122.245C60.556 122.245 58.6794 120.368 58.6794 118.063C58.6794 116.804 57.6595 115.784 56.4006 115.784C55.1418 115.784 54.122 116.804 54.122 118.063C54.122 122.197 57.0117 125.662 60.8757 126.565V176.255H45.5183L45.4367 53.1671L54.8884 53.1608L54.8631 67.0542C50.9987 67.9567 48.1077 71.422 48.1077 75.557C48.1077 80.3752 52.0286 84.2955 56.848 84.2955C61.6671 84.2955 65.588 80.3752 65.588 75.557C65.588 71.6332 62.9878 68.3066 59.4203 67.2058L59.4456 53.1671H105.49V77.9473C105.49 79.1954 106.494 80.2108 107.742 80.2254L122.663 80.4003V96.5218C119.065 97.2843 116.356 100.48 116.356 104.301C116.356 108.688 119.925 112.256 124.313 112.256C128.7 112.256 132.27 108.688 132.27 104.301C132.27 100.942 130.17 98.0784 127.22 96.9132V78.1489C127.22 76.9008 126.217 75.8856 124.969 75.8706L110.047 75.6956V53.1671H148.975V114.371C145.407 115.472 142.806 118.799 142.806 122.723C142.806 123.982 143.826 125.001 145.085 125.001C146.344 125.001 147.363 123.982 147.363 122.723C147.363 120.417 149.24 118.541 151.546 118.541C153.852 118.541 155.729 120.417 155.729 122.723C155.729 125.029 153.852 126.905 151.546 126.905C150.288 126.905 149.268 127.925 149.268 129.184C149.268 130.442 150.288 131.462 151.546 131.462C156.365 131.462 160.286 127.542 160.286 122.723C160.286 118.589 157.397 115.124 153.533 114.221V53.0956L168.626 53.0855L168.707 176.255H152.471ZM87.6744 109.144C85.7103 109.144 84.1126 107.546 84.1126 105.583C84.1126 103.62 85.7103 102.022 87.6744 102.022C89.6381 102.022 91.2358 103.62 91.2358 105.583C91.2358 107.546 89.6381 109.144 87.6744 109.144ZM124.313 100.901C126.188 100.901 127.713 102.426 127.713 104.301C127.713 106.175 126.188 107.7 124.313 107.7C122.438 107.7 120.913 106.175 120.913 104.301C120.913 102.426 122.438 100.901 124.313 100.901ZM192.128 22.6079C198.123 22.6079 203 17.7314 203 11.7376C203 5.74381 198.123 0.867552 192.128 0.867552C186.133 0.867552 181.257 5.74381 181.257 11.7376C181.257 17.7314 186.133 22.6079 192.128 22.6079ZM192.128 5.42394C195.61 5.42394 198.443 8.25642 198.443 11.7376C198.443 15.2188 195.61 18.051 192.128 18.051C188.646 18.051 185.814 15.2188 185.814 11.7376C185.814 8.25642 188.646 5.42394 192.128 5.42394Z" fill="#EEE8FA"/>
<path opacity="0.54" d="M61.8153 394.525C77.3964 394.525 90.0276 407.156 90.0276 422.737C90.0276 438.318 77.3964 450.949 61.8153 450.949C46.2342 450.949 33.603 438.318 33.603 422.737C33.603 407.156 46.2342 394.525 61.8153 394.525Z" fill="#5D2DCF" fill-opacity="0.01" stroke="#DFD5F5" stroke-width="5"/>
<path opacity="0.54" fill-rule="evenodd" clip-rule="evenodd" d="M374.556 198.48C373.507 198.022 372.27 198.222 371.399 198.997L338.976 227.249C338.323 227.852 337.947 228.725 337.947 229.645C337.947 230.566 338.323 231.439 339.03 232.091L371.363 260.26C371.927 260.781 372.652 261.055 373.385 261.055C373.783 261.055 374.181 260.975 374.556 260.811C375.693 260.314 376.426 259.157 376.426 257.862V246.175H485.501C487.18 246.175 488.547 244.742 488.547 242.98V216.311C488.547 214.549 487.18 213.116 485.501 213.116H376.426V201.429C376.426 200.134 375.693 198.977 374.556 198.48ZM483.554 218.104V241.187H374.48C372.799 241.187 371.433 242.62 371.433 244.381V253.705L343.818 229.646L371.433 205.587V214.911C371.433 216.671 372.799 218.104 374.48 218.104H483.554ZM456.545 288.837C456.543 287.918 456.168 287.045 455.462 286.394L423.092 258.191C422.226 257.416 420.994 257.211 419.934 257.675C418.798 258.171 418.065 259.328 418.065 260.622V272.31H353.024C351.343 272.31 349.977 273.743 349.977 275.504V302.174C349.977 303.935 351.343 305.368 353.024 305.368H418.065V317.056C418.065 318.351 418.8 319.509 419.936 320.005C420.318 320.171 420.721 320.251 421.121 320.251C421.844 320.251 422.553 319.988 423.078 319.501L455.518 291.234C456.171 290.63 456.545 289.756 456.545 288.837ZM423.058 312.901V303.575C423.058 301.813 421.691 300.38 420.012 300.38H354.97V277.298H420.012C421.691 277.298 423.058 275.865 423.058 274.104V264.779L450.674 288.839L423.058 312.901Z" fill="#DFD5F5"/>
<path fill-rule="evenodd" clip-rule="evenodd" d="M403.419 68.6221H396.543C394.434 68.6221 392.724 66.7905 392.724 64.6805C392.724 62.5706 394.434 60.7389 396.543 60.7389H403.419C405.529 60.7389 407.239 62.5706 407.239 64.6805C407.239 66.7905 405.529 68.6221 403.419 68.6221ZM388.159 83.4505C386.05 83.4505 384.425 81.7399 384.425 79.6303V73.5185C384.425 71.4085 386.05 69.6979 388.159 69.6979C390.269 69.6979 391.894 71.4085 391.894 73.5185V79.6303C391.894 81.7399 390.269 83.4505 388.159 83.4505ZM388.159 60.5301C386.05 60.5301 384.425 58.8199 384.425 56.71V49.8339C384.425 47.724 386.05 46.0138 388.159 46.0138C390.269 46.0138 391.894 47.724 391.894 49.8339V56.71C391.894 58.8199 390.269 60.5301 388.159 60.5301ZM379.736 68.6221H373.624C371.514 68.6221 369.804 66.7905 369.804 64.6805C369.804 62.5706 371.514 60.7389 373.624 60.7389H379.736C381.845 60.7389 383.556 62.5706 383.556 64.6805C383.556 66.7905 381.845 68.6221 379.736 68.6221ZM401.438 154.399C408.438 173.663 411.987 193.918 411.987 214.6C411.987 223.941 411.25 233.318 409.796 242.469C409.497 244.349 407.873 245.69 406.028 245.69C405.829 245.69 405.627 245.674 405.424 245.642C403.34 245.311 401.919 243.353 402.25 241.27C403.642 232.514 404.347 223.541 404.347 214.6C404.347 194.81 400.952 175.433 394.258 157.008C387.788 139.202 378.401 122.701 366.358 107.965C366.292 107.884 359.576 99.6928 353.657 93.9328C352.145 92.4614 352.112 90.0428 353.583 88.5307C355.054 87.0189 357.473 86.9856 358.985 88.457C365.22 94.5244 371.987 102.78 372.272 103.129C384.862 118.534 394.674 135.783 401.438 154.399ZM337.493 203.437L361.547 214.656C370.426 218.797 378.155 225.181 383.897 233.119C389.64 241.057 393.286 250.395 394.442 260.123L409.799 389.104C410.049 391.198 408.553 393.099 406.458 393.348C406.305 393.367 406.152 393.375 406.002 393.375C404.094 393.375 402.445 391.948 402.213 390.007L386.856 261.025C385.853 252.584 382.69 244.483 377.708 237.597C372.726 230.711 366.021 225.173 358.319 221.58L334.686 210.558L323.828 238.106C323.758 238.282 323.665 238.44 323.574 238.599L355.561 270.588C357.053 272.08 357.053 274.499 355.561 275.991C354.069 277.482 351.651 277.482 350.159 275.991L307.111 232.941C300.761 226.591 290.429 226.591 284.079 232.941C277.729 239.291 277.729 249.623 284.079 255.973L305.729 277.624C305.737 277.631 305.744 277.639 305.752 277.646L325.739 297.634C325.743 297.638 325.746 297.642 325.75 297.646L338.931 310.827C340.423 312.319 340.423 314.738 338.931 316.23C338.185 316.976 337.207 317.349 336.23 317.349C335.252 317.349 334.275 316.976 333.529 316.23L332.032 314.733L334.023 324.612L337.353 335.442C338.175 338.118 338.233 341.651 337.533 346.244C336.588 352.426 332.373 357.738 326.533 360.107C316.997 363.974 310.952 366.294 308.566 367.003C305.289 367.976 302.535 368.458 300.222 368.458C299.468 368.458 298.762 368.407 298.098 368.305L278.532 365.3C281.284 371.388 286.892 375.782 293.673 376.831L321.142 381.08C323.227 381.403 324.656 383.354 324.333 385.439C324.041 387.326 322.415 388.675 320.563 388.675C320.369 388.675 320.172 388.661 319.975 388.63L292.506 384.382C281.542 382.686 272.745 374.697 269.968 363.984L257.292 362.037C246.36 360.358 237.812 351.514 236.506 340.531L235.007 327.929C228.883 324.366 224.506 318.274 223.188 310.985C223.153 310.787 223.132 310.587 223.128 310.386L222.657 287.991C218.611 283.368 216.427 277.208 216.954 270.779L218.562 251.157L127.01 215.068C122.488 213.286 118.931 209.849 116.994 205.391C115.057 200.933 114.971 195.987 116.754 191.465L156.003 91.889C157.786 87.3671 161.223 83.8095 165.68 81.8722C170.138 79.9348 175.084 79.85 179.606 81.6325L340.885 145.207C350.22 148.887 354.821 159.476 351.142 168.811L337.493 203.437ZM244.092 339.628C244.995 347.216 250.9 353.325 258.452 354.485L299.258 360.753C300.122 360.887 302.201 360.924 306.39 359.679C308.481 359.058 314.615 356.695 323.662 353.026C327.019 351.665 329.44 348.624 329.98 345.091C330.657 340.655 330.314 338.548 330.05 337.687L327.912 330.735L309.141 338.749C303.704 341.07 297.765 341.692 291.965 340.548L243.054 330.897L244.092 339.628ZM230.759 309.908C232.109 316.731 237.356 321.985 244.2 323.336L293.444 333.052C297.731 333.897 302.122 333.438 306.141 331.722L325.957 323.262L322.626 306.73C322.529 306.249 322.536 305.773 322.616 305.317L322.537 305.238L314.899 310.253C309.521 313.784 303.229 315.603 296.905 315.603C293.208 315.603 289.5 314.981 285.957 313.717L232.306 294.568C231.661 294.338 231.034 294.078 230.421 293.797L230.759 309.908ZM234.874 287.372L288.526 306.521C295.883 309.147 304.175 308.155 310.705 303.867L317.02 299.72L300.924 283.624L225.987 254.085L224.568 271.403C223.993 278.435 228.23 285.001 234.874 287.372ZM343.895 157.93C342.771 155.344 340.707 153.349 338.084 152.315L176.804 88.7403C174.18 87.7061 171.312 87.7552 168.725 88.8793C166.139 90.0033 164.145 92.0671 163.111 94.6908L123.861 194.267C122.827 196.89 122.877 199.759 124.001 202.346C125.124 204.932 127.188 206.927 129.812 207.961L287.369 270.068L278.677 261.376C274.107 256.806 271.791 250.832 271.698 244.829L230.286 228.639C228.321 227.87 227.351 225.655 228.119 223.69C228.887 221.725 231.102 220.754 233.068 221.523L272.86 237.081C273.986 233.591 275.911 230.305 278.677 227.538C288.006 218.209 303.184 218.209 312.513 227.538L317.726 232.752L344.034 166.009C345.068 163.386 345.019 160.516 343.895 157.93ZM222.548 155.034C220.4 155.975 218.126 156.446 215.849 156.446C213.792 156.446 211.733 156.061 209.76 155.29C205.602 153.664 202.326 150.517 200.535 146.427C200.32 145.935 200.132 145.435 199.965 144.932C199.501 145.189 199.025 145.429 198.532 145.644C196.384 146.585 194.11 147.056 191.833 147.056C189.776 147.056 187.717 146.672 185.743 145.9C181.585 144.274 178.309 141.127 176.519 137.038C174.728 132.948 174.637 128.406 176.263 124.248C177.888 120.09 181.036 116.814 185.125 115.023C189.215 113.232 193.757 113.142 197.914 114.767C202.072 116.393 205.348 119.54 207.139 123.63C207.354 124.122 207.542 124.622 207.708 125.125C208.172 124.868 208.649 124.628 209.142 124.413C213.231 122.622 217.773 122.532 221.931 124.157C226.089 125.783 229.364 128.93 231.155 133.019C232.945 137.109 233.036 141.651 231.411 145.809C229.785 149.967 226.638 153.243 222.548 155.034ZM200.14 126.694C199.168 124.474 197.389 122.765 195.132 121.883C194.061 121.464 192.943 121.255 191.826 121.255C190.59 121.255 189.356 121.511 188.189 122.022C185.969 122.994 184.26 124.773 183.378 127.03C182.496 129.287 182.545 131.753 183.517 133.973C184.489 136.193 186.268 137.902 188.525 138.784C190.783 139.667 193.248 139.618 195.468 138.645C197.688 137.673 199.397 135.895 200.279 133.638C201.161 131.38 201.112 128.914 200.14 126.694ZM224.156 136.084C223.184 133.864 221.406 132.155 219.149 131.273C218.077 130.854 216.959 130.645 215.843 130.645C214.606 130.645 213.372 130.901 212.206 131.412C209.986 132.384 208.277 134.162 207.395 136.419C206.512 138.677 206.561 141.143 207.533 143.362C208.505 145.583 210.284 147.291 212.541 148.174C214.798 149.057 217.264 149.007 219.484 148.035C221.704 147.063 223.413 145.284 224.295 143.027C225.178 140.77 225.129 138.304 224.156 136.084ZM229.19 200.609C228.601 202.117 227.159 203.038 225.631 203.038C225.169 203.038 224.699 202.954 224.242 202.775L159.694 177.539C157.729 176.771 156.759 174.555 157.527 172.591C158.296 170.625 160.512 169.655 162.476 170.424L227.024 195.66C228.989 196.428 229.959 198.644 229.19 200.609ZM221.221 220.993C220.631 222.501 219.189 223.422 217.663 223.422C217.2 223.422 216.73 223.338 216.273 223.159L151.725 197.923C149.76 197.155 148.79 194.939 149.558 192.975C150.327 191.009 152.542 190.04 154.507 190.808L219.054 216.044C221.019 216.812 221.989 219.028 221.221 220.993ZM235.725 45.9714C212.959 45.9714 190.876 50.4292 170.09 59.2214C150.011 67.7148 131.977 79.8737 116.49 95.3614C101.003 110.849 88.8439 128.883 80.3511 148.963C71.5596 169.75 67.1017 191.833 67.1017 214.6C67.1017 237.366 71.5596 259.45 80.3511 280.237C81.1729 282.18 80.2639 284.421 78.3211 285.243C77.8356 285.449 77.3311 285.546 76.8347 285.546C75.3459 285.546 73.9315 284.67 73.3147 283.213C64.1225 261.479 59.4616 238.394 59.4616 214.6C59.4616 190.805 64.1225 167.721 73.3147 145.987C82.1927 124.997 94.9014 106.146 111.088 89.9592C127.274 73.7722 146.124 61.063 167.114 52.1852C188.847 42.9924 211.931 38.3311 235.725 38.3311C237.834 38.3311 239.544 40.0413 239.544 42.1512C239.544 44.2612 237.834 45.9714 235.725 45.9714ZM64.2094 306.165C64.2094 308.275 62.4994 310.107 60.3895 310.107H53.5137C51.4042 310.107 49.6938 308.275 49.6938 306.165C49.6938 304.056 51.4042 302.224 53.5137 302.224H60.3895C62.4994 302.224 64.2094 304.056 64.2094 306.165ZM45.0302 324.878C42.9207 324.878 41.296 323.168 41.296 321.058V314.946C41.296 312.836 42.9207 311.126 45.0302 311.126C47.1401 311.126 48.7644 312.836 48.7644 314.946V321.058C48.7644 323.168 47.1401 324.878 45.0302 324.878ZM45.0302 301.958C42.9207 301.958 41.296 300.248 41.296 298.138V291.262C41.296 289.152 42.9207 287.441 45.0302 287.441C47.1401 287.441 48.7644 289.152 48.7644 291.262V298.138C48.7644 300.248 47.1401 301.958 45.0302 301.958ZM36.7061 310.107H30.5942C28.4843 310.107 26.7743 308.275 26.7743 306.165C26.7743 304.056 28.4843 302.224 30.5942 302.224H36.7061C38.816 302.224 40.526 304.056 40.526 306.165C40.526 308.275 38.816 310.107 36.7061 310.107ZM146.338 398.901H152.45C154.56 398.901 156.27 400.732 156.27 402.842C156.27 404.952 154.56 406.784 152.45 406.784H146.338C144.228 406.784 142.518 404.952 142.518 402.842C142.518 400.732 144.228 398.901 146.338 398.901ZM160.79 384.089C162.899 384.089 164.524 385.8 164.524 387.909V394.785C164.524 396.895 162.899 398.605 160.79 398.605C158.68 398.605 157.055 396.895 157.055 394.785V387.909C157.055 385.8 158.68 384.089 160.79 384.089ZM160.79 407.774C162.899 407.774 164.524 409.484 164.524 411.594V417.706C164.524 419.816 162.899 421.526 160.79 421.526C158.68 421.526 157.055 419.816 157.055 417.706V411.594C157.055 409.484 158.68 407.774 160.79 407.774ZM169.258 398.901H176.134C178.243 398.901 179.953 400.732 179.953 402.842C179.953 404.952 178.243 406.784 176.134 406.784H169.258C167.148 406.784 165.438 404.952 165.438 402.842C165.438 400.732 167.148 398.901 169.258 398.901ZM189.539 338.86C189.539 333.213 194.133 328.619 199.78 328.619C205.426 328.619 210.02 333.213 210.02 338.86C210.02 344.508 205.426 349.101 199.78 349.101C194.133 349.101 189.539 344.508 189.539 338.86ZM202.381 338.86C202.381 337.426 201.214 336.259 199.78 336.259C198.346 336.259 197.179 337.426 197.179 338.86C197.179 340.294 198.346 341.461 199.78 341.461C201.214 341.461 202.381 340.294 202.381 338.86ZM187.697 376.291C203.218 380.895 219.377 383.229 235.725 383.229C241.523 383.229 247.369 382.931 253.101 382.345C255.208 382.131 257.075 383.657 257.29 385.756C257.505 387.855 255.978 389.73 253.879 389.945C247.889 390.558 241.781 390.869 235.725 390.869C218.641 390.869 201.751 388.429 185.525 383.616C183.502 383.016 182.349 380.89 182.948 378.868C183.548 376.845 185.675 375.692 187.697 376.291ZM343.22 55.0872C338.901 69.9063 328.808 90.6335 305.254 105.22C304.639 105.601 303.941 105.792 303.243 105.792C302.566 105.792 301.888 105.612 301.285 105.252C277.065 90.792 266.979 70.0261 262.783 55.1516C258.247 39.0716 259.421 26.4693 259.473 25.9405C259.641 24.2341 260.926 22.8488 262.615 22.5531C279.158 19.6548 301.073 6.7201 301.293 6.58989C302.496 5.87562 303.994 5.87686 305.197 6.59155C305.415 6.72218 327.303 19.6602 343.82 22.5531C345.541 22.8547 346.838 24.2853 346.97 26.0275C347.01 26.5525 347.89 39.067 343.22 55.0872ZM299.155 16.5098C297 17.6526 294.384 18.9921 291.438 20.3986C282.138 24.8361 273.92 27.8791 266.956 29.467C266.889 33.8183 267.21 42.8426 270.216 53.3595C275.141 70.584 284.87 84.4564 299.155 94.7103V16.5098ZM315.021 20.3973C311.952 18.9305 309.238 17.534 307.038 16.3601V94.7752C321.119 84.3698 330.818 70.3365 335.886 52.9493C338.912 42.5664 339.397 33.7676 339.417 29.4528C332.467 27.8612 324.279 24.8228 315.021 20.3973ZM151.159 372.124H94.7756C88.1421 372.124 82.7455 366.727 82.7455 360.094V311.241C82.7455 304.607 88.1421 299.21 94.7756 299.21H96.9684V285.165C96.9684 270.829 108.632 259.165 122.967 259.165C137.303 259.165 148.966 270.829 148.966 285.165V299.21H151.159C157.793 299.21 163.189 304.607 163.189 311.241V360.094C163.189 366.727 157.793 372.124 151.159 372.124ZM143.155 364.484H151.159C153.58 364.484 155.55 362.514 155.55 360.094V351.466H136.096V352.353L143.155 364.484ZM116.152 355.285L110.871 364.484H134.405L129.112 355.288C128.776 354.707 128.627 354.048 128.627 353.377V320.187C128.627 319.618 128.727 319.057 128.971 318.543L134.534 306.85H110.788L116.296 318.548C116.539 319.06 116.595 319.62 116.595 320.187V353.377C116.595 354.047 116.487 354.705 116.152 355.285ZM132.243 299.21V285.199C132.243 280.084 128.082 275.924 122.967 275.924C117.853 275.924 113.692 280.084 113.692 285.199V299.21H132.243ZM90.3852 360.094C90.3852 362.514 92.3546 364.484 94.7756 364.484H102.117L109.127 352.355V351.466H90.3852V360.094ZM90.3852 343.582H109.127V340.677H90.3852V343.582ZM90.3852 333.209H109.127V330.304H90.3852V333.209ZM94.7756 306.85C92.3546 306.85 90.3852 308.82 90.3852 311.241V322.836H109.127V321.048L102.368 306.85H94.7756ZM141.327 285.165C141.327 275.042 133.091 266.805 122.967 266.805C112.844 266.805 104.609 275.042 104.609 285.165V299.21H106.053V285.199C106.053 275.872 113.641 268.283 122.967 268.283C132.294 268.283 139.882 275.872 139.882 285.199V299.21H141.327V285.165ZM155.55 311.241C155.55 308.82 153.58 306.85 151.159 306.85H142.917L136.096 321.051V322.836H155.55V311.241ZM155.55 330.304H136.096V333.209H155.55V330.304ZM136.096 340.677V343.582H155.55V340.677H136.096Z" fill="#FC4B36"/>
<path fill-rule="evenodd" clip-rule="evenodd" d="M403.419 68.6221H396.543C394.434 68.6221 392.724 66.7905 392.724 64.6805C392.724 62.5706 394.434 60.7389 396.543 60.7389H403.419C405.529 60.7389 407.239 62.5706 407.239 64.6805C407.239 66.7905 405.529 68.6221 403.419 68.6221ZM388.159 83.4505C386.05 83.4505 384.425 81.7399 384.425 79.6303V73.5185C384.425 71.4085 386.05 69.6979 388.159 69.6979C390.269 69.6979 391.894 71.4085 391.894 73.5185V79.6303C391.894 81.7399 390.269 83.4505 388.159 83.4505ZM388.159 60.5301C386.05 60.5301 384.425 58.8199 384.425 56.71V49.8339C384.425 47.724 386.05 46.0138 388.159 46.0138C390.269 46.0138 391.894 47.724 391.894 49.8339V56.71C391.894 58.8199 390.269 60.5301 388.159 60.5301ZM379.736 68.6221H373.624C371.514 68.6221 369.804 66.7905 369.804 64.6805C369.804 62.5706 371.514 60.7389 373.624 60.7389H379.736C381.845 60.7389 383.556 62.5706 383.556 64.6805C383.556 66.7905 381.845 68.6221 379.736 68.6221ZM401.438 154.399C408.438 173.663 411.987 193.918 411.987 214.6C411.987 223.941 411.25 233.318 409.796 242.469C409.497 244.349 407.873 245.69 406.028 245.69C405.829 245.69 405.627 245.674 405.424 245.642C403.34 245.311 401.919 243.353 402.25 241.27C403.642 232.514 404.347 223.541 404.347 214.6C404.347 194.81 400.952 175.433 394.258 157.008C387.788 139.202 378.401 122.701 366.358 107.965C366.292 107.884 359.576 99.6928 353.657 93.9328C352.145 92.4614 352.112 90.0428 353.583 88.5307C355.054 87.0189 357.473 86.9856 358.985 88.457C365.22 94.5244 371.987 102.78 372.272 103.129C384.862 118.534 394.674 135.783 401.438 154.399ZM337.493 203.437L361.547 214.656C370.426 218.797 378.155 225.181 383.897 233.119C389.64 241.057 393.286 250.395 394.442 260.123L409.799 389.104C410.049 391.198 408.553 393.099 406.458 393.348C406.305 393.367 406.152 393.375 406.002 393.375C404.094 393.375 402.445 391.948 402.213 390.007L386.856 261.025C385.853 252.584 382.69 244.483 377.708 237.597C372.726 230.711 366.021 225.173 358.319 221.58L334.686 210.558L323.828 238.106C323.758 238.282 323.665 238.44 323.574 238.599L355.561 270.588C357.053 272.08 357.053 274.499 355.561 275.991C354.069 277.482 351.651 277.482 350.159 275.991L307.111 232.941C300.761 226.591 290.429 226.591 284.079 232.941C277.729 239.291 277.729 249.623 284.079 255.973L305.729 277.624C305.737 277.631 305.744 277.639 305.752 277.646L325.739 297.634C325.743 297.638 325.746 297.642 325.75 297.646L338.931 310.827C340.423 312.319 340.423 314.738 338.931 316.23C338.185 316.976 337.207 317.349 336.23 317.349C335.252 317.349 334.275 316.976 333.529 316.23L332.032 314.733L334.023 324.612L337.353 335.442C338.175 338.118 338.233 341.651 337.533 346.244C336.588 352.426 332.373 357.738 326.533 360.107C316.997 363.974 310.952 366.294 308.566 367.003C305.289 367.976 302.535 368.458 300.222 368.458C299.468 368.458 298.762 368.407 298.098 368.305L278.532 365.3C281.284 371.388 286.892 375.782 293.673 376.831L321.142 381.08C323.227 381.403 324.656 383.354 324.333 385.439C324.041 387.326 322.415 388.675 320.563 388.675C320.369 388.675 320.172 388.661 319.975 388.63L292.506 384.382C281.542 382.686 272.745 374.697 269.968 363.984L257.292 362.037C246.36 360.358 237.812 351.514 236.506 340.531L235.007 327.929C228.883 324.366 224.506 318.274 223.188 310.985C223.153 310.787 223.132 310.587 223.128 310.386L222.657 287.991C218.611 283.368 216.427 277.208 216.954 270.779L218.562 251.157L127.01 215.068C122.488 213.286 118.931 209.849 116.994 205.391C115.057 200.933 114.971 195.987 116.754 191.465L156.003 91.889C157.786 87.3671 161.223 83.8095 165.68 81.8722C170.138 79.9348 175.084 79.85 179.606 81.6325L340.885 145.207C350.22 148.887 354.821 159.476 351.142 168.811L337.493 203.437ZM244.092 339.628C244.995 347.216 250.9 353.325 258.452 354.485L299.258 360.753C300.122 360.887 302.201 360.924 306.39 359.679C308.481 359.058 314.615 356.695 323.662 353.026C327.019 351.665 329.44 348.624 329.98 345.091C330.657 340.655 330.314 338.548 330.05 337.687L327.912 330.735L309.141 338.749C303.704 341.07 297.765 341.692 291.965 340.548L243.054 330.897L244.092 339.628ZM230.759 309.908C232.109 316.731 237.356 321.985 244.2 323.336L293.444 333.052C297.731 333.897 302.122 333.438 306.141 331.722L325.957 323.262L322.626 306.73C322.529 306.249 322.536 305.773 322.616 305.317L322.537 305.238L314.899 310.253C309.521 313.784 303.229 315.603 296.905 315.603C293.208 315.603 289.5 314.981 285.957 313.717L232.306 294.568C231.661 294.338 231.034 294.078 230.421 293.797L230.759 309.908ZM234.874 287.372L288.526 306.521C295.883 309.147 304.175 308.155 310.705 303.867L317.02 299.72L300.924 283.624L225.987 254.085L224.568 271.403C223.993 278.435 228.23 285.001 234.874 287.372ZM343.895 157.93C342.771 155.344 340.707 153.349 338.084 152.315L176.804 88.7403C174.18 87.7061 171.312 87.7552 168.725 88.8793C166.139 90.0033 164.145 92.0671 163.111 94.6908L123.861 194.267C122.827 196.89 122.877 199.759 124.001 202.346C125.124 204.932 127.188 206.927 129.812 207.961L287.369 270.068L278.677 261.376C274.107 256.806 271.791 250.832 271.698 244.829L230.286 228.639C228.321 227.87 227.351 225.655 228.119 223.69C228.887 221.725 231.102 220.754 233.068 221.523L272.86 237.081C273.986 233.591 275.911 230.305 278.677 227.538C288.006 218.209 303.184 218.209 312.513 227.538L317.726 232.752L344.034 166.009C345.068 163.386 345.019 160.516 343.895 157.93ZM222.548 155.034C220.4 155.975 218.126 156.446 215.849 156.446C213.792 156.446 211.733 156.061 209.76 155.29C205.602 153.664 202.326 150.517 200.535 146.427C200.32 145.935 200.132 145.435 199.965 144.932C199.501 145.189 199.025 145.429 198.532 145.644C196.384 146.585 194.11 147.056 191.833 147.056C189.776 147.056 187.717 146.672 185.743 145.9C181.585 144.274 178.309 141.127 176.519 137.038C174.728 132.948 174.637 128.406 176.263 124.248C177.888 120.09 181.036 116.814 185.125 115.023C189.215 113.232 193.757 113.142 197.914 114.767C202.072 116.393 205.348 119.54 207.139 123.63C207.354 124.122 207.542 124.622 207.708 125.125C208.172 124.868 208.649 124.628 209.142 124.413C213.231 122.622 217.773 122.532 221.931 124.157C226.089 125.783 229.364 128.93 231.155 133.019C232.945 137.109 233.036 141.651 231.411 145.809C229.785 149.967 226.638 153.243 222.548 155.034ZM200.14 126.694C199.168 124.474 197.389 122.765 195.132 121.883C194.061 121.464 192.943 121.255 191.826 121.255C190.59 121.255 189.356 121.511 188.189 122.022C185.969 122.994 184.26 124.773 183.378 127.03C182.496 129.287 182.545 131.753 183.517 133.973C184.489 136.193 186.268 137.902 188.525 138.784C190.783 139.667 193.248 139.618 195.468 138.645C197.688 137.673 199.397 135.895 200.279 133.638C201.161 131.38 201.112 128.914 200.14 126.694ZM224.156 136.084C223.184 133.864 221.406 132.155 219.149 131.273C218.077 130.854 216.959 130.645 215.843 130.645C214.606 130.645 213.372 130.901 212.206 131.412C209.986 132.384 208.277 134.162 207.395 136.419C206.512 138.677 206.561 141.143 207.533 143.362C208.505 145.583 210.284 147.291 212.541 148.174C214.798 149.057 217.264 149.007 219.484 148.035C221.704 147.063 223.413 145.284 224.295 143.027C225.178 140.77 225.129 138.304 224.156 136.084ZM229.19 200.609C228.601 202.117 227.159 203.038 225.631 203.038C225.169 203.038 224.699 202.954 224.242 202.775L159.694 177.539C157.729 176.771 156.759 174.555 157.527 172.591C158.296 170.625 160.512 169.655 162.476 170.424L227.024 195.66C228.989 196.428 229.959 198.644 229.19 200.609ZM221.221 220.993C220.631 222.501 219.189 223.422 217.663 223.422C217.2 223.422 216.73 223.338 216.273 223.159L151.725 197.923C149.76 197.155 148.79 194.939 149.558 192.975C150.327 191.009 152.542 190.04 154.507 190.808L219.054 216.044C221.019 216.812 221.989 219.028 221.221 220.993ZM235.725 45.9714C212.959 45.9714 190.876 50.4292 170.09 59.2214C150.011 67.7148 131.977 79.8737 116.49 95.3614C101.003 110.849 88.8439 128.883 80.3511 148.963C71.5596 169.75 67.1017 191.833 67.1017 214.6C67.1017 237.366 71.5596 259.45 80.3511 280.237C81.1729 282.18 80.2639 284.421 78.3211 285.243C77.8356 285.449 77.3311 285.546 76.8347 285.546C75.3459 285.546 73.9315 284.67 73.3147 283.213C64.1225 261.479 59.4616 238.394 59.4616 214.6C59.4616 190.805 64.1225 167.721 73.3147 145.987C82.1927 124.997 94.9014 106.146 111.088 89.9592C127.274 73.7722 146.124 61.063 167.114 52.1852C188.847 42.9924 211.931 38.3311 235.725 38.3311C237.834 38.3311 239.544 40.0413 239.544 42.1512C239.544 44.2612 237.834 45.9714 235.725 45.9714ZM64.2094 306.165C64.2094 308.275 62.4994 310.107 60.3895 310.107H53.5137C51.4042 310.107 49.6938 308.275 49.6938 306.165C49.6938 304.056 51.4042 302.224 53.5137 302.224H60.3895C62.4994 302.224 64.2094 304.056 64.2094 306.165ZM45.0302 324.878C42.9207 324.878 41.296 323.168 41.296 321.058V314.946C41.296 312.836 42.9207 311.126 45.0302 311.126C47.1401 311.126 48.7644 312.836 48.7644 314.946V321.058C48.7644 323.168 47.1401 324.878 45.0302 324.878ZM45.0302 301.958C42.9207 301.958 41.296 300.248 41.296 298.138V291.262C41.296 289.152 42.9207 287.441 45.0302 287.441C47.1401 287.441 48.7644 289.152 48.7644 291.262V298.138C48.7644 300.248 47.1401 301.958 45.0302 301.958ZM36.7061 310.107H30.5942C28.4843 310.107 26.7743 308.275 26.7743 306.165C26.7743 304.056 28.4843 302.224 30.5942 302.224H36.7061C38.816 302.224 40.526 304.056 40.526 306.165C40.526 308.275 38.816 310.107 36.7061 310.107ZM146.338 398.901H152.45C154.56 398.901 156.27 400.732 156.27 402.842C156.27 404.952 154.56 406.784 152.45 406.784H146.338C144.228 406.784 142.518 404.952 142.518 402.842C142.518 400.732 144.228 398.901 146.338 398.901ZM160.79 384.089C162.899 384.089 164.524 385.8 164.524 387.909V394.785C164.524 396.895 162.899 398.605 160.79 398.605C158.68 398.605 157.055 396.895 157.055 394.785V387.909C157.055 385.8 158.68 384.089 160.79 384.089ZM160.79 407.774C162.899 407.774 164.524 409.484 164.524 411.594V417.706C164.524 419.816 162.899 421.526 160.79 421.526C158.68 421.526 157.055 419.816 157.055 417.706V411.594C157.055 409.484 158.68 407.774 160.79 407.774ZM169.258 398.901H176.134C178.243 398.901 179.953 400.732 179.953 402.842C179.953 404.952 178.243 406.784 176.134 406.784H169.258C167.148 406.784 165.438 404.952 165.438 402.842C165.438 400.732 167.148 398.901 169.258 398.901ZM189.539 338.86C189.539 333.213 194.133 328.619 199.78 328.619C205.426 328.619 210.02 333.213 210.02 338.86C210.02 344.508 205.426 349.101 199.78 349.101C194.133 349.101 189.539 344.508 189.539 338.86ZM202.381 338.86C202.381 337.426 201.214 336.259 199.78 336.259C198.346 336.259 197.179 337.426 197.179 338.86C197.179 340.294 198.346 341.461 199.78 341.461C201.214 341.461 202.381 340.294 202.381 338.86ZM187.697 376.291C203.218 380.895 219.377 383.229 235.725 383.229C241.523 383.229 247.369 382.931 253.101 382.345C255.208 382.131 257.075 383.657 257.29 385.756C257.505 387.855 255.978 389.73 253.879 389.945C247.889 390.558 241.781 390.869 235.725 390.869C218.641 390.869 201.751 388.429 185.525 383.616C183.502 383.016 182.349 380.89 182.948 378.868C183.548 376.845 185.675 375.692 187.697 376.291ZM343.22 55.0872C338.901 69.9063 328.808 90.6335 305.254 105.22C304.639 105.601 303.941 105.792 303.243 105.792C302.566 105.792 301.888 105.612 301.285 105.252C277.065 90.792 266.979 70.0261 262.783 55.1516C258.247 39.0716 259.421 26.4693 259.473 25.9405C259.641 24.2341 260.926 22.8488 262.615 22.5531C279.158 19.6548 301.073 6.7201 301.293 6.58989C302.496 5.87562 303.994 5.87686 305.197 6.59155C305.415 6.72218 327.303 19.6602 343.82 22.5531C345.541 22.8547 346.838 24.2853 346.97 26.0275C347.01 26.5525 347.89 39.067 343.22 55.0872ZM299.155 16.5098C297 17.6526 294.384 18.9921 291.438 20.3986C282.138 24.8361 273.92 27.8791 266.956 29.467C266.889 33.8183 267.21 42.8426 270.216 53.3595C275.141 70.584 284.87 84.4564 299.155 94.7103V16.5098ZM315.021 20.3973C311.952 18.9305 309.238 17.534 307.038 16.3601V94.7752C321.119 84.3698 330.818 70.3365 335.886 52.9493C338.912 42.5664 339.397 33.7676 339.417 29.4528C332.467 27.8612 324.279 24.8228 315.021 20.3973ZM151.159 372.124H94.7756C88.1421 372.124 82.7455 366.727 82.7455 360.094V311.241C82.7455 304.607 88.1421 299.21 94.7756 299.21H96.9684V285.165C96.9684 270.829 108.632 259.165 122.967 259.165C137.303 259.165 148.966 270.829 148.966 285.165V299.21H151.159C157.793 299.21 163.189 304.607 163.189 311.241V360.094C163.189 366.727 157.793 372.124 151.159 372.124ZM143.155 364.484H151.159C153.58 364.484 155.55 362.514 155.55 360.094V351.466H136.096V352.353L143.155 364.484ZM116.152 355.285L110.871 364.484H134.405L129.112 355.288C128.776 354.707 128.627 354.048 128.627 353.377V320.187C128.627 319.618 128.727 319.057 128.971 318.543L134.534 306.85H110.788L116.296 318.548C116.539 319.06 116.595 319.62 116.595 320.187V353.377C116.595 354.047 116.487 354.705 116.152 355.285ZM132.243 299.21V285.199C132.243 280.084 128.082 275.924 122.967 275.924C117.853 275.924 113.692 280.084 113.692 285.199V299.21H132.243ZM90.3852 360.094C90.3852 362.514 92.3546 364.484 94.7756 364.484H102.117L109.127 352.355V351.466H90.3852V360.094ZM90.3852 343.582H109.127V340.677H90.3852V343.582ZM90.3852 333.209H109.127V330.304H90.3852V333.209ZM94.7756 306.85C92.3546 306.85 90.3852 308.82 90.3852 311.241V322.836H109.127V321.048L102.368 306.85H94.7756ZM141.327 285.165C141.327 275.042 133.091 266.805 122.967 266.805C112.844 266.805 104.609 275.042 104.609 285.165V299.21H106.053V285.199C106.053 275.872 113.641 268.283 122.967 268.283C132.294 268.283 139.882 275.872 139.882 285.199V299.21H141.327V285.165ZM155.55 311.241C155.55 308.82 153.58 306.85 151.159 306.85H142.917L136.096 321.051V322.836H155.55V311.241ZM155.55 330.304H136.096V333.209H155.55V330.304ZM136.096 340.677V343.582H155.55V340.677H136.096Z" fill="url(#paint0_linear_0_364)"/>
<path fill-rule="evenodd" clip-rule="evenodd" d="M161.562 33.5192C171.759 33.5192 180.025 41.7851 180.025 51.9817C180.025 62.1784 171.759 70.4447 161.562 70.4447C151.365 70.4447 143.099 62.1784 143.099 51.9817C143.099 41.7851 151.365 33.5192 161.562 33.5192Z" fill="#FF352B"/>
<defs>
<linearGradient id="paint0_linear_0_364" x1="239.063" y1="-180.378" x2="-172.414" y2="161.736" gradientUnits="userSpaceOnUse">
<stop stop-color="#FF352B"/>
<stop offset="1" stop-color="#FF352B"/>
<stop offset="1" stop-color="#5D2DCF"/>
<stop offset="1" stop-color="#5D2DCF"/>
</linearGradient>
</defs>
</svg>
