<svg xmlns="http://www.w3.org/2000/svg" width="186" height="34" viewBox="0 0 186 34">
  <defs>
    <style>
      .cls-1 {
        fill: #ccc0e8;
      }

      .cls-1, .cls-2 {
        fill-rule: evenodd;
      }

      .cls-2 {
        fill: #4e21b9;
      }
    </style>
  </defs>
  <path id="Forma_5_copiar_4" data-name="Forma 5 copiar 4" class="cls-1" d="M132.86,14.032a2.584,2.584,0,1,1,2.582-2.584A2.583,2.583,0,0,1,132.86,14.032ZM24.741,28.887L3.054,22.616l15.079-6.623,7.289,2.254a1.14,1.14,0,0,1,.784,1.213l-0.02,8.282A1.177,1.177,0,0,1,24.741,28.887Z"/>
  <path id="Forma_4_copiar_6" data-name="Forma 4 copiar 6" class="cls-2" d="M183.183,19.349a2.758,2.758,0,0,1-2.761-2.761V16.573a2.769,2.769,0,1,1,5.537-.015v0.015A2.784,2.784,0,0,1,183.183,19.349Zm2.455-2.792a2.447,2.447,0,1,0-4.894.015v0.015a2.447,2.447,0,1,0,4.894-.015V16.558Zm-2.5.511h-0.344v0.892h-0.818V15.025h1.369a1.351,1.351,0,0,1,.994.328,0.9,0.9,0,0,1,.252.671v0.015a0.92,0.92,0,0,1-.6.9l0.7,1.022h-0.94l-0.6-.892h-0.015Zm0.635-.976V16.077a0.371,0.371,0,0,0-.451-0.351h-0.528v0.709h0.535A0.368,0.368,0,0,0,183.772,16.093Zm-4.618,11.592h-3.092a0.666,0.666,0,0,1-.667-0.665V26.37a4.809,4.809,0,0,1-3.743,1.6c-2.425,0-4.285-1.386-4.285-3.921V24c0-2.63,2-3.992,4.991-3.992a9.8,9.8,0,0,1,3.061.493V20.288c0-1.315-.824-2.066-2.543-2.066a8.643,8.643,0,0,0-2.857.466,0.666,0.666,0,0,1-.85-0.445l-0.548-1.877a0.666,0.666,0,0,1,.414-0.812,12.858,12.858,0,0,1,4.571-.761c2.284,0,3.837.54,4.85,1.55a5.3,5.3,0,0,1,1.365,4.039v6.637A0.666,0.666,0,0,1,179.154,27.685Zm-3.688-5.19a4.705,4.705,0,0,0-1.742-.329c-1.295,0-2.049.634-2.049,1.573v0.047a1.4,1.4,0,0,0,1.578,1.386,2.044,2.044,0,0,0,2.213-2.09V22.495Zm-10.437,5.19H161.89a0.666,0.666,0,0,1-.667-0.665V20.8c0-1.386-.73-2.137-1.789-2.137a1.881,1.881,0,0,0-1.883,2.137v6.215a0.667,0.667,0,0,1-.668.665h-3.138a0.666,0.666,0,0,1-.667-0.665V15.646a0.666,0.666,0,0,1,.667-0.665h3.138a0.667,0.667,0,0,1,.668.665v1.119a4.726,4.726,0,0,1,3.813-2.066c2.708,0,4.332,1.785,4.332,4.673v7.647A0.666,0.666,0,0,1,165.029,27.685Zm-20.9.305a6.711,6.711,0,0,1-7.016-6.6V21.344a7.052,7.052,0,0,1,14.078-.047v0.047A6.775,6.775,0,0,1,144.132,27.99Zm2.707-6.645a2.757,2.757,0,0,0-2.707-2.865,2.664,2.664,0,0,0-2.661,2.818v0.047a2.758,2.758,0,0,0,2.708,2.865,2.664,2.664,0,0,0,2.66-2.818V21.344Zm-12.624,6.34h-2.626a0.922,0.922,0,0,1-.923-0.921V15.9a0.922,0.922,0,0,1,.923-0.921h2.626a0.923,0.923,0,0,1,.924.921V26.764A0.923,0.923,0,0,1,134.215,27.685Zm-10.658-3.452a2.708,2.708,0,0,0,1.925-.77,0.933,0.933,0,0,1,1.174-.075l1.57,1.135a0.917,0.917,0,0,1,.16,1.346,6.323,6.323,0,0,1-5.065,2.121,6.563,6.563,0,0,1-6.662-6.6V21.344a6.608,6.608,0,0,1,6.827-6.622,6.1,6.1,0,0,1,4.861,2.058,0.916,0.916,0,0,1-.159,1.329l-1.61,1.2a0.93,0.93,0,0,1-1.2-.085,2.535,2.535,0,0,0-1.867-.74,2.638,2.638,0,0,0-2.5,2.818v0.047A2.639,2.639,0,0,0,123.557,24.233Zm-9.331,3.452h-3.092a0.666,0.666,0,0,1-.667-0.665V26.37a4.807,4.807,0,0,1-3.743,1.6c-2.425,0-4.284-1.386-4.284-3.921V24c0-2.63,2-3.992,4.99-3.992a9.791,9.791,0,0,1,3.061.493V20.288c0-1.315-.824-2.066-2.543-2.066a8.643,8.643,0,0,0-2.857.466,0.666,0.666,0,0,1-.85-0.445l-0.547-1.877a0.665,0.665,0,0,1,.413-0.812,12.862,12.862,0,0,1,4.571-.761c2.284,0,3.838.54,4.85,1.55a5.3,5.3,0,0,1,1.365,4.039v6.637A0.666,0.666,0,0,1,114.226,27.685Zm-3.688-5.19a4.7,4.7,0,0,0-1.742-.329c-1.3,0-2.048.634-2.048,1.573v0.047a1.4,1.4,0,0,0,1.577,1.386,2.044,2.044,0,0,0,2.213-2.09V22.495Zm-14.5,5.472a10.432,10.432,0,0,1-5.23-1.364,0.92,0.92,0,0,1-.322-1.281L91.2,24.165a0.926,0.926,0,0,1,1.221-.335,7.916,7.916,0,0,0,3.639,1.014c0.777,0,1.13-.235,1.13-0.681V24.115c0-.493-0.706-0.7-2.048-1.08-2.519-.658-4.52-1.5-4.52-4.062V18.926c0-2.7,2.166-4.2,5.108-4.2a10.236,10.236,0,0,1,4.417,1.011,0.92,0.92,0,0,1,.4,1.265l-0.671,1.236a0.92,0.92,0,0,1-1.188.4,7.8,7.8,0,0,0-3.006-.791c-0.683,0-1.036.258-1.036,0.61V18.5c0,0.493.73,0.728,2.072,1.127,2.519,0.7,4.52,1.573,4.52,4.039v0.047C101.239,26.511,99.144,27.966,96.036,27.966ZM88,27.685H84.862a0.666,0.666,0,0,1-.667-0.665V20.8c0-1.386-.73-2.137-1.789-2.137A1.881,1.881,0,0,0,80.522,20.8v6.215a0.666,0.666,0,0,1-.667.665H76.717a0.666,0.666,0,0,1-.667-0.665V15.646a0.666,0.666,0,0,1,.667-0.665h3.139a0.666,0.666,0,0,1,.667.665v1.119A4.727,4.727,0,0,1,84.336,14.7c2.707,0,4.332,1.785,4.332,4.673v7.647A0.666,0.666,0,0,1,88,27.685Zm-14.9,0H70.007a0.666,0.666,0,0,1-.667-0.665V26.37a4.809,4.809,0,0,1-3.743,1.6c-2.425,0-4.285-1.386-4.285-3.921V24c0-2.63,2-3.992,4.991-3.992a9.791,9.791,0,0,1,3.061.493V20.288c0-1.315-.824-2.066-2.543-2.066a8.646,8.646,0,0,0-2.858.466,0.666,0.666,0,0,1-.85-0.445l-0.548-1.877a0.666,0.666,0,0,1,.413-0.812,12.861,12.861,0,0,1,4.571-.761c2.284,0,3.837.54,4.85,1.55a5.3,5.3,0,0,1,1.365,4.039v6.637A0.666,0.666,0,0,1,73.1,27.685Zm-3.688-5.19a4.7,4.7,0,0,0-1.742-.329c-1.295,0-2.048.634-2.048,1.573v0.047A1.4,1.4,0,0,0,67.2,25.172a2.045,2.045,0,0,0,2.213-2.09V22.495ZM56.933,23.74v3.279a0.666,0.666,0,0,1-.667.665H53.127a0.666,0.666,0,0,1-.667-0.665V15.488a0.508,0.508,0,0,1,.508-0.507h3.456a0.508,0.508,0,0,1,.509.507V17.54a3.9,3.9,0,0,1,3.645-2.774,0.374,0.374,0,0,1,.38.376V19.09a0.376,0.376,0,0,1-.377.376C58.252,19.466,56.933,20.8,56.933,23.74Zm-9.37-5.166v4.3a1.081,1.081,0,0,0,1.224,1.268,3.521,3.521,0,0,0,1.034-.162,0.517,0.517,0,0,1,.661.5V26.9a0.516,0.516,0,0,1-.294.468,6.609,6.609,0,0,1-2.814.577c-2.684,0-4.285-1.174-4.285-4.2V18.574H41.7a0.519,0.519,0,0,1-.519-0.518V15.5a0.519,0.519,0,0,1,.519-0.518h1.386v-2.7a0.519,0.519,0,0,1,.52-0.518h3.434a0.519,0.519,0,0,1,.519.518v2.7H50.01a0.519,0.519,0,0,1,.519.518v2.557a0.519,0.519,0,0,1-.519.518H47.564ZM29.417,13.284a0.617,0.617,0,0,1-1.081-.4V12.234L17.927,15.927,1.435,21.9h0l-0.119.042a0.986,0.986,0,0,1-.236.038H1.031a1.031,1.031,0,0,1-1.022-.892A0.96,0.96,0,0,1,0,20.953v-8.6a1.029,1.029,0,0,1,.677-0.966l0.048-.017L28.336,1.4V0.612a0.617,0.617,0,0,1,.946-0.52l8.031,2.923a0.615,0.615,0,0,1,.134.925ZM15.084,20.113a0.617,0.617,0,0,1,1.081.4v0.666l8.693-2.874h0l0.118-.042a1.033,1.033,0,0,1,1.315.99v8.6a1.029,1.029,0,0,1-.677.967l-0.048.017-9.405,3.166v0.776a0.617,0.617,0,0,1-.947.521l-8.03-2.923a0.614,0.614,0,0,1-.134-0.925Z"/>
</svg>
