<svg width="37" height="37" viewBox="0 0 37 37" fill="none" xmlns="http://www.w3.org/2000/svg">
<path fill-rule="evenodd" clip-rule="evenodd" d="M2.80663 21.103H16.3006V34.5963C16.3006 35.9229 17.3763 36.9978 18.7021 36.9978C20.0279 36.9978 21.1035 35.9229 21.1035 34.5963V21.103H34.596C35.9218 21.103 36.9974 20.028 36.9974 18.7017C36.9974 17.375 35.9218 16.3002 34.596 16.3002H21.1035V2.80671C21.1035 1.48026 20.0279 0.405409 18.7021 0.405409C17.3763 0.405409 16.3006 1.48026 16.3006 2.80671V16.3002H2.80663C1.48089 16.3002 0.405187 17.375 0.405187 18.7017C0.405187 20.028 1.48089 21.103 2.80663 21.103Z" fill="#FF352B"/>
</svg>
