<svg width="308" height="277" viewBox="0 0 308 277" fill="none" xmlns="http://www.w3.org/2000/svg">
<g clip-path="url(#clip0_0_142)">
<path fill-rule="evenodd" clip-rule="evenodd" d="M38.2002 200.6C59.2976 200.6 76.4003 217.702 76.4003 238.8C76.4003 259.897 59.2976 277 38.2002 277C17.1029 277 0 259.897 0 238.8C0 217.702 17.1029 200.6 38.2002 200.6Z" fill="#F8F5FE"/>
<path fill-rule="evenodd" clip-rule="evenodd" d="M249.232 150.702C248.266 150.702 247.483 149.919 247.483 148.954C247.483 145.732 247.338 142.482 247.053 139.292C246.819 136.683 246.486 134.052 246.063 131.472C245.906 130.519 246.552 129.619 247.506 129.463C247.601 129.447 247.696 129.44 247.79 129.44C248.631 129.439 249.375 130.048 249.516 130.905C249.953 133.57 250.297 136.286 250.538 138.98C250.833 142.273 250.982 145.629 250.982 148.954C250.982 149.919 250.199 150.702 249.232 150.702ZM246.504 46.7145H242.305C241.339 46.7145 240.555 45.9317 240.555 44.9657C240.555 43.9998 241.339 43.2167 242.305 43.2167H246.504C247.47 43.2167 248.254 43.9998 248.254 44.9657C248.254 45.9317 247.47 46.7145 246.504 46.7145ZM237.289 55.9261C236.323 55.9261 235.54 55.1432 235.54 54.1771V50.446C235.54 49.4799 236.323 48.697 237.289 48.697C238.256 48.697 239.039 49.4799 239.039 50.446V54.1771C239.039 55.1432 238.256 55.9261 237.289 55.9261ZM237.289 41.934C236.323 41.934 235.54 41.1509 235.54 40.1852V35.9874C235.54 35.0215 236.323 34.2384 237.289 34.2384C238.256 34.2384 239.039 35.0215 239.039 35.9874V40.1852C239.039 41.1509 238.256 41.934 237.289 41.934ZM232.041 46.7145H228.308C227.342 46.7145 226.558 45.9317 226.558 44.9657C226.558 43.9998 227.342 43.2167 228.308 43.2167H232.041C233.007 43.2167 233.79 43.9998 233.79 44.9657C233.79 45.9317 233.007 46.7145 232.041 46.7145ZM190.55 198.408C177.972 216.57 161.687 231.913 142.147 244.009C141.865 244.184 141.546 244.271 141.226 244.271C140.916 244.271 140.606 244.189 140.329 244.024C120.252 232.041 103.625 216.768 90.9123 198.627C80.743 184.115 73.0454 167.753 68.0339 149.995C59.503 119.766 61.6868 96.3116 61.7839 95.3276C61.8611 94.5465 62.4497 93.9124 63.2233 93.7768C96.3858 87.9699 139.897 62.304 140.333 62.0452C140.884 61.718 141.57 61.7187 142.121 62.0461C142.556 62.3047 185.967 87.9699 219.129 93.7768C219.917 93.9149 220.511 94.5698 220.572 95.3676C220.646 96.3455 222.285 119.668 213.493 149.823C208.328 167.536 200.609 183.882 190.55 198.408ZM217.15 96.9717C199.787 93.6821 180.146 85.3646 166.569 78.8779C155.762 73.7145 147.029 68.8854 142.907 66.5397V94.3334C142.907 95.2996 142.123 96.0827 141.157 96.0827C140.191 96.0827 139.407 95.2996 139.407 94.3334V66.6145C135.225 68.9866 126.545 73.7679 115.832 78.8786C102.225 85.3689 82.5433 93.6922 65.1714 96.9776C64.8473 102.331 64.1745 123.516 71.4391 149.178C76.3528 166.535 83.8853 182.52 93.8279 196.69C105.67 213.567 121 227.901 139.407 239.351V199.793C139.407 198.827 140.191 198.044 141.157 198.044C142.123 198.044 142.907 198.827 142.907 199.793V239.377C160.878 227.802 175.935 213.367 187.673 196.417C197.517 182.201 205.074 166.195 210.134 148.844C217.577 123.314 217.359 102.353 217.15 96.9717ZM167.814 189.614H114.296C110.566 189.614 107.532 186.581 107.532 182.853V168.865C107.435 168.647 107.375 168.409 107.375 168.155C107.375 167.901 107.435 167.663 107.532 167.445V156.21C107.435 155.992 107.375 155.754 107.375 155.5C107.375 155.246 107.435 155.008 107.532 154.79V140.523C107.532 136.795 110.566 133.762 114.296 133.762H124.107V120.203C124.107 110.861 131.71 103.261 141.055 103.261C150.4 103.261 158.003 110.861 158.003 120.203V133.762H167.814C171.543 133.762 174.577 136.795 174.577 140.523V182.853C174.577 186.581 171.543 189.614 167.814 189.614ZM154.504 120.203C154.504 112.79 148.471 106.759 141.055 106.759C133.639 106.759 127.606 112.79 127.606 120.203V133.762H154.504V120.203ZM171.078 169.904H156.31C155.344 169.904 154.56 169.121 154.56 168.155C154.56 167.189 155.344 166.406 156.31 166.406H171.078V157.249H156.31C155.344 157.249 154.56 156.466 154.56 155.5C154.56 154.534 155.344 153.751 156.31 153.751H171.078V140.523C171.078 138.723 169.614 137.26 167.814 137.26H114.296C112.496 137.26 111.032 138.723 111.032 140.523V153.751H124.086C125.052 153.751 125.836 154.534 125.836 155.5C125.836 156.466 125.052 157.249 124.086 157.249H111.032V166.406H124.086C125.052 166.406 125.836 167.189 125.836 168.155C125.836 169.121 125.052 169.904 124.086 169.904H111.032V182.853C111.032 184.653 112.496 186.116 114.296 186.116H167.814C169.614 186.116 171.078 184.653 171.078 182.853V169.904ZM165.924 44.9002C165.788 44.9002 165.65 44.8844 165.512 44.8512C157.331 42.8847 148.875 41.8874 140.38 41.8874C129.518 41.8874 118.802 43.5069 108.53 46.7007C108.357 46.7543 108.182 46.7801 108.01 46.7801C107.264 46.7801 106.573 46.2994 106.34 45.55C106.053 44.6277 106.569 43.6475 107.491 43.3602C118.1 40.062 129.165 38.3894 140.38 38.3894C149.151 38.3894 157.881 39.419 166.33 41.4501C167.27 41.6759 167.848 42.6201 167.622 43.5593C167.429 44.3607 166.713 44.9002 165.924 44.9002ZM66.8667 71.0904C66.5285 71.4093 66.0967 71.5675 65.6659 71.5675C65.201 71.5675 64.7374 71.3838 64.3933 71.0193C63.73 70.3168 63.7618 69.2099 64.4643 68.5468C66.1948 66.9137 68.0005 65.3159 69.8322 63.7979C70.1586 63.5271 70.5545 63.3954 70.9479 63.3954C71.4507 63.3954 71.9497 63.611 72.2956 64.0279C72.9126 64.7717 72.8095 65.8741 72.0657 66.4909C70.2919 67.9608 68.5424 69.5087 66.8667 71.0904ZM55.9262 227.908C52.7993 227.908 50.2553 225.366 50.2553 222.24C50.2553 219.114 52.7993 216.571 55.9262 216.571C59.0531 216.571 61.5969 219.114 61.5969 222.24C61.5969 225.366 59.0531 227.908 55.9262 227.908ZM55.9262 220.069C54.7288 220.069 53.7545 221.043 53.7545 222.24C53.7545 223.437 54.7288 224.411 55.9262 224.411C57.1236 224.411 58.0979 223.437 58.0979 222.24C58.0979 221.043 57.1236 220.069 55.9262 220.069ZM34.1267 135.402C33.5631 139.864 33.2775 144.423 33.2775 148.954C33.2775 153.506 33.566 158.088 34.1355 162.572C34.257 163.53 33.5785 164.406 32.6199 164.527C32.5452 164.537 32.4707 164.541 32.3976 164.541C31.5291 164.541 30.7762 163.896 30.664 163.013C30.0763 158.383 29.7781 153.653 29.7781 148.954C29.7781 144.277 30.0732 139.57 30.6552 134.963C32.463 120.654 36.988 107.038 44.1052 94.4921C44.427 93.9241 45.0191 93.6052 45.6286 93.6052C45.9209 93.6052 46.2174 93.6787 46.49 93.8333C47.3304 94.3097 47.6255 95.3773 47.1488 96.2176C40.2582 108.364 35.8771 121.548 34.1267 135.402ZM31.7688 185.819C31.7688 186.785 30.9857 187.568 30.0194 187.568H26.2868C25.3205 187.568 24.5371 186.785 24.5371 185.819C24.5371 184.853 25.3205 184.07 26.2868 184.07H30.0194C30.9857 184.07 31.7688 184.853 31.7688 185.819ZM35.2681 175.092C36.2344 175.092 37.0178 175.875 37.0178 176.841V181.038C37.0178 182.004 36.2344 182.788 35.2681 182.788C34.3017 182.788 33.5186 182.004 33.5186 181.038V176.841C33.5186 175.875 34.3017 175.092 35.2681 175.092ZM35.2681 189.55C36.2344 189.55 37.0178 190.333 37.0178 191.299V195.031C37.0178 195.996 36.2344 196.779 35.2681 196.779C34.3017 196.779 33.5186 195.996 33.5186 195.031V191.299C33.5186 190.333 34.3017 189.55 35.2681 189.55ZM40.2836 184.07H44.4827C45.449 184.07 46.2324 184.853 46.2324 185.819C46.2324 186.785 45.449 187.568 44.4827 187.568H40.2836C39.3173 187.568 38.5341 186.785 38.5341 185.819C38.5341 184.853 39.3173 184.07 40.2836 184.07ZM73.9575 233.418C74.3304 233.418 74.7064 233.537 75.0246 233.782C78.7883 236.684 82.7796 239.358 86.8883 241.731C87.7248 242.214 88.0115 243.283 87.528 244.12C87.2038 244.681 86.6159 244.995 86.0114 244.995C85.7145 244.995 85.4135 244.919 85.1379 244.76C80.8955 242.31 76.7736 239.549 72.8876 236.552C72.1224 235.962 71.9805 234.864 72.5707 234.099C72.9153 233.652 73.4336 233.418 73.9575 233.418ZM111.768 252.221C111.92 252.221 112.075 252.241 112.229 252.283C121.357 254.762 130.829 256.019 140.38 256.019C148.105 256.019 155.812 255.194 163.289 253.565C163.415 253.538 163.54 253.524 163.663 253.524C164.468 253.524 165.192 254.084 165.371 254.902C165.577 255.845 164.978 256.777 164.034 256.983C156.313 258.665 148.354 259.517 140.38 259.517C130.519 259.517 120.739 258.219 111.311 255.659C110.378 255.405 109.828 254.444 110.081 253.512C110.293 252.734 110.998 252.221 111.768 252.221ZM192.879 242.297C195.494 240.824 198.08 239.22 200.564 237.53C200.866 237.325 201.208 237.226 201.547 237.226C202.107 237.226 202.656 237.494 202.995 237.992C203.539 238.79 203.332 239.878 202.533 240.421C199.968 242.167 197.297 243.823 194.596 245.345C194.325 245.498 194.03 245.571 193.739 245.571C193.128 245.571 192.535 245.25 192.213 244.679C191.739 243.838 192.037 242.772 192.879 242.297ZM244.477 174.246C244.671 173.446 245.386 172.909 246.176 172.909C246.312 172.909 246.451 172.924 246.59 172.958C247.529 173.185 248.106 174.131 247.878 175.07C243.572 192.844 234.775 209.448 222.439 223.085C222.094 223.467 221.618 223.661 221.141 223.661C220.723 223.661 220.303 223.512 219.968 223.209C219.252 222.562 219.196 221.455 219.844 220.739C231.79 207.533 240.308 191.456 244.477 174.246ZM223.176 237.24H226.908C227.875 237.24 228.658 238.023 228.658 238.989C228.658 239.955 227.875 240.738 226.908 240.738H223.176C222.21 240.738 221.426 239.955 221.426 238.989C221.426 238.023 222.21 237.24 223.176 237.24ZM232.157 228.262C233.124 228.262 233.907 229.045 233.907 230.01V234.208C233.907 235.174 233.124 235.957 232.157 235.957C231.191 235.957 230.407 235.174 230.407 234.208V230.01C230.407 229.045 231.191 228.262 232.157 228.262ZM232.157 242.72C233.124 242.72 233.907 243.503 233.907 244.469V248.2C233.907 249.166 233.124 249.949 232.157 249.949C231.191 249.949 230.407 249.166 230.407 248.2V244.469C230.407 243.503 231.191 242.72 232.157 242.72ZM237.173 237.24H241.372C242.338 237.24 243.121 238.023 243.121 238.989C243.121 239.955 242.338 240.738 241.372 240.738H237.173C236.206 240.738 235.423 239.955 235.423 238.989C235.423 238.023 236.206 237.24 237.173 237.24Z" fill="#5D2DCF"/>
<path fill-rule="evenodd" clip-rule="evenodd" d="M200 0.000216C259.647 0.000216 308 48.3533 308 108C308 167.647 259.647 216 200 216C140.353 216 92 167.647 92 108C92 48.3533 140.353 0.000216 200 0.000216Z" fill="#FF352B"/>
<path fill-rule="evenodd" clip-rule="evenodd" d="M200 2.93916C258.024 2.93916 305.061 49.9762 305.061 108C305.061 166.024 258.024 213.061 200 213.061C141.976 213.061 94.9389 166.024 94.9389 108C94.9389 49.9762 141.976 2.93916 200 2.93916Z" fill="white"/>
<path fill-rule="evenodd" clip-rule="evenodd" d="M244.477 174.246C244.671 173.446 245.386 172.909 246.175 172.909C246.312 172.909 246.451 172.924 246.59 172.958C247.529 173.186 248.106 174.131 247.878 175.07C244.751 187.979 239.244 200.264 231.743 211.25C229.982 211.791 228.199 212.284 226.401 212.736C234.928 201.247 241.117 188.116 244.477 174.246ZM249.232 150.702C248.266 150.702 247.483 149.919 247.483 148.953C247.483 145.732 247.338 142.482 247.053 139.292C246.819 136.683 246.486 134.052 246.063 131.472C245.906 130.519 246.552 129.619 247.506 129.463C247.601 129.447 247.697 129.44 247.79 129.44C248.631 129.439 249.375 130.048 249.516 130.905C249.953 133.57 250.297 136.286 250.538 138.98C250.833 142.273 250.982 145.629 250.982 148.953C250.982 149.919 250.199 150.702 249.232 150.702ZM246.504 43.2167C247.47 43.2167 248.253 43.9999 248.253 44.9656C248.253 45.9317 247.47 46.7145 246.504 46.7145H242.305C241.339 46.7145 240.555 45.9317 240.555 44.9656C240.555 43.9999 241.339 43.2167 242.305 43.2167H246.504ZM237.289 48.697C238.256 48.697 239.039 49.48 239.039 50.4461V54.1771C239.039 55.1432 238.256 55.926 237.289 55.926C236.323 55.926 235.54 55.1432 235.54 54.1771V50.4461C235.54 49.48 236.323 48.697 237.289 48.697ZM235.54 35.9876C235.54 35.0215 236.323 34.2385 237.289 34.2385C238.256 34.2385 239.039 35.0215 239.039 35.9876V40.1852C239.039 41.1509 238.256 41.934 237.289 41.934C236.323 41.934 235.54 41.1509 235.54 40.1852V35.9876ZM232.04 43.2167C233.007 43.2167 233.79 43.9999 233.79 44.9656C233.79 45.9317 233.007 46.7145 232.04 46.7145H228.308C227.342 46.7145 226.558 45.9317 226.558 44.9656C226.558 43.9999 227.342 43.2167 228.308 43.2167H232.04ZM141.157 198.044C142.071 198.044 142.799 198.752 142.877 199.646C142.1 199.16 141.328 198.668 140.565 198.163C140.751 198.095 140.947 198.044 141.157 198.044ZM141.055 103.261C150.4 103.261 158.003 110.861 158.003 120.203V133.762H167.814C171.543 133.762 174.577 136.795 174.577 140.523V182.853C174.577 186.581 171.543 189.614 167.814 189.614H129.312C128.002 188.479 126.72 187.313 125.467 186.116H167.814C169.614 186.116 171.078 184.652 171.078 182.853V169.904H156.31C155.344 169.904 154.56 169.121 154.56 168.155C154.56 167.189 155.344 166.406 156.31 166.406H171.078V157.249H156.31C155.344 157.249 154.56 156.466 154.56 155.5C154.56 154.534 155.344 153.751 156.31 153.751H171.078V140.523C171.078 138.723 169.614 137.26 167.814 137.26H114.296C112.496 137.26 111.032 138.723 111.032 140.523V153.751H124.086C125.052 153.751 125.836 154.534 125.836 155.5C125.836 156.466 125.052 157.249 124.086 157.249H111.032V166.406H124.086C125.052 166.406 125.836 167.189 125.836 168.155C125.836 169.121 125.052 169.904 124.086 169.904H111.526C110.135 167.92 108.79 165.901 107.532 163.823V156.21C107.435 155.992 107.375 155.754 107.375 155.5C107.375 155.246 107.435 155.008 107.532 154.79V140.523C107.532 136.795 110.567 133.762 114.296 133.762H124.107V120.203C124.107 110.861 131.71 103.261 141.055 103.261ZM127.606 133.762H154.504V120.203C154.504 112.79 148.471 106.759 141.055 106.759C133.639 106.759 127.606 112.79 127.606 120.203V133.762ZM220.572 95.3676C220.646 96.3453 222.285 119.668 213.493 149.823C208.328 167.536 200.609 183.882 190.55 198.408C186.814 203.803 182.743 208.943 178.364 213.829C177.037 213.559 175.727 213.243 174.419 212.925C179.206 207.719 183.649 202.228 187.673 196.417C197.517 182.201 205.074 166.195 210.134 148.844C217.577 123.314 217.359 102.353 217.15 96.9717C199.787 93.6821 180.146 85.3646 166.569 78.878C155.762 73.7145 147.029 68.8854 142.907 66.5397V94.3335C142.907 95.2995 142.123 96.0827 141.157 96.0827C140.191 96.0827 139.407 95.2995 139.407 94.3335V66.6146C135.225 68.9864 126.546 73.7679 115.832 78.8785C109.52 81.8892 101.896 85.2901 93.8067 88.4039C94.0581 87.033 94.3334 85.6722 94.6359 84.3204C118.741 74.7768 140.029 62.2256 140.333 62.0453C140.884 61.718 141.57 61.7186 142.121 62.0462C142.555 62.3048 185.967 87.9698 219.129 93.7769C219.917 93.9148 220.511 94.5698 220.572 95.3676ZM165.924 44.9003C165.788 44.9003 165.65 44.8842 165.512 44.8511C157.331 42.8846 148.875 41.8874 140.38 41.8874C130.651 41.8874 121.043 43.1966 111.763 45.7623C112.835 44.2456 113.944 42.759 115.091 41.3013C123.343 39.3717 131.817 38.3893 140.38 38.3893C149.151 38.3893 157.881 39.4191 166.33 41.4502C167.27 41.6759 167.848 42.6202 167.622 43.5594C167.43 44.3608 166.713 44.9003 165.924 44.9003Z" fill="#FF352B"/>
</g>
<defs>
<clipPath id="clip0_0_142">
<rect width="308" height="277" fill="white"/>
</clipPath>
</defs>
</svg>
